M48
; DRILL file {KiCad 9.0.7} date 2026-02-15T09:40:11+0300
; FORMAT={-:-/ absolute / inch / decimal}
; #@! TF.CreationDate,2026-02-15T09:40:11+03:00
; #@! TF.GenerationSoftware,Kicad,Pcbnew,9.0.7
; #@! TF.FileFunction,MixedPlating,1,2
FMAT,2
INCH
; #@! TA.AperFunction,Plated,PTH,ViaDrill
T1C0.0118
; #@! TA.AperFunction,Plated,PTH,ComponentDrill
T2C0.0315
%
G90
G05
T1
X5.235Y-3.405
X5.3543Y-3.2087
X5.3563Y-3.6063
X5.3723Y-3.4073
X5.45Y-2.9961
X5.4534Y-3.2283
X5.49Y-3.33
X5.4911Y-3.715
X5.4921Y-3.6713
X5.5315Y-3.1102
X5.5315Y-3.3071
X5.5791Y-3.4859
X5.5906Y-3.8976
X5.615Y-3.6016
X5.6299Y-2.9685
X5.6299Y-3.0315
X5.6299Y-3.248
X5.66Y-3.29
X5.66Y-3.36
X5.6693Y-4.1339
X5.71Y-3.585
X5.7264Y-3.1512
X5.7283Y-2.9528
X5.7795Y-2.8622
X5.8268Y-3.4646
X5.8465Y-3.2283
X5.876Y-3.6851
X5.8858Y-3.2283
X5.8858Y-3.4646
X5.9252Y-3.2283
X5.9372Y-3.7128
X5.9439Y-3.1299
X5.9646Y-3.2283
X5.9685Y-3.4882
X5.9843Y-3.1299
X6.061Y-3.8701
X6.063Y-3.0315
X6.1024Y-2.9921
X6.1024Y-3.7717
X6.1295Y-3.2677
X6.2008Y-3.2283
X6.3583Y-3.9173
X6.378Y-3.3661
X6.437Y-2.9921
T2
X6.2402Y-2.7906
X6.2402Y-2.8906
X6.2402Y-2.9906
X6.2402Y-3.0906
M30
