%TF.GenerationSoftware,KiCad,Pcbnew,9.0.7*%
%TF.CreationDate,2026-02-15T09:41:11+03:00*%
%TF.ProjectId,_______ 240_240,1438413f-3b35-4392-9032-343045323430,0*%
%TF.SameCoordinates,Original*%
%TF.FileFunction,Legend,Top*%
%TF.FilePolarity,Positive*%
%FSLAX46Y46*%
G04 Gerber Fmt 4.6, Leading zero omitted, Abs format (unit mm)*
G04 Created by KiCad (PCBNEW 9.0.7) date 2026-02-15 09:41:11*
%MOMM*%
%LPD*%
G01*
G04 APERTURE LIST*
G04 Aperture macros list*
%AMRoundRect*
0 Rectangle with rounded corners*
0 $1 Rounding radius*
0 $2 $3 $4 $5 $6 $7 $8 $9 X,Y pos of 4 corners*
0 Add a 4 corners polygon primitive as box body*
4,1,4,$2,$3,$4,$5,$6,$7,$8,$9,$2,$3,0*
0 Add four circle primitives for the rounded corners*
1,1,$1+$1,$2,$3*
1,1,$1+$1,$4,$5*
1,1,$1+$1,$6,$7*
1,1,$1+$1,$8,$9*
0 Add four rect primitives between the rounded corners*
20,1,$1+$1,$2,$3,$4,$5,0*
20,1,$1+$1,$4,$5,$6,$7,0*
20,1,$1+$1,$6,$7,$8,$9,0*
20,1,$1+$1,$8,$9,$2,$3,0*%
%AMFreePoly0*
4,1,6,0.725000,-0.725000,-0.725000,-0.725000,-0.725000,0.125000,-0.125000,0.725000,0.725000,0.725000,0.725000,-0.725000,0.725000,-0.725000,$1*%
G04 Aperture macros list end*
%ADD10C,0.100000*%
%ADD11C,0.125000*%
%ADD12C,0.120000*%
%ADD13C,1.007107*%
%ADD14RoundRect,0.250000X-1.000000X-0.650000X1.000000X-0.650000X1.000000X0.650000X-1.000000X0.650000X0*%
%ADD15RoundRect,0.150000X0.150000X-0.587500X0.150000X0.587500X-0.150000X0.587500X-0.150000X-0.587500X0*%
%ADD16RoundRect,0.225000X0.250000X-0.225000X0.250000X0.225000X-0.250000X0.225000X-0.250000X-0.225000X0*%
%ADD17RoundRect,0.250000X-0.457500X-0.445000X0.457500X-0.445000X0.457500X0.445000X-0.457500X0.445000X0*%
%ADD18RoundRect,0.150000X-0.825000X-0.150000X0.825000X-0.150000X0.825000X0.150000X-0.825000X0.150000X0*%
%ADD19R,1.700000X0.900000*%
%ADD20RoundRect,0.200000X-0.275000X0.200000X-0.275000X-0.200000X0.275000X-0.200000X0.275000X0.200000X0*%
%ADD21RoundRect,0.200000X-0.200000X-0.275000X0.200000X-0.275000X0.200000X0.275000X-0.200000X0.275000X0*%
%ADD22RoundRect,0.250000X-0.275000X-0.700000X0.275000X-0.700000X0.275000X0.700000X-0.275000X0.700000X0*%
%ADD23RoundRect,0.200000X0.275000X-0.200000X0.275000X0.200000X-0.275000X0.200000X-0.275000X-0.200000X0*%
%ADD24RoundRect,0.243750X-0.456250X0.243750X-0.456250X-0.243750X0.456250X-0.243750X0.456250X0.243750X0*%
%ADD25RoundRect,0.150000X0.150000X0.700000X-0.150000X0.700000X-0.150000X-0.700000X0.150000X-0.700000X0*%
%ADD26RoundRect,0.250000X0.250000X1.150000X-0.250000X1.150000X-0.250000X-1.150000X0.250000X-1.150000X0*%
%ADD27RoundRect,0.225000X0.225000X0.250000X-0.225000X0.250000X-0.225000X-0.250000X0.225000X-0.250000X0*%
%ADD28RoundRect,0.125000X-0.487500X-0.125000X0.487500X-0.125000X0.487500X0.125000X-0.487500X0.125000X0*%
%ADD29RoundRect,0.250000X-0.420000X-0.945000X0.420000X-0.945000X0.420000X0.945000X-0.420000X0.945000X0*%
%ADD30RoundRect,0.150000X-0.587500X-0.150000X0.587500X-0.150000X0.587500X0.150000X-0.587500X0.150000X0*%
%ADD31R,1.700000X1.700000*%
%ADD32C,1.700000*%
%ADD33R,0.800000X0.400000*%
%ADD34R,0.400000X0.800000*%
%ADD35FreePoly0,0.000000*%
%ADD36R,1.450000X1.450000*%
%ADD37R,0.700000X0.700000*%
%ADD38RoundRect,0.250000X1.075000X-0.375000X1.075000X0.375000X-1.075000X0.375000X-1.075000X-0.375000X0*%
%ADD39RoundRect,0.225000X-0.225000X-0.250000X0.225000X-0.250000X0.225000X0.250000X-0.225000X0.250000X0*%
%ADD40RoundRect,0.150000X0.150000X-0.512500X0.150000X0.512500X-0.150000X0.512500X-0.150000X-0.512500X0*%
%ADD41RoundRect,0.200000X0.200000X0.275000X-0.200000X0.275000X-0.200000X-0.275000X0.200000X-0.275000X0*%
%ADD42RoundRect,0.150000X-0.512500X-0.150000X0.512500X-0.150000X0.512500X0.150000X-0.512500X0.150000X0*%
%ADD43RoundRect,0.225000X0.225000X0.375000X-0.225000X0.375000X-0.225000X-0.375000X0.225000X-0.375000X0*%
G04 APERTURE END LIST*
D10*
X157000000Y-71000000D02*
X157000000Y-70500000D01*
X157000000Y-78500000D02*
X157500000Y-78500000D01*
X157000000Y-73840000D02*
X157000000Y-78500000D01*
X157000000Y-70500000D02*
X157500000Y-70500000D01*
D11*
X146202855Y-88361833D02*
X146698093Y-88361833D01*
X146698093Y-88361833D02*
X146398093Y-88628500D01*
X146398093Y-88628500D02*
X146512378Y-88628500D01*
X146512378Y-88628500D02*
X146584402Y-88661833D01*
X146584402Y-88661833D02*
X146618331Y-88695166D01*
X146618331Y-88695166D02*
X146648093Y-88761833D01*
X146648093Y-88761833D02*
X146627259Y-88928500D01*
X146627259Y-88928500D02*
X146580831Y-88995166D01*
X146580831Y-88995166D02*
X146538569Y-89028500D01*
X146538569Y-89028500D02*
X146458212Y-89061833D01*
X146458212Y-89061833D02*
X146229640Y-89061833D01*
X146229640Y-89061833D02*
X146157616Y-89028500D01*
X146157616Y-89028500D02*
X146123688Y-88995166D01*
X146961783Y-88995166D02*
X146995712Y-89028500D01*
X146995712Y-89028500D02*
X146953450Y-89061833D01*
X146953450Y-89061833D02*
X146919521Y-89028500D01*
X146919521Y-89028500D02*
X146961783Y-88995166D01*
X146961783Y-88995166D02*
X146953450Y-89061833D01*
X147345712Y-88361833D02*
X147840950Y-88361833D01*
X147840950Y-88361833D02*
X147540950Y-88628500D01*
X147540950Y-88628500D02*
X147655235Y-88628500D01*
X147655235Y-88628500D02*
X147727259Y-88661833D01*
X147727259Y-88661833D02*
X147761188Y-88695166D01*
X147761188Y-88695166D02*
X147790950Y-88761833D01*
X147790950Y-88761833D02*
X147770116Y-88928500D01*
X147770116Y-88928500D02*
X147723688Y-88995166D01*
X147723688Y-88995166D02*
X147681426Y-89028500D01*
X147681426Y-89028500D02*
X147601069Y-89061833D01*
X147601069Y-89061833D02*
X147372497Y-89061833D01*
X147372497Y-89061833D02*
X147300473Y-89028500D01*
X147300473Y-89028500D02*
X147266545Y-88995166D01*
X148078450Y-88595166D02*
X148210593Y-89061833D01*
X148210593Y-89061833D02*
X148459402Y-88595166D01*
D10*
X159175935Y-74327512D02*
X159633078Y-74327512D01*
X159404506Y-74594179D02*
X159404506Y-74060846D01*
X159918792Y-74594179D02*
X159918792Y-73894179D01*
X159918792Y-73894179D02*
X160061649Y-73894179D01*
X160061649Y-73894179D02*
X160147363Y-73927512D01*
X160147363Y-73927512D02*
X160204506Y-73994179D01*
X160204506Y-73994179D02*
X160233077Y-74060846D01*
X160233077Y-74060846D02*
X160261649Y-74194179D01*
X160261649Y-74194179D02*
X160261649Y-74294179D01*
X160261649Y-74294179D02*
X160233077Y-74427512D01*
X160233077Y-74427512D02*
X160204506Y-74494179D01*
X160204506Y-74494179D02*
X160147363Y-74560846D01*
X160147363Y-74560846D02*
X160061649Y-74594179D01*
X160061649Y-74594179D02*
X159918792Y-74594179D01*
X149698646Y-95431466D02*
X150155789Y-95431466D01*
X149927217Y-95698133D02*
X149927217Y-95164800D01*
X150412931Y-95064800D02*
X150441503Y-95031466D01*
X150441503Y-95031466D02*
X150498646Y-94998133D01*
X150498646Y-94998133D02*
X150641503Y-94998133D01*
X150641503Y-94998133D02*
X150698646Y-95031466D01*
X150698646Y-95031466D02*
X150727217Y-95064800D01*
X150727217Y-95064800D02*
X150755788Y-95131466D01*
X150755788Y-95131466D02*
X150755788Y-95198133D01*
X150755788Y-95198133D02*
X150727217Y-95298133D01*
X150727217Y-95298133D02*
X150384360Y-95698133D01*
X150384360Y-95698133D02*
X150755788Y-95698133D01*
X151270075Y-95231466D02*
X151270075Y-95698133D01*
X151127217Y-94964800D02*
X150984360Y-95464800D01*
X150984360Y-95464800D02*
X151355789Y-95464800D01*
X151527218Y-95231466D02*
X151670075Y-95698133D01*
X151670075Y-95698133D02*
X151812932Y-95231466D01*
X153936741Y-95685895D02*
X153841503Y-95647800D01*
X153841503Y-95647800D02*
X153793884Y-95571609D01*
X153793884Y-95571609D02*
X153793884Y-94885895D01*
X152439884Y-95685895D02*
X152439884Y-94885895D01*
X152868455Y-95685895D02*
X152868455Y-95266847D01*
X152868455Y-95266847D02*
X152820836Y-95190657D01*
X152820836Y-95190657D02*
X152725598Y-95152561D01*
X152725598Y-95152561D02*
X152582741Y-95152561D01*
X152582741Y-95152561D02*
X152487503Y-95190657D01*
X152487503Y-95190657D02*
X152439884Y-95228752D01*
D11*
X164820997Y-86583833D02*
X164440045Y-86583833D01*
X164440045Y-86583833D02*
X164360283Y-86917166D01*
X164360283Y-86917166D02*
X164402545Y-86883833D01*
X164402545Y-86883833D02*
X164482902Y-86850500D01*
X164482902Y-86850500D02*
X164673378Y-86850500D01*
X164673378Y-86850500D02*
X164745402Y-86883833D01*
X164745402Y-86883833D02*
X164779331Y-86917166D01*
X164779331Y-86917166D02*
X164809093Y-86983833D01*
X164809093Y-86983833D02*
X164788259Y-87150500D01*
X164788259Y-87150500D02*
X164741831Y-87217166D01*
X164741831Y-87217166D02*
X164699569Y-87250500D01*
X164699569Y-87250500D02*
X164619212Y-87283833D01*
X164619212Y-87283833D02*
X164428736Y-87283833D01*
X164428736Y-87283833D02*
X164356712Y-87250500D01*
X164356712Y-87250500D02*
X164322783Y-87217166D01*
X165096593Y-86817166D02*
X165228736Y-87283833D01*
X165228736Y-87283833D02*
X165477545Y-86817166D01*
D10*
X159028405Y-71878514D02*
X159485548Y-71878514D01*
X159256976Y-72145181D02*
X159256976Y-71611848D01*
X160056976Y-71445181D02*
X159771262Y-71445181D01*
X159771262Y-71445181D02*
X159742690Y-71778514D01*
X159742690Y-71778514D02*
X159771262Y-71745181D01*
X159771262Y-71745181D02*
X159828405Y-71711848D01*
X159828405Y-71711848D02*
X159971262Y-71711848D01*
X159971262Y-71711848D02*
X160028405Y-71745181D01*
X160028405Y-71745181D02*
X160056976Y-71778514D01*
X160056976Y-71778514D02*
X160085547Y-71845181D01*
X160085547Y-71845181D02*
X160085547Y-72011848D01*
X160085547Y-72011848D02*
X160056976Y-72078514D01*
X160056976Y-72078514D02*
X160028405Y-72111848D01*
X160028405Y-72111848D02*
X159971262Y-72145181D01*
X159971262Y-72145181D02*
X159828405Y-72145181D01*
X159828405Y-72145181D02*
X159771262Y-72111848D01*
X159771262Y-72111848D02*
X159742690Y-72078514D01*
X160285548Y-71678514D02*
X160428405Y-72145181D01*
X160428405Y-72145181D02*
X160571262Y-71678514D01*
X159885624Y-78199239D02*
X159885624Y-78765906D01*
X159885624Y-78765906D02*
X159857052Y-78832573D01*
X159857052Y-78832573D02*
X159828481Y-78865906D01*
X159828481Y-78865906D02*
X159771338Y-78899239D01*
X159771338Y-78899239D02*
X159685624Y-78899239D01*
X159685624Y-78899239D02*
X159628481Y-78865906D01*
X159885624Y-78632573D02*
X159828481Y-78665906D01*
X159828481Y-78665906D02*
X159714195Y-78665906D01*
X159714195Y-78665906D02*
X159657052Y-78632573D01*
X159657052Y-78632573D02*
X159628481Y-78599239D01*
X159628481Y-78599239D02*
X159599909Y-78532573D01*
X159599909Y-78532573D02*
X159599909Y-78332573D01*
X159599909Y-78332573D02*
X159628481Y-78265906D01*
X159628481Y-78265906D02*
X159657052Y-78232573D01*
X159657052Y-78232573D02*
X159714195Y-78199239D01*
X159714195Y-78199239D02*
X159828481Y-78199239D01*
X159828481Y-78199239D02*
X159885624Y-78232573D01*
X160171338Y-78199239D02*
X160171338Y-78665906D01*
X160171338Y-78265906D02*
X160199909Y-78232573D01*
X160199909Y-78232573D02*
X160257052Y-78199239D01*
X160257052Y-78199239D02*
X160342766Y-78199239D01*
X160342766Y-78199239D02*
X160399909Y-78232573D01*
X160399909Y-78232573D02*
X160428481Y-78299239D01*
X160428481Y-78299239D02*
X160428481Y-78665906D01*
X160971338Y-78665906D02*
X160971338Y-77965906D01*
X160971338Y-78632573D02*
X160914195Y-78665906D01*
X160914195Y-78665906D02*
X160799909Y-78665906D01*
X160799909Y-78665906D02*
X160742766Y-78632573D01*
X160742766Y-78632573D02*
X160714195Y-78599239D01*
X160714195Y-78599239D02*
X160685623Y-78532573D01*
X160685623Y-78532573D02*
X160685623Y-78332573D01*
X160685623Y-78332573D02*
X160714195Y-78265906D01*
X160714195Y-78265906D02*
X160742766Y-78232573D01*
X160742766Y-78232573D02*
X160799909Y-78199239D01*
X160799909Y-78199239D02*
X160914195Y-78199239D01*
X160914195Y-78199239D02*
X160971338Y-78232573D01*
X159165553Y-76856146D02*
X159622696Y-76856146D01*
X159908410Y-77122813D02*
X159908410Y-76422813D01*
X159908410Y-76422813D02*
X160051267Y-76422813D01*
X160051267Y-76422813D02*
X160136981Y-76456146D01*
X160136981Y-76456146D02*
X160194124Y-76522813D01*
X160194124Y-76522813D02*
X160222695Y-76589480D01*
X160222695Y-76589480D02*
X160251267Y-76722813D01*
X160251267Y-76722813D02*
X160251267Y-76822813D01*
X160251267Y-76822813D02*
X160222695Y-76956146D01*
X160222695Y-76956146D02*
X160194124Y-77022813D01*
X160194124Y-77022813D02*
X160136981Y-77089480D01*
X160136981Y-77089480D02*
X160051267Y-77122813D01*
X160051267Y-77122813D02*
X159908410Y-77122813D01*
D11*
X136295595Y-79227287D02*
X135762261Y-79227287D01*
X135914642Y-79227287D02*
X135838452Y-79189192D01*
X135838452Y-79189192D02*
X135800357Y-79151097D01*
X135800357Y-79151097D02*
X135762261Y-79074906D01*
X135762261Y-79074906D02*
X135762261Y-78998716D01*
X136257500Y-78427287D02*
X136295595Y-78503478D01*
X136295595Y-78503478D02*
X136295595Y-78655859D01*
X136295595Y-78655859D02*
X136257500Y-78732049D01*
X136257500Y-78732049D02*
X136181309Y-78770145D01*
X136181309Y-78770145D02*
X135876547Y-78770145D01*
X135876547Y-78770145D02*
X135800357Y-78732049D01*
X135800357Y-78732049D02*
X135762261Y-78655859D01*
X135762261Y-78655859D02*
X135762261Y-78503478D01*
X135762261Y-78503478D02*
X135800357Y-78427287D01*
X135800357Y-78427287D02*
X135876547Y-78389192D01*
X135876547Y-78389192D02*
X135952738Y-78389192D01*
X135952738Y-78389192D02*
X136028928Y-78770145D01*
X136257500Y-78084431D02*
X136295595Y-78008240D01*
X136295595Y-78008240D02*
X136295595Y-77855859D01*
X136295595Y-77855859D02*
X136257500Y-77779669D01*
X136257500Y-77779669D02*
X136181309Y-77741573D01*
X136181309Y-77741573D02*
X136143214Y-77741573D01*
X136143214Y-77741573D02*
X136067023Y-77779669D01*
X136067023Y-77779669D02*
X136028928Y-77855859D01*
X136028928Y-77855859D02*
X136028928Y-77970145D01*
X136028928Y-77970145D02*
X135990833Y-78046335D01*
X135990833Y-78046335D02*
X135914642Y-78084431D01*
X135914642Y-78084431D02*
X135876547Y-78084431D01*
X135876547Y-78084431D02*
X135800357Y-78046335D01*
X135800357Y-78046335D02*
X135762261Y-77970145D01*
X135762261Y-77970145D02*
X135762261Y-77855859D01*
X135762261Y-77855859D02*
X135800357Y-77779669D01*
X136257500Y-77093954D02*
X136295595Y-77170145D01*
X136295595Y-77170145D02*
X136295595Y-77322526D01*
X136295595Y-77322526D02*
X136257500Y-77398716D01*
X136257500Y-77398716D02*
X136181309Y-77436812D01*
X136181309Y-77436812D02*
X135876547Y-77436812D01*
X135876547Y-77436812D02*
X135800357Y-77398716D01*
X135800357Y-77398716D02*
X135762261Y-77322526D01*
X135762261Y-77322526D02*
X135762261Y-77170145D01*
X135762261Y-77170145D02*
X135800357Y-77093954D01*
X135800357Y-77093954D02*
X135876547Y-77055859D01*
X135876547Y-77055859D02*
X135952738Y-77055859D01*
X135952738Y-77055859D02*
X136028928Y-77436812D01*
X135762261Y-76827288D02*
X135762261Y-76522526D01*
X135495595Y-76713002D02*
X136181309Y-76713002D01*
X136181309Y-76713002D02*
X136257500Y-76674907D01*
X136257500Y-76674907D02*
X136295595Y-76598717D01*
X136295595Y-76598717D02*
X136295595Y-76522526D01*
D10*
X154955789Y-95013561D02*
X154955789Y-95661180D01*
X154955789Y-95661180D02*
X154927217Y-95737371D01*
X154927217Y-95737371D02*
X154898646Y-95775466D01*
X154898646Y-95775466D02*
X154841503Y-95813561D01*
X154841503Y-95813561D02*
X154755789Y-95813561D01*
X154755789Y-95813561D02*
X154698646Y-95775466D01*
X154955789Y-95508800D02*
X154898646Y-95546895D01*
X154898646Y-95546895D02*
X154784360Y-95546895D01*
X154784360Y-95546895D02*
X154727217Y-95508800D01*
X154727217Y-95508800D02*
X154698646Y-95470704D01*
X154698646Y-95470704D02*
X154670074Y-95394514D01*
X154670074Y-95394514D02*
X154670074Y-95165942D01*
X154670074Y-95165942D02*
X154698646Y-95089752D01*
X154698646Y-95089752D02*
X154727217Y-95051657D01*
X154727217Y-95051657D02*
X154784360Y-95013561D01*
X154784360Y-95013561D02*
X154898646Y-95013561D01*
X154898646Y-95013561D02*
X154955789Y-95051657D01*
X155241503Y-95013561D02*
X155241503Y-95546895D01*
X155241503Y-95089752D02*
X155270074Y-95051657D01*
X155270074Y-95051657D02*
X155327217Y-95013561D01*
X155327217Y-95013561D02*
X155412931Y-95013561D01*
X155412931Y-95013561D02*
X155470074Y-95051657D01*
X155470074Y-95051657D02*
X155498646Y-95127847D01*
X155498646Y-95127847D02*
X155498646Y-95546895D01*
X156041503Y-95546895D02*
X156041503Y-94746895D01*
X156041503Y-95508800D02*
X155984360Y-95546895D01*
X155984360Y-95546895D02*
X155870074Y-95546895D01*
X155870074Y-95546895D02*
X155812931Y-95508800D01*
X155812931Y-95508800D02*
X155784360Y-95470704D01*
X155784360Y-95470704D02*
X155755788Y-95394514D01*
X155755788Y-95394514D02*
X155755788Y-95165942D01*
X155755788Y-95165942D02*
X155784360Y-95089752D01*
X155784360Y-95089752D02*
X155812931Y-95051657D01*
X155812931Y-95051657D02*
X155870074Y-95013561D01*
X155870074Y-95013561D02*
X155984360Y-95013561D01*
X155984360Y-95013561D02*
X156041503Y-95051657D01*
X163657143Y-89618633D02*
X163657143Y-88918633D01*
X163657143Y-88918633D02*
X163800000Y-88918633D01*
X163800000Y-88918633D02*
X163885714Y-88951966D01*
X163885714Y-88951966D02*
X163942857Y-89018633D01*
X163942857Y-89018633D02*
X163971428Y-89085300D01*
X163971428Y-89085300D02*
X164000000Y-89218633D01*
X164000000Y-89218633D02*
X164000000Y-89318633D01*
X164000000Y-89318633D02*
X163971428Y-89451966D01*
X163971428Y-89451966D02*
X163942857Y-89518633D01*
X163942857Y-89518633D02*
X163885714Y-89585300D01*
X163885714Y-89585300D02*
X163800000Y-89618633D01*
X163800000Y-89618633D02*
X163657143Y-89618633D01*
X164228571Y-88985300D02*
X164257143Y-88951966D01*
X164257143Y-88951966D02*
X164314286Y-88918633D01*
X164314286Y-88918633D02*
X164457143Y-88918633D01*
X164457143Y-88918633D02*
X164514286Y-88951966D01*
X164514286Y-88951966D02*
X164542857Y-88985300D01*
X164542857Y-88985300D02*
X164571428Y-89051966D01*
X164571428Y-89051966D02*
X164571428Y-89118633D01*
X164571428Y-89118633D02*
X164542857Y-89218633D01*
X164542857Y-89218633D02*
X164200000Y-89618633D01*
X164200000Y-89618633D02*
X164571428Y-89618633D01*
X138557143Y-99718633D02*
X138557143Y-99018633D01*
X138557143Y-99018633D02*
X138700000Y-99018633D01*
X138700000Y-99018633D02*
X138785714Y-99051966D01*
X138785714Y-99051966D02*
X138842857Y-99118633D01*
X138842857Y-99118633D02*
X138871428Y-99185300D01*
X138871428Y-99185300D02*
X138900000Y-99318633D01*
X138900000Y-99318633D02*
X138900000Y-99418633D01*
X138900000Y-99418633D02*
X138871428Y-99551966D01*
X138871428Y-99551966D02*
X138842857Y-99618633D01*
X138842857Y-99618633D02*
X138785714Y-99685300D01*
X138785714Y-99685300D02*
X138700000Y-99718633D01*
X138700000Y-99718633D02*
X138557143Y-99718633D01*
X139414286Y-99018633D02*
X139300000Y-99018633D01*
X139300000Y-99018633D02*
X139242857Y-99051966D01*
X139242857Y-99051966D02*
X139214286Y-99085300D01*
X139214286Y-99085300D02*
X139157143Y-99185300D01*
X139157143Y-99185300D02*
X139128571Y-99318633D01*
X139128571Y-99318633D02*
X139128571Y-99585300D01*
X139128571Y-99585300D02*
X139157143Y-99651966D01*
X139157143Y-99651966D02*
X139185714Y-99685300D01*
X139185714Y-99685300D02*
X139242857Y-99718633D01*
X139242857Y-99718633D02*
X139357143Y-99718633D01*
X139357143Y-99718633D02*
X139414286Y-99685300D01*
X139414286Y-99685300D02*
X139442857Y-99651966D01*
X139442857Y-99651966D02*
X139471428Y-99585300D01*
X139471428Y-99585300D02*
X139471428Y-99418633D01*
X139471428Y-99418633D02*
X139442857Y-99351966D01*
X139442857Y-99351966D02*
X139414286Y-99318633D01*
X139414286Y-99318633D02*
X139357143Y-99285300D01*
X139357143Y-99285300D02*
X139242857Y-99285300D01*
X139242857Y-99285300D02*
X139185714Y-99318633D01*
X139185714Y-99318633D02*
X139157143Y-99351966D01*
X139157143Y-99351966D02*
X139128571Y-99418633D01*
X141751966Y-72099999D02*
X141785300Y-72128571D01*
X141785300Y-72128571D02*
X141818633Y-72214285D01*
X141818633Y-72214285D02*
X141818633Y-72271428D01*
X141818633Y-72271428D02*
X141785300Y-72357142D01*
X141785300Y-72357142D02*
X141718633Y-72414285D01*
X141718633Y-72414285D02*
X141651966Y-72442856D01*
X141651966Y-72442856D02*
X141518633Y-72471428D01*
X141518633Y-72471428D02*
X141418633Y-72471428D01*
X141418633Y-72471428D02*
X141285300Y-72442856D01*
X141285300Y-72442856D02*
X141218633Y-72414285D01*
X141218633Y-72414285D02*
X141151966Y-72357142D01*
X141151966Y-72357142D02*
X141118633Y-72271428D01*
X141118633Y-72271428D02*
X141118633Y-72214285D01*
X141118633Y-72214285D02*
X141151966Y-72128571D01*
X141151966Y-72128571D02*
X141185300Y-72099999D01*
X141118633Y-71899999D02*
X141118633Y-71528571D01*
X141118633Y-71528571D02*
X141385300Y-71728571D01*
X141385300Y-71728571D02*
X141385300Y-71642856D01*
X141385300Y-71642856D02*
X141418633Y-71585714D01*
X141418633Y-71585714D02*
X141451966Y-71557142D01*
X141451966Y-71557142D02*
X141518633Y-71528571D01*
X141518633Y-71528571D02*
X141685300Y-71528571D01*
X141685300Y-71528571D02*
X141751966Y-71557142D01*
X141751966Y-71557142D02*
X141785300Y-71585714D01*
X141785300Y-71585714D02*
X141818633Y-71642856D01*
X141818633Y-71642856D02*
X141818633Y-71814285D01*
X141818633Y-71814285D02*
X141785300Y-71871428D01*
X141785300Y-71871428D02*
X141751966Y-71899999D01*
X164492000Y-82801966D02*
X164463428Y-82835300D01*
X164463428Y-82835300D02*
X164377714Y-82868633D01*
X164377714Y-82868633D02*
X164320571Y-82868633D01*
X164320571Y-82868633D02*
X164234857Y-82835300D01*
X164234857Y-82835300D02*
X164177714Y-82768633D01*
X164177714Y-82768633D02*
X164149143Y-82701966D01*
X164149143Y-82701966D02*
X164120571Y-82568633D01*
X164120571Y-82568633D02*
X164120571Y-82468633D01*
X164120571Y-82468633D02*
X164149143Y-82335300D01*
X164149143Y-82335300D02*
X164177714Y-82268633D01*
X164177714Y-82268633D02*
X164234857Y-82201966D01*
X164234857Y-82201966D02*
X164320571Y-82168633D01*
X164320571Y-82168633D02*
X164377714Y-82168633D01*
X164377714Y-82168633D02*
X164463428Y-82201966D01*
X164463428Y-82201966D02*
X164492000Y-82235300D01*
X164692000Y-82168633D02*
X165092000Y-82168633D01*
X165092000Y-82168633D02*
X164834857Y-82868633D01*
X132618633Y-89257142D02*
X133185300Y-89257142D01*
X133185300Y-89257142D02*
X133251966Y-89228571D01*
X133251966Y-89228571D02*
X133285300Y-89200000D01*
X133285300Y-89200000D02*
X133318633Y-89142857D01*
X133318633Y-89142857D02*
X133318633Y-89028571D01*
X133318633Y-89028571D02*
X133285300Y-88971428D01*
X133285300Y-88971428D02*
X133251966Y-88942857D01*
X133251966Y-88942857D02*
X133185300Y-88914285D01*
X133185300Y-88914285D02*
X132618633Y-88914285D01*
X133318633Y-88314286D02*
X133318633Y-88657143D01*
X133318633Y-88485714D02*
X132618633Y-88485714D01*
X132618633Y-88485714D02*
X132718633Y-88542857D01*
X132718633Y-88542857D02*
X132785300Y-88600000D01*
X132785300Y-88600000D02*
X132818633Y-88657143D01*
X153194633Y-93054166D02*
X152861300Y-93287499D01*
X153194633Y-93454166D02*
X152494633Y-93454166D01*
X152494633Y-93454166D02*
X152494633Y-93187499D01*
X152494633Y-93187499D02*
X152527966Y-93120833D01*
X152527966Y-93120833D02*
X152561300Y-93087499D01*
X152561300Y-93087499D02*
X152627966Y-93054166D01*
X152627966Y-93054166D02*
X152727966Y-93054166D01*
X152727966Y-93054166D02*
X152794633Y-93087499D01*
X152794633Y-93087499D02*
X152827966Y-93120833D01*
X152827966Y-93120833D02*
X152861300Y-93187499D01*
X152861300Y-93187499D02*
X152861300Y-93454166D01*
X152727966Y-92454166D02*
X153194633Y-92454166D01*
X152461300Y-92620833D02*
X152961300Y-92787499D01*
X152961300Y-92787499D02*
X152961300Y-92354166D01*
X147014285Y-105508633D02*
X146814285Y-105175300D01*
X146671428Y-105508633D02*
X146671428Y-104808633D01*
X146671428Y-104808633D02*
X146899999Y-104808633D01*
X146899999Y-104808633D02*
X146957142Y-104841966D01*
X146957142Y-104841966D02*
X146985713Y-104875300D01*
X146985713Y-104875300D02*
X147014285Y-104941966D01*
X147014285Y-104941966D02*
X147014285Y-105041966D01*
X147014285Y-105041966D02*
X146985713Y-105108633D01*
X146985713Y-105108633D02*
X146957142Y-105141966D01*
X146957142Y-105141966D02*
X146899999Y-105175300D01*
X146899999Y-105175300D02*
X146671428Y-105175300D01*
X147585713Y-105508633D02*
X147242856Y-105508633D01*
X147414285Y-105508633D02*
X147414285Y-104808633D01*
X147414285Y-104808633D02*
X147357142Y-104908633D01*
X147357142Y-104908633D02*
X147299999Y-104975300D01*
X147299999Y-104975300D02*
X147242856Y-105008633D01*
X148128571Y-104808633D02*
X147842857Y-104808633D01*
X147842857Y-104808633D02*
X147814285Y-105141966D01*
X147814285Y-105141966D02*
X147842857Y-105108633D01*
X147842857Y-105108633D02*
X147900000Y-105075300D01*
X147900000Y-105075300D02*
X148042857Y-105075300D01*
X148042857Y-105075300D02*
X148100000Y-105108633D01*
X148100000Y-105108633D02*
X148128571Y-105141966D01*
X148128571Y-105141966D02*
X148157142Y-105208633D01*
X148157142Y-105208633D02*
X148157142Y-105375300D01*
X148157142Y-105375300D02*
X148128571Y-105441966D01*
X148128571Y-105441966D02*
X148100000Y-105475300D01*
X148100000Y-105475300D02*
X148042857Y-105508633D01*
X148042857Y-105508633D02*
X147900000Y-105508633D01*
X147900000Y-105508633D02*
X147842857Y-105475300D01*
X147842857Y-105475300D02*
X147814285Y-105441966D01*
X163476000Y-80836633D02*
X163190286Y-80836633D01*
X163190286Y-80836633D02*
X163190286Y-80136633D01*
X163990285Y-80836633D02*
X163647428Y-80836633D01*
X163818857Y-80836633D02*
X163818857Y-80136633D01*
X163818857Y-80136633D02*
X163761714Y-80236633D01*
X163761714Y-80236633D02*
X163704571Y-80303300D01*
X163704571Y-80303300D02*
X163647428Y-80336633D01*
X146702895Y-90217999D02*
X146321942Y-90417999D01*
X146702895Y-90560856D02*
X145902895Y-90560856D01*
X145902895Y-90560856D02*
X145902895Y-90332285D01*
X145902895Y-90332285D02*
X145940990Y-90275142D01*
X145940990Y-90275142D02*
X145979085Y-90246571D01*
X145979085Y-90246571D02*
X146055276Y-90217999D01*
X146055276Y-90217999D02*
X146169561Y-90217999D01*
X146169561Y-90217999D02*
X146245752Y-90246571D01*
X146245752Y-90246571D02*
X146283847Y-90275142D01*
X146283847Y-90275142D02*
X146321942Y-90332285D01*
X146321942Y-90332285D02*
X146321942Y-90560856D01*
X145902895Y-89675142D02*
X145902895Y-89960856D01*
X145902895Y-89960856D02*
X146283847Y-89989428D01*
X146283847Y-89989428D02*
X146245752Y-89960856D01*
X146245752Y-89960856D02*
X146207657Y-89903714D01*
X146207657Y-89903714D02*
X146207657Y-89760856D01*
X146207657Y-89760856D02*
X146245752Y-89703714D01*
X146245752Y-89703714D02*
X146283847Y-89675142D01*
X146283847Y-89675142D02*
X146360038Y-89646571D01*
X146360038Y-89646571D02*
X146550514Y-89646571D01*
X146550514Y-89646571D02*
X146626704Y-89675142D01*
X146626704Y-89675142D02*
X146664800Y-89703714D01*
X146664800Y-89703714D02*
X146702895Y-89760856D01*
X146702895Y-89760856D02*
X146702895Y-89903714D01*
X146702895Y-89903714D02*
X146664800Y-89960856D01*
X146664800Y-89960856D02*
X146626704Y-89989428D01*
X142905633Y-84683999D02*
X142572300Y-84883999D01*
X142905633Y-85026856D02*
X142205633Y-85026856D01*
X142205633Y-85026856D02*
X142205633Y-84798285D01*
X142205633Y-84798285D02*
X142238966Y-84741142D01*
X142238966Y-84741142D02*
X142272300Y-84712571D01*
X142272300Y-84712571D02*
X142338966Y-84683999D01*
X142338966Y-84683999D02*
X142438966Y-84683999D01*
X142438966Y-84683999D02*
X142505633Y-84712571D01*
X142505633Y-84712571D02*
X142538966Y-84741142D01*
X142538966Y-84741142D02*
X142572300Y-84798285D01*
X142572300Y-84798285D02*
X142572300Y-85026856D01*
X142505633Y-84341142D02*
X142472300Y-84398285D01*
X142472300Y-84398285D02*
X142438966Y-84426856D01*
X142438966Y-84426856D02*
X142372300Y-84455428D01*
X142372300Y-84455428D02*
X142338966Y-84455428D01*
X142338966Y-84455428D02*
X142272300Y-84426856D01*
X142272300Y-84426856D02*
X142238966Y-84398285D01*
X142238966Y-84398285D02*
X142205633Y-84341142D01*
X142205633Y-84341142D02*
X142205633Y-84226856D01*
X142205633Y-84226856D02*
X142238966Y-84169714D01*
X142238966Y-84169714D02*
X142272300Y-84141142D01*
X142272300Y-84141142D02*
X142338966Y-84112571D01*
X142338966Y-84112571D02*
X142372300Y-84112571D01*
X142372300Y-84112571D02*
X142438966Y-84141142D01*
X142438966Y-84141142D02*
X142472300Y-84169714D01*
X142472300Y-84169714D02*
X142505633Y-84226856D01*
X142505633Y-84226856D02*
X142505633Y-84341142D01*
X142505633Y-84341142D02*
X142538966Y-84398285D01*
X142538966Y-84398285D02*
X142572300Y-84426856D01*
X142572300Y-84426856D02*
X142638966Y-84455428D01*
X142638966Y-84455428D02*
X142772300Y-84455428D01*
X142772300Y-84455428D02*
X142838966Y-84426856D01*
X142838966Y-84426856D02*
X142872300Y-84398285D01*
X142872300Y-84398285D02*
X142905633Y-84341142D01*
X142905633Y-84341142D02*
X142905633Y-84226856D01*
X142905633Y-84226856D02*
X142872300Y-84169714D01*
X142872300Y-84169714D02*
X142838966Y-84141142D01*
X142838966Y-84141142D02*
X142772300Y-84112571D01*
X142772300Y-84112571D02*
X142638966Y-84112571D01*
X142638966Y-84112571D02*
X142572300Y-84141142D01*
X142572300Y-84141142D02*
X142538966Y-84169714D01*
X142538966Y-84169714D02*
X142505633Y-84226856D01*
X157364895Y-103599999D02*
X156983942Y-103799999D01*
X157364895Y-103942856D02*
X156564895Y-103942856D01*
X156564895Y-103942856D02*
X156564895Y-103714285D01*
X156564895Y-103714285D02*
X156602990Y-103657142D01*
X156602990Y-103657142D02*
X156641085Y-103628571D01*
X156641085Y-103628571D02*
X156717276Y-103599999D01*
X156717276Y-103599999D02*
X156831561Y-103599999D01*
X156831561Y-103599999D02*
X156907752Y-103628571D01*
X156907752Y-103628571D02*
X156945847Y-103657142D01*
X156945847Y-103657142D02*
X156983942Y-103714285D01*
X156983942Y-103714285D02*
X156983942Y-103942856D01*
X157364895Y-103028571D02*
X157364895Y-103371428D01*
X157364895Y-103199999D02*
X156564895Y-103199999D01*
X156564895Y-103199999D02*
X156679180Y-103257142D01*
X156679180Y-103257142D02*
X156755371Y-103314285D01*
X156755371Y-103314285D02*
X156793466Y-103371428D01*
D11*
X151847714Y-102598595D02*
X151847714Y-101798595D01*
X152228666Y-102065261D02*
X152228666Y-102598595D01*
X152228666Y-102141452D02*
X152266761Y-102103357D01*
X152266761Y-102103357D02*
X152342951Y-102065261D01*
X152342951Y-102065261D02*
X152457237Y-102065261D01*
X152457237Y-102065261D02*
X152533428Y-102103357D01*
X152533428Y-102103357D02*
X152571523Y-102179547D01*
X152571523Y-102179547D02*
X152571523Y-102598595D01*
X152952476Y-102065261D02*
X152952476Y-102865261D01*
X152952476Y-102103357D02*
X153028666Y-102065261D01*
X153028666Y-102065261D02*
X153181047Y-102065261D01*
X153181047Y-102065261D02*
X153257238Y-102103357D01*
X153257238Y-102103357D02*
X153295333Y-102141452D01*
X153295333Y-102141452D02*
X153333428Y-102217642D01*
X153333428Y-102217642D02*
X153333428Y-102446214D01*
X153333428Y-102446214D02*
X153295333Y-102522404D01*
X153295333Y-102522404D02*
X153257238Y-102560500D01*
X153257238Y-102560500D02*
X153181047Y-102598595D01*
X153181047Y-102598595D02*
X153028666Y-102598595D01*
X153028666Y-102598595D02*
X152952476Y-102560500D01*
X154019143Y-102065261D02*
X154019143Y-102598595D01*
X153676286Y-102065261D02*
X153676286Y-102484309D01*
X153676286Y-102484309D02*
X153714381Y-102560500D01*
X153714381Y-102560500D02*
X153790571Y-102598595D01*
X153790571Y-102598595D02*
X153904857Y-102598595D01*
X153904857Y-102598595D02*
X153981048Y-102560500D01*
X153981048Y-102560500D02*
X154019143Y-102522404D01*
X154285810Y-102065261D02*
X154590572Y-102065261D01*
X154400096Y-101798595D02*
X154400096Y-102484309D01*
X154400096Y-102484309D02*
X154438191Y-102560500D01*
X154438191Y-102560500D02*
X154514381Y-102598595D01*
X154514381Y-102598595D02*
X154590572Y-102598595D01*
D10*
X141219285Y-76451966D02*
X141190713Y-76485300D01*
X141190713Y-76485300D02*
X141104999Y-76518633D01*
X141104999Y-76518633D02*
X141047856Y-76518633D01*
X141047856Y-76518633D02*
X140962142Y-76485300D01*
X140962142Y-76485300D02*
X140904999Y-76418633D01*
X140904999Y-76418633D02*
X140876428Y-76351966D01*
X140876428Y-76351966D02*
X140847856Y-76218633D01*
X140847856Y-76218633D02*
X140847856Y-76118633D01*
X140847856Y-76118633D02*
X140876428Y-75985300D01*
X140876428Y-75985300D02*
X140904999Y-75918633D01*
X140904999Y-75918633D02*
X140962142Y-75851966D01*
X140962142Y-75851966D02*
X141047856Y-75818633D01*
X141047856Y-75818633D02*
X141104999Y-75818633D01*
X141104999Y-75818633D02*
X141190713Y-75851966D01*
X141190713Y-75851966D02*
X141219285Y-75885300D01*
X141790713Y-76518633D02*
X141447856Y-76518633D01*
X141619285Y-76518633D02*
X141619285Y-75818633D01*
X141619285Y-75818633D02*
X141562142Y-75918633D01*
X141562142Y-75918633D02*
X141504999Y-75985300D01*
X141504999Y-75985300D02*
X141447856Y-76018633D01*
X142162142Y-75818633D02*
X142219285Y-75818633D01*
X142219285Y-75818633D02*
X142276428Y-75851966D01*
X142276428Y-75851966D02*
X142305000Y-75885300D01*
X142305000Y-75885300D02*
X142333571Y-75951966D01*
X142333571Y-75951966D02*
X142362142Y-76085300D01*
X142362142Y-76085300D02*
X142362142Y-76251966D01*
X142362142Y-76251966D02*
X142333571Y-76385300D01*
X142333571Y-76385300D02*
X142305000Y-76451966D01*
X142305000Y-76451966D02*
X142276428Y-76485300D01*
X142276428Y-76485300D02*
X142219285Y-76518633D01*
X142219285Y-76518633D02*
X142162142Y-76518633D01*
X142162142Y-76518633D02*
X142105000Y-76485300D01*
X142105000Y-76485300D02*
X142076428Y-76451966D01*
X142076428Y-76451966D02*
X142047857Y-76385300D01*
X142047857Y-76385300D02*
X142019285Y-76251966D01*
X142019285Y-76251966D02*
X142019285Y-76085300D01*
X142019285Y-76085300D02*
X142047857Y-75951966D01*
X142047857Y-75951966D02*
X142076428Y-75885300D01*
X142076428Y-75885300D02*
X142105000Y-75851966D01*
X142105000Y-75851966D02*
X142162142Y-75818633D01*
X152527143Y-105538633D02*
X152527143Y-104838633D01*
X152527143Y-104838633D02*
X152670000Y-104838633D01*
X152670000Y-104838633D02*
X152755714Y-104871966D01*
X152755714Y-104871966D02*
X152812857Y-104938633D01*
X152812857Y-104938633D02*
X152841428Y-105005300D01*
X152841428Y-105005300D02*
X152870000Y-105138633D01*
X152870000Y-105138633D02*
X152870000Y-105238633D01*
X152870000Y-105238633D02*
X152841428Y-105371966D01*
X152841428Y-105371966D02*
X152812857Y-105438633D01*
X152812857Y-105438633D02*
X152755714Y-105505300D01*
X152755714Y-105505300D02*
X152670000Y-105538633D01*
X152670000Y-105538633D02*
X152527143Y-105538633D01*
X153441428Y-105538633D02*
X153098571Y-105538633D01*
X153270000Y-105538633D02*
X153270000Y-104838633D01*
X153270000Y-104838633D02*
X153212857Y-104938633D01*
X153212857Y-104938633D02*
X153155714Y-105005300D01*
X153155714Y-105005300D02*
X153098571Y-105038633D01*
X158015000Y-96263966D02*
X157986428Y-96297300D01*
X157986428Y-96297300D02*
X157900714Y-96330633D01*
X157900714Y-96330633D02*
X157843571Y-96330633D01*
X157843571Y-96330633D02*
X157757857Y-96297300D01*
X157757857Y-96297300D02*
X157700714Y-96230633D01*
X157700714Y-96230633D02*
X157672143Y-96163966D01*
X157672143Y-96163966D02*
X157643571Y-96030633D01*
X157643571Y-96030633D02*
X157643571Y-95930633D01*
X157643571Y-95930633D02*
X157672143Y-95797300D01*
X157672143Y-95797300D02*
X157700714Y-95730633D01*
X157700714Y-95730633D02*
X157757857Y-95663966D01*
X157757857Y-95663966D02*
X157843571Y-95630633D01*
X157843571Y-95630633D02*
X157900714Y-95630633D01*
X157900714Y-95630633D02*
X157986428Y-95663966D01*
X157986428Y-95663966D02*
X158015000Y-95697300D01*
X158243571Y-95697300D02*
X158272143Y-95663966D01*
X158272143Y-95663966D02*
X158329286Y-95630633D01*
X158329286Y-95630633D02*
X158472143Y-95630633D01*
X158472143Y-95630633D02*
X158529286Y-95663966D01*
X158529286Y-95663966D02*
X158557857Y-95697300D01*
X158557857Y-95697300D02*
X158586428Y-95763966D01*
X158586428Y-95763966D02*
X158586428Y-95830633D01*
X158586428Y-95830633D02*
X158557857Y-95930633D01*
X158557857Y-95930633D02*
X158215000Y-96330633D01*
X158215000Y-96330633D02*
X158586428Y-96330633D01*
X137192857Y-81135300D02*
X137135714Y-81101966D01*
X137135714Y-81101966D02*
X137078571Y-81035300D01*
X137078571Y-81035300D02*
X136992857Y-80935300D01*
X136992857Y-80935300D02*
X136935714Y-80901966D01*
X136935714Y-80901966D02*
X136878571Y-80901966D01*
X136907142Y-81068633D02*
X136850000Y-81035300D01*
X136850000Y-81035300D02*
X136792857Y-80968633D01*
X136792857Y-80968633D02*
X136764285Y-80835300D01*
X136764285Y-80835300D02*
X136764285Y-80601966D01*
X136764285Y-80601966D02*
X136792857Y-80468633D01*
X136792857Y-80468633D02*
X136850000Y-80401966D01*
X136850000Y-80401966D02*
X136907142Y-80368633D01*
X136907142Y-80368633D02*
X137021428Y-80368633D01*
X137021428Y-80368633D02*
X137078571Y-80401966D01*
X137078571Y-80401966D02*
X137135714Y-80468633D01*
X137135714Y-80468633D02*
X137164285Y-80601966D01*
X137164285Y-80601966D02*
X137164285Y-80835300D01*
X137164285Y-80835300D02*
X137135714Y-80968633D01*
X137135714Y-80968633D02*
X137078571Y-81035300D01*
X137078571Y-81035300D02*
X137021428Y-81068633D01*
X137021428Y-81068633D02*
X136907142Y-81068633D01*
X137735713Y-81068633D02*
X137392856Y-81068633D01*
X137564285Y-81068633D02*
X137564285Y-80368633D01*
X137564285Y-80368633D02*
X137507142Y-80468633D01*
X137507142Y-80468633D02*
X137449999Y-80535300D01*
X137449999Y-80535300D02*
X137392856Y-80568633D01*
X150178633Y-83443714D02*
X149845300Y-83643714D01*
X150178633Y-83786571D02*
X149478633Y-83786571D01*
X149478633Y-83786571D02*
X149478633Y-83558000D01*
X149478633Y-83558000D02*
X149511966Y-83500857D01*
X149511966Y-83500857D02*
X149545300Y-83472286D01*
X149545300Y-83472286D02*
X149611966Y-83443714D01*
X149611966Y-83443714D02*
X149711966Y-83443714D01*
X149711966Y-83443714D02*
X149778633Y-83472286D01*
X149778633Y-83472286D02*
X149811966Y-83500857D01*
X149811966Y-83500857D02*
X149845300Y-83558000D01*
X149845300Y-83558000D02*
X149845300Y-83786571D01*
X150178633Y-82872286D02*
X150178633Y-83215143D01*
X150178633Y-83043714D02*
X149478633Y-83043714D01*
X149478633Y-83043714D02*
X149578633Y-83100857D01*
X149578633Y-83100857D02*
X149645300Y-83158000D01*
X149645300Y-83158000D02*
X149678633Y-83215143D01*
X150178633Y-82300857D02*
X150178633Y-82643714D01*
X150178633Y-82472285D02*
X149478633Y-82472285D01*
X149478633Y-82472285D02*
X149578633Y-82529428D01*
X149578633Y-82529428D02*
X149645300Y-82586571D01*
X149645300Y-82586571D02*
X149678633Y-82643714D01*
X141434895Y-80424999D02*
X141053942Y-80624999D01*
X141434895Y-80767856D02*
X140634895Y-80767856D01*
X140634895Y-80767856D02*
X140634895Y-80539285D01*
X140634895Y-80539285D02*
X140672990Y-80482142D01*
X140672990Y-80482142D02*
X140711085Y-80453571D01*
X140711085Y-80453571D02*
X140787276Y-80424999D01*
X140787276Y-80424999D02*
X140901561Y-80424999D01*
X140901561Y-80424999D02*
X140977752Y-80453571D01*
X140977752Y-80453571D02*
X141015847Y-80482142D01*
X141015847Y-80482142D02*
X141053942Y-80539285D01*
X141053942Y-80539285D02*
X141053942Y-80767856D01*
X140634895Y-79910714D02*
X140634895Y-80024999D01*
X140634895Y-80024999D02*
X140672990Y-80082142D01*
X140672990Y-80082142D02*
X140711085Y-80110714D01*
X140711085Y-80110714D02*
X140825371Y-80167856D01*
X140825371Y-80167856D02*
X140977752Y-80196428D01*
X140977752Y-80196428D02*
X141282514Y-80196428D01*
X141282514Y-80196428D02*
X141358704Y-80167856D01*
X141358704Y-80167856D02*
X141396800Y-80139285D01*
X141396800Y-80139285D02*
X141434895Y-80082142D01*
X141434895Y-80082142D02*
X141434895Y-79967856D01*
X141434895Y-79967856D02*
X141396800Y-79910714D01*
X141396800Y-79910714D02*
X141358704Y-79882142D01*
X141358704Y-79882142D02*
X141282514Y-79853571D01*
X141282514Y-79853571D02*
X141092038Y-79853571D01*
X141092038Y-79853571D02*
X141015847Y-79882142D01*
X141015847Y-79882142D02*
X140977752Y-79910714D01*
X140977752Y-79910714D02*
X140939657Y-79967856D01*
X140939657Y-79967856D02*
X140939657Y-80082142D01*
X140939657Y-80082142D02*
X140977752Y-80139285D01*
X140977752Y-80139285D02*
X141015847Y-80167856D01*
X141015847Y-80167856D02*
X141092038Y-80196428D01*
X144318633Y-88849999D02*
X143985300Y-89049999D01*
X144318633Y-89192856D02*
X143618633Y-89192856D01*
X143618633Y-89192856D02*
X143618633Y-88964285D01*
X143618633Y-88964285D02*
X143651966Y-88907142D01*
X143651966Y-88907142D02*
X143685300Y-88878571D01*
X143685300Y-88878571D02*
X143751966Y-88849999D01*
X143751966Y-88849999D02*
X143851966Y-88849999D01*
X143851966Y-88849999D02*
X143918633Y-88878571D01*
X143918633Y-88878571D02*
X143951966Y-88907142D01*
X143951966Y-88907142D02*
X143985300Y-88964285D01*
X143985300Y-88964285D02*
X143985300Y-89192856D01*
X143685300Y-88621428D02*
X143651966Y-88592856D01*
X143651966Y-88592856D02*
X143618633Y-88535714D01*
X143618633Y-88535714D02*
X143618633Y-88392856D01*
X143618633Y-88392856D02*
X143651966Y-88335714D01*
X143651966Y-88335714D02*
X143685300Y-88307142D01*
X143685300Y-88307142D02*
X143751966Y-88278571D01*
X143751966Y-88278571D02*
X143818633Y-88278571D01*
X143818633Y-88278571D02*
X143918633Y-88307142D01*
X143918633Y-88307142D02*
X144318633Y-88649999D01*
X144318633Y-88649999D02*
X144318633Y-88278571D01*
X144814285Y-105518633D02*
X144614285Y-105185300D01*
X144471428Y-105518633D02*
X144471428Y-104818633D01*
X144471428Y-104818633D02*
X144699999Y-104818633D01*
X144699999Y-104818633D02*
X144757142Y-104851966D01*
X144757142Y-104851966D02*
X144785713Y-104885300D01*
X144785713Y-104885300D02*
X144814285Y-104951966D01*
X144814285Y-104951966D02*
X144814285Y-105051966D01*
X144814285Y-105051966D02*
X144785713Y-105118633D01*
X144785713Y-105118633D02*
X144757142Y-105151966D01*
X144757142Y-105151966D02*
X144699999Y-105185300D01*
X144699999Y-105185300D02*
X144471428Y-105185300D01*
X145385713Y-105518633D02*
X145042856Y-105518633D01*
X145214285Y-105518633D02*
X145214285Y-104818633D01*
X145214285Y-104818633D02*
X145157142Y-104918633D01*
X145157142Y-104918633D02*
X145099999Y-104985300D01*
X145099999Y-104985300D02*
X145042856Y-105018633D01*
X145900000Y-105051966D02*
X145900000Y-105518633D01*
X145757142Y-104785300D02*
X145614285Y-105285300D01*
X145614285Y-105285300D02*
X145985714Y-105285300D01*
X156871703Y-73337077D02*
X157438370Y-73337077D01*
X157438370Y-73337077D02*
X157505036Y-73298982D01*
X157505036Y-73298982D02*
X157538370Y-73260887D01*
X157538370Y-73260887D02*
X157571703Y-73184696D01*
X157571703Y-73184696D02*
X157571703Y-73032315D01*
X157571703Y-73032315D02*
X157538370Y-72956125D01*
X157538370Y-72956125D02*
X157505036Y-72918030D01*
X157505036Y-72918030D02*
X157438370Y-72879934D01*
X157438370Y-72879934D02*
X156871703Y-72879934D01*
X157538370Y-72537078D02*
X157571703Y-72422792D01*
X157571703Y-72422792D02*
X157571703Y-72232316D01*
X157571703Y-72232316D02*
X157538370Y-72156125D01*
X157538370Y-72156125D02*
X157505036Y-72118030D01*
X157505036Y-72118030D02*
X157438370Y-72079935D01*
X157438370Y-72079935D02*
X157371703Y-72079935D01*
X157371703Y-72079935D02*
X157305036Y-72118030D01*
X157305036Y-72118030D02*
X157271703Y-72156125D01*
X157271703Y-72156125D02*
X157238370Y-72232316D01*
X157238370Y-72232316D02*
X157205036Y-72384697D01*
X157205036Y-72384697D02*
X157171703Y-72460887D01*
X157171703Y-72460887D02*
X157138370Y-72498982D01*
X157138370Y-72498982D02*
X157071703Y-72537078D01*
X157071703Y-72537078D02*
X157005036Y-72537078D01*
X157005036Y-72537078D02*
X156938370Y-72498982D01*
X156938370Y-72498982D02*
X156905036Y-72460887D01*
X156905036Y-72460887D02*
X156871703Y-72384697D01*
X156871703Y-72384697D02*
X156871703Y-72194220D01*
X156871703Y-72194220D02*
X156905036Y-72079935D01*
X157205036Y-71470411D02*
X157238370Y-71356125D01*
X157238370Y-71356125D02*
X157271703Y-71318030D01*
X157271703Y-71318030D02*
X157338370Y-71279934D01*
X157338370Y-71279934D02*
X157438370Y-71279934D01*
X157438370Y-71279934D02*
X157505036Y-71318030D01*
X157505036Y-71318030D02*
X157538370Y-71356125D01*
X157538370Y-71356125D02*
X157571703Y-71432315D01*
X157571703Y-71432315D02*
X157571703Y-71737077D01*
X157571703Y-71737077D02*
X156871703Y-71737077D01*
X156871703Y-71737077D02*
X156871703Y-71470411D01*
X156871703Y-71470411D02*
X156905036Y-71394220D01*
X156905036Y-71394220D02*
X156938370Y-71356125D01*
X156938370Y-71356125D02*
X157005036Y-71318030D01*
X157005036Y-71318030D02*
X157071703Y-71318030D01*
X157071703Y-71318030D02*
X157138370Y-71356125D01*
X157138370Y-71356125D02*
X157171703Y-71394220D01*
X157171703Y-71394220D02*
X157205036Y-71470411D01*
X157205036Y-71470411D02*
X157205036Y-71737077D01*
X151829633Y-83443714D02*
X151496300Y-83643714D01*
X151829633Y-83786571D02*
X151129633Y-83786571D01*
X151129633Y-83786571D02*
X151129633Y-83558000D01*
X151129633Y-83558000D02*
X151162966Y-83500857D01*
X151162966Y-83500857D02*
X151196300Y-83472286D01*
X151196300Y-83472286D02*
X151262966Y-83443714D01*
X151262966Y-83443714D02*
X151362966Y-83443714D01*
X151362966Y-83443714D02*
X151429633Y-83472286D01*
X151429633Y-83472286D02*
X151462966Y-83500857D01*
X151462966Y-83500857D02*
X151496300Y-83558000D01*
X151496300Y-83558000D02*
X151496300Y-83786571D01*
X151829633Y-82872286D02*
X151829633Y-83215143D01*
X151829633Y-83043714D02*
X151129633Y-83043714D01*
X151129633Y-83043714D02*
X151229633Y-83100857D01*
X151229633Y-83100857D02*
X151296300Y-83158000D01*
X151296300Y-83158000D02*
X151329633Y-83215143D01*
X151196300Y-82643714D02*
X151162966Y-82615142D01*
X151162966Y-82615142D02*
X151129633Y-82558000D01*
X151129633Y-82558000D02*
X151129633Y-82415142D01*
X151129633Y-82415142D02*
X151162966Y-82358000D01*
X151162966Y-82358000D02*
X151196300Y-82329428D01*
X151196300Y-82329428D02*
X151262966Y-82300857D01*
X151262966Y-82300857D02*
X151329633Y-82300857D01*
X151329633Y-82300857D02*
X151429633Y-82329428D01*
X151429633Y-82329428D02*
X151829633Y-82672285D01*
X151829633Y-82672285D02*
X151829633Y-82300857D01*
X149610117Y-67887940D02*
X149610117Y-68454607D01*
X149610117Y-68454607D02*
X149638688Y-68521273D01*
X149638688Y-68521273D02*
X149667260Y-68554607D01*
X149667260Y-68554607D02*
X149724402Y-68587940D01*
X149724402Y-68587940D02*
X149838688Y-68587940D01*
X149838688Y-68587940D02*
X149895831Y-68554607D01*
X149895831Y-68554607D02*
X149924402Y-68521273D01*
X149924402Y-68521273D02*
X149952974Y-68454607D01*
X149952974Y-68454607D02*
X149952974Y-67887940D01*
X150495831Y-68121273D02*
X150495831Y-68587940D01*
X150352973Y-67854607D02*
X150210116Y-68354607D01*
X150210116Y-68354607D02*
X150581545Y-68354607D01*
X161952000Y-88248895D02*
X161666286Y-88248895D01*
X161666286Y-88248895D02*
X161666286Y-87448895D01*
X162123428Y-87525085D02*
X162152000Y-87486990D01*
X162152000Y-87486990D02*
X162209143Y-87448895D01*
X162209143Y-87448895D02*
X162352000Y-87448895D01*
X162352000Y-87448895D02*
X162409143Y-87486990D01*
X162409143Y-87486990D02*
X162437714Y-87525085D01*
X162437714Y-87525085D02*
X162466285Y-87601276D01*
X162466285Y-87601276D02*
X162466285Y-87677466D01*
X162466285Y-87677466D02*
X162437714Y-87791752D01*
X162437714Y-87791752D02*
X162094857Y-88248895D01*
X162094857Y-88248895D02*
X162466285Y-88248895D01*
X146299285Y-86424633D02*
X146099285Y-86091300D01*
X145956428Y-86424633D02*
X145956428Y-85724633D01*
X145956428Y-85724633D02*
X146184999Y-85724633D01*
X146184999Y-85724633D02*
X146242142Y-85757966D01*
X146242142Y-85757966D02*
X146270713Y-85791300D01*
X146270713Y-85791300D02*
X146299285Y-85857966D01*
X146299285Y-85857966D02*
X146299285Y-85957966D01*
X146299285Y-85957966D02*
X146270713Y-86024633D01*
X146270713Y-86024633D02*
X146242142Y-86057966D01*
X146242142Y-86057966D02*
X146184999Y-86091300D01*
X146184999Y-86091300D02*
X145956428Y-86091300D01*
X146870713Y-86424633D02*
X146527856Y-86424633D01*
X146699285Y-86424633D02*
X146699285Y-85724633D01*
X146699285Y-85724633D02*
X146642142Y-85824633D01*
X146642142Y-85824633D02*
X146584999Y-85891300D01*
X146584999Y-85891300D02*
X146527856Y-85924633D01*
X147242142Y-85724633D02*
X147299285Y-85724633D01*
X147299285Y-85724633D02*
X147356428Y-85757966D01*
X147356428Y-85757966D02*
X147385000Y-85791300D01*
X147385000Y-85791300D02*
X147413571Y-85857966D01*
X147413571Y-85857966D02*
X147442142Y-85991300D01*
X147442142Y-85991300D02*
X147442142Y-86157966D01*
X147442142Y-86157966D02*
X147413571Y-86291300D01*
X147413571Y-86291300D02*
X147385000Y-86357966D01*
X147385000Y-86357966D02*
X147356428Y-86391300D01*
X147356428Y-86391300D02*
X147299285Y-86424633D01*
X147299285Y-86424633D02*
X147242142Y-86424633D01*
X147242142Y-86424633D02*
X147185000Y-86391300D01*
X147185000Y-86391300D02*
X147156428Y-86357966D01*
X147156428Y-86357966D02*
X147127857Y-86291300D01*
X147127857Y-86291300D02*
X147099285Y-86157966D01*
X147099285Y-86157966D02*
X147099285Y-85991300D01*
X147099285Y-85991300D02*
X147127857Y-85857966D01*
X147127857Y-85857966D02*
X147156428Y-85791300D01*
X147156428Y-85791300D02*
X147185000Y-85757966D01*
X147185000Y-85757966D02*
X147242142Y-85724633D01*
X160428000Y-100237704D02*
X160399428Y-100275800D01*
X160399428Y-100275800D02*
X160313714Y-100313895D01*
X160313714Y-100313895D02*
X160256571Y-100313895D01*
X160256571Y-100313895D02*
X160170857Y-100275800D01*
X160170857Y-100275800D02*
X160113714Y-100199609D01*
X160113714Y-100199609D02*
X160085143Y-100123419D01*
X160085143Y-100123419D02*
X160056571Y-99971038D01*
X160056571Y-99971038D02*
X160056571Y-99856752D01*
X160056571Y-99856752D02*
X160085143Y-99704371D01*
X160085143Y-99704371D02*
X160113714Y-99628180D01*
X160113714Y-99628180D02*
X160170857Y-99551990D01*
X160170857Y-99551990D02*
X160256571Y-99513895D01*
X160256571Y-99513895D02*
X160313714Y-99513895D01*
X160313714Y-99513895D02*
X160399428Y-99551990D01*
X160399428Y-99551990D02*
X160428000Y-99590085D01*
X160999428Y-100313895D02*
X160656571Y-100313895D01*
X160828000Y-100313895D02*
X160828000Y-99513895D01*
X160828000Y-99513895D02*
X160770857Y-99628180D01*
X160770857Y-99628180D02*
X160713714Y-99704371D01*
X160713714Y-99704371D02*
X160656571Y-99742466D01*
X161594857Y-81279633D02*
X161594857Y-81846300D01*
X161594857Y-81846300D02*
X161623428Y-81912966D01*
X161623428Y-81912966D02*
X161652000Y-81946300D01*
X161652000Y-81946300D02*
X161709142Y-81979633D01*
X161709142Y-81979633D02*
X161823428Y-81979633D01*
X161823428Y-81979633D02*
X161880571Y-81946300D01*
X161880571Y-81946300D02*
X161909142Y-81912966D01*
X161909142Y-81912966D02*
X161937714Y-81846300D01*
X161937714Y-81846300D02*
X161937714Y-81279633D01*
X162166285Y-81279633D02*
X162537713Y-81279633D01*
X162537713Y-81279633D02*
X162337713Y-81546300D01*
X162337713Y-81546300D02*
X162423428Y-81546300D01*
X162423428Y-81546300D02*
X162480571Y-81579633D01*
X162480571Y-81579633D02*
X162509142Y-81612966D01*
X162509142Y-81612966D02*
X162537713Y-81679633D01*
X162537713Y-81679633D02*
X162537713Y-81846300D01*
X162537713Y-81846300D02*
X162509142Y-81912966D01*
X162509142Y-81912966D02*
X162480571Y-81946300D01*
X162480571Y-81946300D02*
X162423428Y-81979633D01*
X162423428Y-81979633D02*
X162251999Y-81979633D01*
X162251999Y-81979633D02*
X162194856Y-81946300D01*
X162194856Y-81946300D02*
X162166285Y-81912966D01*
X141814285Y-102118633D02*
X141614285Y-101785300D01*
X141471428Y-102118633D02*
X141471428Y-101418633D01*
X141471428Y-101418633D02*
X141699999Y-101418633D01*
X141699999Y-101418633D02*
X141757142Y-101451966D01*
X141757142Y-101451966D02*
X141785713Y-101485300D01*
X141785713Y-101485300D02*
X141814285Y-101551966D01*
X141814285Y-101551966D02*
X141814285Y-101651966D01*
X141814285Y-101651966D02*
X141785713Y-101718633D01*
X141785713Y-101718633D02*
X141757142Y-101751966D01*
X141757142Y-101751966D02*
X141699999Y-101785300D01*
X141699999Y-101785300D02*
X141471428Y-101785300D01*
X142385713Y-102118633D02*
X142042856Y-102118633D01*
X142214285Y-102118633D02*
X142214285Y-101418633D01*
X142214285Y-101418633D02*
X142157142Y-101518633D01*
X142157142Y-101518633D02*
X142099999Y-101585300D01*
X142099999Y-101585300D02*
X142042856Y-101618633D01*
X142900000Y-101418633D02*
X142785714Y-101418633D01*
X142785714Y-101418633D02*
X142728571Y-101451966D01*
X142728571Y-101451966D02*
X142700000Y-101485300D01*
X142700000Y-101485300D02*
X142642857Y-101585300D01*
X142642857Y-101585300D02*
X142614285Y-101718633D01*
X142614285Y-101718633D02*
X142614285Y-101985300D01*
X142614285Y-101985300D02*
X142642857Y-102051966D01*
X142642857Y-102051966D02*
X142671428Y-102085300D01*
X142671428Y-102085300D02*
X142728571Y-102118633D01*
X142728571Y-102118633D02*
X142842857Y-102118633D01*
X142842857Y-102118633D02*
X142900000Y-102085300D01*
X142900000Y-102085300D02*
X142928571Y-102051966D01*
X142928571Y-102051966D02*
X142957142Y-101985300D01*
X142957142Y-101985300D02*
X142957142Y-101818633D01*
X142957142Y-101818633D02*
X142928571Y-101751966D01*
X142928571Y-101751966D02*
X142900000Y-101718633D01*
X142900000Y-101718633D02*
X142842857Y-101685300D01*
X142842857Y-101685300D02*
X142728571Y-101685300D01*
X142728571Y-101685300D02*
X142671428Y-101718633D01*
X142671428Y-101718633D02*
X142642857Y-101751966D01*
X142642857Y-101751966D02*
X142614285Y-101818633D01*
X134318633Y-81099999D02*
X133985300Y-81299999D01*
X134318633Y-81442856D02*
X133618633Y-81442856D01*
X133618633Y-81442856D02*
X133618633Y-81214285D01*
X133618633Y-81214285D02*
X133651966Y-81157142D01*
X133651966Y-81157142D02*
X133685300Y-81128571D01*
X133685300Y-81128571D02*
X133751966Y-81099999D01*
X133751966Y-81099999D02*
X133851966Y-81099999D01*
X133851966Y-81099999D02*
X133918633Y-81128571D01*
X133918633Y-81128571D02*
X133951966Y-81157142D01*
X133951966Y-81157142D02*
X133985300Y-81214285D01*
X133985300Y-81214285D02*
X133985300Y-81442856D01*
X133618633Y-80899999D02*
X133618633Y-80499999D01*
X133618633Y-80499999D02*
X134318633Y-80757142D01*
X144918633Y-93810714D02*
X144585300Y-94010714D01*
X144918633Y-94153571D02*
X144218633Y-94153571D01*
X144218633Y-94153571D02*
X144218633Y-93925000D01*
X144218633Y-93925000D02*
X144251966Y-93867857D01*
X144251966Y-93867857D02*
X144285300Y-93839286D01*
X144285300Y-93839286D02*
X144351966Y-93810714D01*
X144351966Y-93810714D02*
X144451966Y-93810714D01*
X144451966Y-93810714D02*
X144518633Y-93839286D01*
X144518633Y-93839286D02*
X144551966Y-93867857D01*
X144551966Y-93867857D02*
X144585300Y-93925000D01*
X144585300Y-93925000D02*
X144585300Y-94153571D01*
X144918633Y-93239286D02*
X144918633Y-93582143D01*
X144918633Y-93410714D02*
X144218633Y-93410714D01*
X144218633Y-93410714D02*
X144318633Y-93467857D01*
X144318633Y-93467857D02*
X144385300Y-93525000D01*
X144385300Y-93525000D02*
X144418633Y-93582143D01*
X144218633Y-93039285D02*
X144218633Y-92667857D01*
X144218633Y-92667857D02*
X144485300Y-92867857D01*
X144485300Y-92867857D02*
X144485300Y-92782142D01*
X144485300Y-92782142D02*
X144518633Y-92725000D01*
X144518633Y-92725000D02*
X144551966Y-92696428D01*
X144551966Y-92696428D02*
X144618633Y-92667857D01*
X144618633Y-92667857D02*
X144785300Y-92667857D01*
X144785300Y-92667857D02*
X144851966Y-92696428D01*
X144851966Y-92696428D02*
X144885300Y-92725000D01*
X144885300Y-92725000D02*
X144918633Y-92782142D01*
X144918633Y-92782142D02*
X144918633Y-92953571D01*
X144918633Y-92953571D02*
X144885300Y-93010714D01*
X144885300Y-93010714D02*
X144851966Y-93039285D01*
X161619643Y-73318633D02*
X161619643Y-72618633D01*
X161619643Y-72618633D02*
X161762500Y-72618633D01*
X161762500Y-72618633D02*
X161848214Y-72651966D01*
X161848214Y-72651966D02*
X161905357Y-72718633D01*
X161905357Y-72718633D02*
X161933928Y-72785300D01*
X161933928Y-72785300D02*
X161962500Y-72918633D01*
X161962500Y-72918633D02*
X161962500Y-73018633D01*
X161962500Y-73018633D02*
X161933928Y-73151966D01*
X161933928Y-73151966D02*
X161905357Y-73218633D01*
X161905357Y-73218633D02*
X161848214Y-73285300D01*
X161848214Y-73285300D02*
X161762500Y-73318633D01*
X161762500Y-73318633D02*
X161619643Y-73318633D01*
X162476786Y-72851966D02*
X162476786Y-73318633D01*
X162333928Y-72585300D02*
X162191071Y-73085300D01*
X162191071Y-73085300D02*
X162562500Y-73085300D01*
X146585000Y-82741633D02*
X146385000Y-82408300D01*
X146242143Y-82741633D02*
X146242143Y-82041633D01*
X146242143Y-82041633D02*
X146470714Y-82041633D01*
X146470714Y-82041633D02*
X146527857Y-82074966D01*
X146527857Y-82074966D02*
X146556428Y-82108300D01*
X146556428Y-82108300D02*
X146585000Y-82174966D01*
X146585000Y-82174966D02*
X146585000Y-82274966D01*
X146585000Y-82274966D02*
X146556428Y-82341633D01*
X146556428Y-82341633D02*
X146527857Y-82374966D01*
X146527857Y-82374966D02*
X146470714Y-82408300D01*
X146470714Y-82408300D02*
X146242143Y-82408300D01*
X146870714Y-82741633D02*
X146985000Y-82741633D01*
X146985000Y-82741633D02*
X147042143Y-82708300D01*
X147042143Y-82708300D02*
X147070714Y-82674966D01*
X147070714Y-82674966D02*
X147127857Y-82574966D01*
X147127857Y-82574966D02*
X147156428Y-82441633D01*
X147156428Y-82441633D02*
X147156428Y-82174966D01*
X147156428Y-82174966D02*
X147127857Y-82108300D01*
X147127857Y-82108300D02*
X147099286Y-82074966D01*
X147099286Y-82074966D02*
X147042143Y-82041633D01*
X147042143Y-82041633D02*
X146927857Y-82041633D01*
X146927857Y-82041633D02*
X146870714Y-82074966D01*
X146870714Y-82074966D02*
X146842143Y-82108300D01*
X146842143Y-82108300D02*
X146813571Y-82174966D01*
X146813571Y-82174966D02*
X146813571Y-82341633D01*
X146813571Y-82341633D02*
X146842143Y-82408300D01*
X146842143Y-82408300D02*
X146870714Y-82441633D01*
X146870714Y-82441633D02*
X146927857Y-82474966D01*
X146927857Y-82474966D02*
X147042143Y-82474966D01*
X147042143Y-82474966D02*
X147099286Y-82441633D01*
X147099286Y-82441633D02*
X147127857Y-82408300D01*
X147127857Y-82408300D02*
X147156428Y-82341633D01*
X137814285Y-98518633D02*
X137614285Y-98185300D01*
X137471428Y-98518633D02*
X137471428Y-97818633D01*
X137471428Y-97818633D02*
X137699999Y-97818633D01*
X137699999Y-97818633D02*
X137757142Y-97851966D01*
X137757142Y-97851966D02*
X137785713Y-97885300D01*
X137785713Y-97885300D02*
X137814285Y-97951966D01*
X137814285Y-97951966D02*
X137814285Y-98051966D01*
X137814285Y-98051966D02*
X137785713Y-98118633D01*
X137785713Y-98118633D02*
X137757142Y-98151966D01*
X137757142Y-98151966D02*
X137699999Y-98185300D01*
X137699999Y-98185300D02*
X137471428Y-98185300D01*
X138385713Y-98518633D02*
X138042856Y-98518633D01*
X138214285Y-98518633D02*
X138214285Y-97818633D01*
X138214285Y-97818633D02*
X138157142Y-97918633D01*
X138157142Y-97918633D02*
X138099999Y-97985300D01*
X138099999Y-97985300D02*
X138042856Y-98018633D01*
X138585714Y-97818633D02*
X138985714Y-97818633D01*
X138985714Y-97818633D02*
X138728571Y-98518633D01*
X157042857Y-94118633D02*
X157042857Y-94685300D01*
X157042857Y-94685300D02*
X157071428Y-94751966D01*
X157071428Y-94751966D02*
X157100000Y-94785300D01*
X157100000Y-94785300D02*
X157157142Y-94818633D01*
X157157142Y-94818633D02*
X157271428Y-94818633D01*
X157271428Y-94818633D02*
X157328571Y-94785300D01*
X157328571Y-94785300D02*
X157357142Y-94751966D01*
X157357142Y-94751966D02*
X157385714Y-94685300D01*
X157385714Y-94685300D02*
X157385714Y-94118633D01*
X157642856Y-94185300D02*
X157671428Y-94151966D01*
X157671428Y-94151966D02*
X157728571Y-94118633D01*
X157728571Y-94118633D02*
X157871428Y-94118633D01*
X157871428Y-94118633D02*
X157928571Y-94151966D01*
X157928571Y-94151966D02*
X157957142Y-94185300D01*
X157957142Y-94185300D02*
X157985713Y-94251966D01*
X157985713Y-94251966D02*
X157985713Y-94318633D01*
X157985713Y-94318633D02*
X157957142Y-94418633D01*
X157957142Y-94418633D02*
X157614285Y-94818633D01*
X157614285Y-94818633D02*
X157985713Y-94818633D01*
X153104633Y-90179166D02*
X152771300Y-90412499D01*
X153104633Y-90579166D02*
X152404633Y-90579166D01*
X152404633Y-90579166D02*
X152404633Y-90312499D01*
X152404633Y-90312499D02*
X152437966Y-90245833D01*
X152437966Y-90245833D02*
X152471300Y-90212499D01*
X152471300Y-90212499D02*
X152537966Y-90179166D01*
X152537966Y-90179166D02*
X152637966Y-90179166D01*
X152637966Y-90179166D02*
X152704633Y-90212499D01*
X152704633Y-90212499D02*
X152737966Y-90245833D01*
X152737966Y-90245833D02*
X152771300Y-90312499D01*
X152771300Y-90312499D02*
X152771300Y-90579166D01*
X152404633Y-89945833D02*
X152404633Y-89512499D01*
X152404633Y-89512499D02*
X152671300Y-89745833D01*
X152671300Y-89745833D02*
X152671300Y-89645833D01*
X152671300Y-89645833D02*
X152704633Y-89579166D01*
X152704633Y-89579166D02*
X152737966Y-89545833D01*
X152737966Y-89545833D02*
X152804633Y-89512499D01*
X152804633Y-89512499D02*
X152971300Y-89512499D01*
X152971300Y-89512499D02*
X153037966Y-89545833D01*
X153037966Y-89545833D02*
X153071300Y-89579166D01*
X153071300Y-89579166D02*
X153104633Y-89645833D01*
X153104633Y-89645833D02*
X153104633Y-89845833D01*
X153104633Y-89845833D02*
X153071300Y-89912499D01*
X153071300Y-89912499D02*
X153037966Y-89945833D01*
X158904000Y-89913966D02*
X158875428Y-89947300D01*
X158875428Y-89947300D02*
X158789714Y-89980633D01*
X158789714Y-89980633D02*
X158732571Y-89980633D01*
X158732571Y-89980633D02*
X158646857Y-89947300D01*
X158646857Y-89947300D02*
X158589714Y-89880633D01*
X158589714Y-89880633D02*
X158561143Y-89813966D01*
X158561143Y-89813966D02*
X158532571Y-89680633D01*
X158532571Y-89680633D02*
X158532571Y-89580633D01*
X158532571Y-89580633D02*
X158561143Y-89447300D01*
X158561143Y-89447300D02*
X158589714Y-89380633D01*
X158589714Y-89380633D02*
X158646857Y-89313966D01*
X158646857Y-89313966D02*
X158732571Y-89280633D01*
X158732571Y-89280633D02*
X158789714Y-89280633D01*
X158789714Y-89280633D02*
X158875428Y-89313966D01*
X158875428Y-89313966D02*
X158904000Y-89347300D01*
X159418286Y-89513966D02*
X159418286Y-89980633D01*
X159275428Y-89247300D02*
X159132571Y-89747300D01*
X159132571Y-89747300D02*
X159504000Y-89747300D01*
X142150000Y-86001966D02*
X142121428Y-86035300D01*
X142121428Y-86035300D02*
X142035714Y-86068633D01*
X142035714Y-86068633D02*
X141978571Y-86068633D01*
X141978571Y-86068633D02*
X141892857Y-86035300D01*
X141892857Y-86035300D02*
X141835714Y-85968633D01*
X141835714Y-85968633D02*
X141807143Y-85901966D01*
X141807143Y-85901966D02*
X141778571Y-85768633D01*
X141778571Y-85768633D02*
X141778571Y-85668633D01*
X141778571Y-85668633D02*
X141807143Y-85535300D01*
X141807143Y-85535300D02*
X141835714Y-85468633D01*
X141835714Y-85468633D02*
X141892857Y-85401966D01*
X141892857Y-85401966D02*
X141978571Y-85368633D01*
X141978571Y-85368633D02*
X142035714Y-85368633D01*
X142035714Y-85368633D02*
X142121428Y-85401966D01*
X142121428Y-85401966D02*
X142150000Y-85435300D01*
X142664286Y-85368633D02*
X142550000Y-85368633D01*
X142550000Y-85368633D02*
X142492857Y-85401966D01*
X142492857Y-85401966D02*
X142464286Y-85435300D01*
X142464286Y-85435300D02*
X142407143Y-85535300D01*
X142407143Y-85535300D02*
X142378571Y-85668633D01*
X142378571Y-85668633D02*
X142378571Y-85935300D01*
X142378571Y-85935300D02*
X142407143Y-86001966D01*
X142407143Y-86001966D02*
X142435714Y-86035300D01*
X142435714Y-86035300D02*
X142492857Y-86068633D01*
X142492857Y-86068633D02*
X142607143Y-86068633D01*
X142607143Y-86068633D02*
X142664286Y-86035300D01*
X142664286Y-86035300D02*
X142692857Y-86001966D01*
X142692857Y-86001966D02*
X142721428Y-85935300D01*
X142721428Y-85935300D02*
X142721428Y-85768633D01*
X142721428Y-85768633D02*
X142692857Y-85701966D01*
X142692857Y-85701966D02*
X142664286Y-85668633D01*
X142664286Y-85668633D02*
X142607143Y-85635300D01*
X142607143Y-85635300D02*
X142492857Y-85635300D01*
X142492857Y-85635300D02*
X142435714Y-85668633D01*
X142435714Y-85668633D02*
X142407143Y-85701966D01*
X142407143Y-85701966D02*
X142378571Y-85768633D01*
X147892633Y-91628856D02*
X147192633Y-91628856D01*
X147192633Y-91628856D02*
X147192633Y-91485999D01*
X147192633Y-91485999D02*
X147225966Y-91400285D01*
X147225966Y-91400285D02*
X147292633Y-91343142D01*
X147292633Y-91343142D02*
X147359300Y-91314571D01*
X147359300Y-91314571D02*
X147492633Y-91285999D01*
X147492633Y-91285999D02*
X147592633Y-91285999D01*
X147592633Y-91285999D02*
X147725966Y-91314571D01*
X147725966Y-91314571D02*
X147792633Y-91343142D01*
X147792633Y-91343142D02*
X147859300Y-91400285D01*
X147859300Y-91400285D02*
X147892633Y-91485999D01*
X147892633Y-91485999D02*
X147892633Y-91628856D01*
X147192633Y-90743142D02*
X147192633Y-91028856D01*
X147192633Y-91028856D02*
X147525966Y-91057428D01*
X147525966Y-91057428D02*
X147492633Y-91028856D01*
X147492633Y-91028856D02*
X147459300Y-90971714D01*
X147459300Y-90971714D02*
X147459300Y-90828856D01*
X147459300Y-90828856D02*
X147492633Y-90771714D01*
X147492633Y-90771714D02*
X147525966Y-90743142D01*
X147525966Y-90743142D02*
X147592633Y-90714571D01*
X147592633Y-90714571D02*
X147759300Y-90714571D01*
X147759300Y-90714571D02*
X147825966Y-90743142D01*
X147825966Y-90743142D02*
X147859300Y-90771714D01*
X147859300Y-90771714D02*
X147892633Y-90828856D01*
X147892633Y-90828856D02*
X147892633Y-90971714D01*
X147892633Y-90971714D02*
X147859300Y-91028856D01*
X147859300Y-91028856D02*
X147825966Y-91057428D01*
X145814285Y-93794966D02*
X145785713Y-93828300D01*
X145785713Y-93828300D02*
X145699999Y-93861633D01*
X145699999Y-93861633D02*
X145642856Y-93861633D01*
X145642856Y-93861633D02*
X145557142Y-93828300D01*
X145557142Y-93828300D02*
X145499999Y-93761633D01*
X145499999Y-93761633D02*
X145471428Y-93694966D01*
X145471428Y-93694966D02*
X145442856Y-93561633D01*
X145442856Y-93561633D02*
X145442856Y-93461633D01*
X145442856Y-93461633D02*
X145471428Y-93328300D01*
X145471428Y-93328300D02*
X145499999Y-93261633D01*
X145499999Y-93261633D02*
X145557142Y-93194966D01*
X145557142Y-93194966D02*
X145642856Y-93161633D01*
X145642856Y-93161633D02*
X145699999Y-93161633D01*
X145699999Y-93161633D02*
X145785713Y-93194966D01*
X145785713Y-93194966D02*
X145814285Y-93228300D01*
X146385713Y-93861633D02*
X146042856Y-93861633D01*
X146214285Y-93861633D02*
X146214285Y-93161633D01*
X146214285Y-93161633D02*
X146157142Y-93261633D01*
X146157142Y-93261633D02*
X146099999Y-93328300D01*
X146099999Y-93328300D02*
X146042856Y-93361633D01*
X146957142Y-93861633D02*
X146614285Y-93861633D01*
X146785714Y-93861633D02*
X146785714Y-93161633D01*
X146785714Y-93161633D02*
X146728571Y-93261633D01*
X146728571Y-93261633D02*
X146671428Y-93328300D01*
X146671428Y-93328300D02*
X146614285Y-93361633D01*
X152057143Y-88318633D02*
X152057143Y-87618633D01*
X152057143Y-87618633D02*
X152200000Y-87618633D01*
X152200000Y-87618633D02*
X152285714Y-87651966D01*
X152285714Y-87651966D02*
X152342857Y-87718633D01*
X152342857Y-87718633D02*
X152371428Y-87785300D01*
X152371428Y-87785300D02*
X152400000Y-87918633D01*
X152400000Y-87918633D02*
X152400000Y-88018633D01*
X152400000Y-88018633D02*
X152371428Y-88151966D01*
X152371428Y-88151966D02*
X152342857Y-88218633D01*
X152342857Y-88218633D02*
X152285714Y-88285300D01*
X152285714Y-88285300D02*
X152200000Y-88318633D01*
X152200000Y-88318633D02*
X152057143Y-88318633D01*
X152600000Y-87618633D02*
X152971428Y-87618633D01*
X152971428Y-87618633D02*
X152771428Y-87885300D01*
X152771428Y-87885300D02*
X152857143Y-87885300D01*
X152857143Y-87885300D02*
X152914286Y-87918633D01*
X152914286Y-87918633D02*
X152942857Y-87951966D01*
X152942857Y-87951966D02*
X152971428Y-88018633D01*
X152971428Y-88018633D02*
X152971428Y-88185300D01*
X152971428Y-88185300D02*
X152942857Y-88251966D01*
X152942857Y-88251966D02*
X152914286Y-88285300D01*
X152914286Y-88285300D02*
X152857143Y-88318633D01*
X152857143Y-88318633D02*
X152685714Y-88318633D01*
X152685714Y-88318633D02*
X152628571Y-88285300D01*
X152628571Y-88285300D02*
X152600000Y-88251966D01*
X154459000Y-83690966D02*
X154430428Y-83724300D01*
X154430428Y-83724300D02*
X154344714Y-83757633D01*
X154344714Y-83757633D02*
X154287571Y-83757633D01*
X154287571Y-83757633D02*
X154201857Y-83724300D01*
X154201857Y-83724300D02*
X154144714Y-83657633D01*
X154144714Y-83657633D02*
X154116143Y-83590966D01*
X154116143Y-83590966D02*
X154087571Y-83457633D01*
X154087571Y-83457633D02*
X154087571Y-83357633D01*
X154087571Y-83357633D02*
X154116143Y-83224300D01*
X154116143Y-83224300D02*
X154144714Y-83157633D01*
X154144714Y-83157633D02*
X154201857Y-83090966D01*
X154201857Y-83090966D02*
X154287571Y-83057633D01*
X154287571Y-83057633D02*
X154344714Y-83057633D01*
X154344714Y-83057633D02*
X154430428Y-83090966D01*
X154430428Y-83090966D02*
X154459000Y-83124300D01*
X155001857Y-83057633D02*
X154716143Y-83057633D01*
X154716143Y-83057633D02*
X154687571Y-83390966D01*
X154687571Y-83390966D02*
X154716143Y-83357633D01*
X154716143Y-83357633D02*
X154773286Y-83324300D01*
X154773286Y-83324300D02*
X154916143Y-83324300D01*
X154916143Y-83324300D02*
X154973286Y-83357633D01*
X154973286Y-83357633D02*
X155001857Y-83390966D01*
X155001857Y-83390966D02*
X155030428Y-83457633D01*
X155030428Y-83457633D02*
X155030428Y-83624300D01*
X155030428Y-83624300D02*
X155001857Y-83690966D01*
X155001857Y-83690966D02*
X154973286Y-83724300D01*
X154973286Y-83724300D02*
X154916143Y-83757633D01*
X154916143Y-83757633D02*
X154773286Y-83757633D01*
X154773286Y-83757633D02*
X154716143Y-83724300D01*
X154716143Y-83724300D02*
X154687571Y-83690966D01*
X135342857Y-96018633D02*
X135342857Y-96585300D01*
X135342857Y-96585300D02*
X135371428Y-96651966D01*
X135371428Y-96651966D02*
X135400000Y-96685300D01*
X135400000Y-96685300D02*
X135457142Y-96718633D01*
X135457142Y-96718633D02*
X135571428Y-96718633D01*
X135571428Y-96718633D02*
X135628571Y-96685300D01*
X135628571Y-96685300D02*
X135657142Y-96651966D01*
X135657142Y-96651966D02*
X135685714Y-96585300D01*
X135685714Y-96585300D02*
X135685714Y-96018633D01*
X136228571Y-96018633D02*
X136114285Y-96018633D01*
X136114285Y-96018633D02*
X136057142Y-96051966D01*
X136057142Y-96051966D02*
X136028571Y-96085300D01*
X136028571Y-96085300D02*
X135971428Y-96185300D01*
X135971428Y-96185300D02*
X135942856Y-96318633D01*
X135942856Y-96318633D02*
X135942856Y-96585300D01*
X135942856Y-96585300D02*
X135971428Y-96651966D01*
X135971428Y-96651966D02*
X135999999Y-96685300D01*
X135999999Y-96685300D02*
X136057142Y-96718633D01*
X136057142Y-96718633D02*
X136171428Y-96718633D01*
X136171428Y-96718633D02*
X136228571Y-96685300D01*
X136228571Y-96685300D02*
X136257142Y-96651966D01*
X136257142Y-96651966D02*
X136285713Y-96585300D01*
X136285713Y-96585300D02*
X136285713Y-96418633D01*
X136285713Y-96418633D02*
X136257142Y-96351966D01*
X136257142Y-96351966D02*
X136228571Y-96318633D01*
X136228571Y-96318633D02*
X136171428Y-96285300D01*
X136171428Y-96285300D02*
X136057142Y-96285300D01*
X136057142Y-96285300D02*
X135999999Y-96318633D01*
X135999999Y-96318633D02*
X135971428Y-96351966D01*
X135971428Y-96351966D02*
X135942856Y-96418633D01*
D12*
X159790000Y-89950000D02*
X159790000Y-93250000D01*
X159790000Y-93250000D02*
X165300000Y-93250000D01*
X159807800Y-89950692D02*
X165317800Y-89950692D01*
X139440000Y-97377500D02*
X140440000Y-97377500D01*
X139440000Y-98897500D02*
X139440000Y-97377500D01*
X139490000Y-98897500D02*
X139440000Y-98897500D01*
X141390000Y-98897500D02*
X140610000Y-98897500D01*
X141560000Y-97377500D02*
X142560000Y-97377500D01*
X142560000Y-97377500D02*
X142560000Y-98897500D01*
X142560000Y-98897500D02*
X142510000Y-98897500D01*
X140950000Y-99677500D02*
X140620000Y-99437500D01*
X140950000Y-99197500D01*
X140950000Y-99677500D01*
G36*
X140950000Y-99677500D02*
G01*
X140620000Y-99437500D01*
X140950000Y-99197500D01*
X140950000Y-99677500D01*
G37*
X141990000Y-71915580D02*
X141990000Y-71634420D01*
X143010000Y-71915580D02*
X143010000Y-71634420D01*
X162327500Y-83045000D02*
X162327500Y-84955000D01*
X162327500Y-84955000D02*
X166247500Y-84955000D01*
X166247500Y-83045000D02*
X162327500Y-83045000D01*
X135035000Y-85451000D02*
X139155000Y-85451000D01*
X135035000Y-85546000D02*
X135035000Y-85451000D01*
X135035000Y-90571000D02*
X135035000Y-90476000D01*
X139155000Y-85451000D02*
X139155000Y-85546000D01*
X139155000Y-90476000D02*
X139155000Y-90571000D01*
X139155000Y-90571000D02*
X135035000Y-90571000D01*
X134495000Y-85541000D02*
X134255000Y-85211000D01*
X134735000Y-85211000D01*
X134495000Y-85541000D01*
G36*
X134495000Y-85541000D02*
G01*
X134255000Y-85211000D01*
X134735000Y-85211000D01*
X134495000Y-85541000D01*
G37*
X137030000Y-76152000D02*
X137330000Y-76152000D01*
X137030000Y-79452000D02*
X137030000Y-76152000D01*
X137330000Y-79452000D02*
X137030000Y-79452000D01*
X139530000Y-79452000D02*
X139830000Y-79452000D01*
X139830000Y-76152000D02*
X139530000Y-76152000D01*
X139830000Y-79452000D02*
X139830000Y-76152000D01*
X153377500Y-93012742D02*
X153377500Y-93487258D01*
X154422500Y-93012742D02*
X154422500Y-93487258D01*
X147007742Y-103437500D02*
X147482258Y-103437500D01*
X147007742Y-104482500D02*
X147482258Y-104482500D01*
X162589758Y-78090000D02*
X164260242Y-78090000D01*
X162589758Y-79910000D02*
X164260242Y-79910000D01*
X144511500Y-90344258D02*
X144511500Y-89869742D01*
X145556500Y-90344258D02*
X145556500Y-89869742D01*
X143178500Y-84819258D02*
X143178500Y-84344742D01*
X144223500Y-84819258D02*
X144223500Y-84344742D01*
X154790000Y-103803922D02*
X154790000Y-104321078D01*
X156210000Y-103803922D02*
X156210000Y-104321078D01*
X149040000Y-97140000D02*
X150840000Y-97140000D01*
X149040000Y-98740000D02*
X149040000Y-97140000D01*
X155710000Y-97140000D02*
X155710000Y-96200000D01*
X156240000Y-101610000D02*
X150310000Y-101610000D01*
X157510000Y-97140000D02*
X155710000Y-97140000D01*
X157510000Y-98740000D02*
X157510000Y-97140000D01*
X141865580Y-76990000D02*
X141584420Y-76990000D01*
X141865580Y-78010000D02*
X141584420Y-78010000D01*
X150702500Y-104290000D02*
X150702500Y-104010000D01*
X150788248Y-102990000D02*
X152172500Y-102990000D01*
X152172500Y-102990000D02*
X152172500Y-103640000D01*
X152172500Y-104660000D02*
X152172500Y-105310000D01*
X152172500Y-105310000D02*
X150702500Y-105310000D01*
X150497500Y-102980000D02*
X150357500Y-102790000D01*
X150637500Y-102790000D01*
X150497500Y-102980000D01*
G36*
X150497500Y-102980000D02*
G01*
X150357500Y-102790000D01*
X150637500Y-102790000D01*
X150497500Y-102980000D01*
G37*
X158882500Y-93990000D02*
X158882500Y-97010000D01*
X158882500Y-97010000D02*
X163102500Y-97010000D01*
X163102500Y-93990000D02*
X158882500Y-93990000D01*
X136302500Y-81440000D02*
X137822500Y-81440000D01*
X136302500Y-81490000D02*
X136302500Y-81440000D01*
X136302500Y-83390000D02*
X136302500Y-82610000D01*
X136302500Y-84560000D02*
X136302500Y-84510000D01*
X137822500Y-81440000D02*
X137822500Y-82440000D01*
X137822500Y-83560000D02*
X137822500Y-84560000D01*
X137822500Y-84560000D02*
X136302500Y-84560000D01*
X136002500Y-82950000D02*
X135522500Y-82950000D01*
X135762500Y-82620000D01*
X136002500Y-82950000D01*
G36*
X136002500Y-82950000D02*
G01*
X135522500Y-82950000D01*
X135762500Y-82620000D01*
X136002500Y-82950000D01*
G37*
X149302500Y-85562258D02*
X149302500Y-85087742D01*
X150347500Y-85562258D02*
X150347500Y-85087742D01*
X141977500Y-80562258D02*
X141977500Y-80087742D01*
X143022500Y-80562258D02*
X143022500Y-80087742D01*
X142477500Y-90062258D02*
X142477500Y-89587742D01*
X143522500Y-90062258D02*
X143522500Y-89587742D01*
X144027742Y-103457500D02*
X144502258Y-103457500D01*
X144027742Y-104502500D02*
X144502258Y-104502500D01*
X150977500Y-85562258D02*
X150977500Y-85087742D01*
X152022500Y-85562258D02*
X152022500Y-85087742D01*
X143250000Y-80950000D02*
X143250000Y-81750000D01*
X143250000Y-81750000D02*
X144050000Y-81750000D01*
X143450000Y-69050000D02*
X156650000Y-69050000D01*
X143450000Y-81550000D02*
X143450000Y-69050000D01*
X144125000Y-68850000D02*
X143275000Y-68850000D01*
X156100000Y-68850000D02*
X156850000Y-68850000D01*
X156650000Y-69050000D02*
X156650000Y-81550000D01*
X156650000Y-81550000D02*
X143450000Y-81550000D01*
X156850000Y-68850000D02*
X156850000Y-69500000D01*
X156850000Y-80950000D02*
X156850000Y-81750000D01*
X156850000Y-81750000D02*
X156050000Y-81750000D01*
X158640000Y-87527064D02*
X158640000Y-86322936D01*
X161360000Y-87527064D02*
X161360000Y-86322936D01*
X146437742Y-84477500D02*
X146912258Y-84477500D01*
X146437742Y-85522500D02*
X146912258Y-85522500D01*
X161084420Y-97990000D02*
X161365580Y-97990000D01*
X161084420Y-99010000D02*
X161365580Y-99010000D01*
X157990000Y-80952500D02*
X158040000Y-80952500D01*
X157990000Y-82772500D02*
X157990000Y-80952500D01*
X158040000Y-82772500D02*
X157990000Y-82772500D01*
X159160000Y-80952500D02*
X159940000Y-80952500D01*
X161060000Y-80952500D02*
X161110000Y-80952500D01*
X161110000Y-80952500D02*
X161110000Y-82772500D01*
X161110000Y-82772500D02*
X161060000Y-82772500D01*
X158040000Y-83312500D02*
X157710000Y-83552500D01*
X157710000Y-83072500D01*
X158040000Y-83312500D01*
G36*
X158040000Y-83312500D02*
G01*
X157710000Y-83552500D01*
X157710000Y-83072500D01*
X158040000Y-83312500D01*
G37*
X141612258Y-100277500D02*
X141137742Y-100277500D01*
X141612258Y-101322500D02*
X141137742Y-101322500D01*
X133477500Y-82937742D02*
X133477500Y-83412258D01*
X134522500Y-82937742D02*
X134522500Y-83412258D01*
X142877500Y-92787742D02*
X142877500Y-93262258D01*
X143922500Y-92787742D02*
X143922500Y-93262258D01*
X161327500Y-75140000D02*
X161327500Y-74860000D01*
X161413248Y-73840000D02*
X162797500Y-73840000D01*
X162797500Y-73840000D02*
X162797500Y-74490000D01*
X162797500Y-75510000D02*
X162797500Y-76160000D01*
X162797500Y-76160000D02*
X161327500Y-76160000D01*
X161122500Y-73830000D02*
X160982500Y-73640000D01*
X161262500Y-73640000D01*
X161122500Y-73830000D01*
G36*
X161122500Y-73830000D02*
G01*
X160982500Y-73640000D01*
X161262500Y-73640000D01*
X161122500Y-73830000D01*
G37*
X146437742Y-82977500D02*
X146912258Y-82977500D01*
X146437742Y-84022500D02*
X146912258Y-84022500D01*
X138012258Y-96477500D02*
X137537742Y-96477500D01*
X138012258Y-97522500D02*
X137537742Y-97522500D01*
X156452500Y-90490000D02*
X158272500Y-90490000D01*
X156452500Y-90540000D02*
X156452500Y-90490000D01*
X156452500Y-93610000D02*
X156452500Y-93560000D01*
X158272500Y-90490000D02*
X158272500Y-90540000D01*
X158272500Y-93560000D02*
X158272500Y-93610000D01*
X158272500Y-93610000D02*
X156452500Y-93610000D01*
X155912500Y-90540000D02*
X155672500Y-90210000D01*
X156152500Y-90210000D01*
X155912500Y-90540000D01*
G36*
X155912500Y-90540000D02*
G01*
X155672500Y-90210000D01*
X156152500Y-90210000D01*
X155912500Y-90540000D01*
G37*
X153387500Y-89937742D02*
X153387500Y-90412258D01*
X154432500Y-89937742D02*
X154432500Y-90412258D01*
X156915580Y-88990000D02*
X156634420Y-88990000D01*
X156915580Y-90010000D02*
X156634420Y-90010000D01*
X142594420Y-86358000D02*
X142875580Y-86358000D01*
X142594420Y-87378000D02*
X142875580Y-87378000D01*
X148112000Y-89900500D02*
X149112000Y-89900500D01*
X148112000Y-91720500D02*
X148112000Y-89900500D01*
X148162000Y-91720500D02*
X148112000Y-91720500D01*
X150062000Y-91720500D02*
X149282000Y-91720500D01*
X150232000Y-89900500D02*
X151232000Y-89900500D01*
X151232000Y-89900500D02*
X151232000Y-91720500D01*
X151232000Y-91720500D02*
X151182000Y-91720500D01*
X149622000Y-92500500D02*
X149292000Y-92260500D01*
X149622000Y-92020500D01*
X149622000Y-92500500D01*
G36*
X149622000Y-92500500D02*
G01*
X149292000Y-92260500D01*
X149622000Y-92020500D01*
X149622000Y-92500500D01*
G37*
X145947220Y-91890000D02*
X146228380Y-91890000D01*
X145947220Y-92910000D02*
X146228380Y-92910000D01*
X157860000Y-86500000D02*
X153850000Y-86500000D01*
X157860000Y-88500000D02*
X153850000Y-88500000D01*
X157860000Y-88500000D02*
X157860000Y-86500000D01*
X153032500Y-84045000D02*
X153032500Y-85955000D01*
X153032500Y-85955000D02*
X156952500Y-85955000D01*
X156952500Y-84045000D02*
X153032500Y-84045000D01*
X136465000Y-90945000D02*
X140585000Y-90945000D01*
X136465000Y-91040000D02*
X136465000Y-90945000D01*
X136465000Y-96065000D02*
X136465000Y-95970000D01*
X140585000Y-90945000D02*
X140585000Y-91040000D01*
X140585000Y-95970000D02*
X140585000Y-96065000D01*
X140585000Y-96065000D02*
X136465000Y-96065000D01*
X135925000Y-91035000D02*
X135685000Y-90705000D01*
X136165000Y-90705000D01*
X135925000Y-91035000D01*
G36*
X135925000Y-91035000D02*
G01*
X135685000Y-90705000D01*
X136165000Y-90705000D01*
X135925000Y-91035000D01*
G37*
%LPC*%
D13*
X145791553Y-87630000D02*
G75*
G02*
X144784447Y-87630000I-503553J0D01*
G01*
X144784447Y-87630000D02*
G75*
G02*
X145791553Y-87630000I503553J0D01*
G01*
X163703553Y-86300000D02*
G75*
G02*
X162696447Y-86300000I-503553J0D01*
G01*
X162696447Y-86300000D02*
G75*
G02*
X163703553Y-86300000I503553J0D01*
G01*
D14*
X161300000Y-91600000D03*
X165300000Y-91600000D03*
D15*
X140050000Y-99075000D03*
X141950000Y-99075000D03*
X141000000Y-97200000D03*
D16*
X142500000Y-72550000D03*
X142500000Y-71000000D03*
D17*
X163295000Y-84000000D03*
X166000000Y-84000000D03*
D18*
X134620000Y-86106000D03*
X134620000Y-87376000D03*
X134620000Y-88646000D03*
X134620000Y-89916000D03*
X139570000Y-89916000D03*
X139570000Y-88646000D03*
X139570000Y-87376000D03*
X139570000Y-86106000D03*
D19*
X138430000Y-79502000D03*
X138430000Y-76102000D03*
D20*
X153900000Y-92425000D03*
X153900000Y-94075000D03*
D21*
X146420000Y-103960000D03*
X148070000Y-103960000D03*
D22*
X161850000Y-79000000D03*
X165000000Y-79000000D03*
D23*
X145034000Y-90932000D03*
X145034000Y-89282000D03*
X143701000Y-85407000D03*
X143701000Y-83757000D03*
D24*
X155500000Y-103125000D03*
X155500000Y-105000000D03*
D25*
X155150000Y-97050000D03*
X153900000Y-97050000D03*
X152650000Y-97050000D03*
X151400000Y-97050000D03*
D26*
X157000000Y-100400000D03*
X149550000Y-100400000D03*
D27*
X142500000Y-77500000D03*
X140950000Y-77500000D03*
D28*
X150500000Y-103500000D03*
X150500000Y-104800000D03*
X152375000Y-104150000D03*
D29*
X159812500Y-95500000D03*
X162892500Y-95500000D03*
D30*
X136125000Y-82050000D03*
X136125000Y-83950000D03*
X138000000Y-83000000D03*
D23*
X149825000Y-86150000D03*
X149825000Y-84500000D03*
X142500000Y-81150000D03*
X142500000Y-79500000D03*
X143000000Y-90650000D03*
X143000000Y-89000000D03*
D21*
X143440000Y-103980000D03*
X145090000Y-103980000D03*
D31*
X158500000Y-78500000D03*
D32*
X158500000Y-75960000D03*
X158500000Y-73420000D03*
X158500000Y-70880000D03*
D23*
X151500000Y-86150000D03*
X151500000Y-84500000D03*
D33*
X144150000Y-71950000D03*
X144150000Y-72750000D03*
X144150000Y-73550000D03*
X144150000Y-74350000D03*
X144150000Y-75150000D03*
X144150000Y-75950000D03*
X144150000Y-76750000D03*
X144150000Y-77550000D03*
X144150000Y-78350000D03*
X144150000Y-79150000D03*
X144150000Y-79950000D03*
D34*
X145250000Y-80850000D03*
X146050000Y-80850000D03*
X146850000Y-80850000D03*
X147650000Y-80850000D03*
X148450000Y-80850000D03*
X149250000Y-80850000D03*
X150050000Y-80850000D03*
X150850000Y-80850000D03*
X151650000Y-80850000D03*
X152450000Y-80850000D03*
X153250000Y-80850000D03*
X154050000Y-80850000D03*
X154850000Y-80850000D03*
D33*
X155950000Y-79950000D03*
X155950000Y-79150000D03*
X155950000Y-78350000D03*
X155950000Y-77550000D03*
X155950000Y-76750000D03*
X155950000Y-75950000D03*
X155950000Y-75150000D03*
X155950000Y-74350000D03*
X155950000Y-73550000D03*
X155950000Y-72750000D03*
X155950000Y-71950000D03*
D34*
X154850000Y-71050000D03*
X154050000Y-71050000D03*
X153250000Y-71050000D03*
X152450000Y-71050000D03*
X151650000Y-71050000D03*
X150850000Y-71050000D03*
X150050000Y-71050000D03*
X149250000Y-71050000D03*
X148450000Y-71050000D03*
X147650000Y-71050000D03*
X146850000Y-71050000D03*
X146050000Y-71050000D03*
X145250000Y-71050000D03*
D35*
X148075000Y-73975000D03*
D36*
X148075000Y-75950000D03*
X148075000Y-77925000D03*
X150050000Y-73975000D03*
X150050000Y-75950000D03*
X150050000Y-77925000D03*
X152025000Y-73975000D03*
X152025000Y-75950000D03*
X152025000Y-77925000D03*
D37*
X156000000Y-71000000D03*
X156000000Y-80900000D03*
X144100000Y-80900000D03*
X144100000Y-71000000D03*
D38*
X160000000Y-88325000D03*
X160000000Y-85525000D03*
D21*
X145850000Y-85000000D03*
X147500000Y-85000000D03*
D39*
X160450000Y-98500000D03*
X162000000Y-98500000D03*
D40*
X158600000Y-83000000D03*
X159550000Y-83000000D03*
X160500000Y-83000000D03*
X160500000Y-80725000D03*
X158600000Y-80725000D03*
D41*
X142200000Y-100800000D03*
X140550000Y-100800000D03*
D20*
X134000000Y-82350000D03*
X134000000Y-84000000D03*
X143400000Y-92200000D03*
X143400000Y-93850000D03*
D28*
X161125000Y-74350000D03*
X161125000Y-75650000D03*
X163000000Y-75000000D03*
D21*
X145850000Y-83500000D03*
X147500000Y-83500000D03*
D41*
X138600000Y-97000000D03*
X136950000Y-97000000D03*
D42*
X156225000Y-91100000D03*
X156225000Y-92050000D03*
X156225000Y-93000000D03*
X158500000Y-93000000D03*
X158500000Y-92050000D03*
X158500000Y-91100000D03*
D20*
X153910000Y-89350000D03*
X153910000Y-91000000D03*
D27*
X157550000Y-89500000D03*
X156000000Y-89500000D03*
D39*
X141960000Y-86868000D03*
X143510000Y-86868000D03*
D40*
X148722000Y-91948000D03*
X150622000Y-91948000D03*
X149672000Y-89673000D03*
D39*
X145312800Y-92400000D03*
X146862800Y-92400000D03*
D43*
X157150000Y-87500000D03*
X153850000Y-87500000D03*
D17*
X154000000Y-85000000D03*
X156705000Y-85000000D03*
D18*
X136050000Y-91600000D03*
X136050000Y-92870000D03*
X136050000Y-94140000D03*
X136050000Y-95410000D03*
X141000000Y-95410000D03*
X141000000Y-94140000D03*
X141000000Y-92870000D03*
X141000000Y-91600000D03*
%LPD*%
M02*
