%TF.GenerationSoftware,KiCad,Pcbnew,9.0.7*%
%TF.CreationDate,2026-02-15T09:41:11+03:00*%
%TF.ProjectId,_______ 240_240,1438413f-3b35-4392-9032-343045323430,0*%
%TF.SameCoordinates,Original*%
%TF.FileFunction,Copper,L2,Bot*%
%TF.FilePolarity,Positive*%
%FSLAX46Y46*%
G04 Gerber Fmt 4.6, Leading zero omitted, Abs format (unit mm)*
G04 Created by KiCad (PCBNEW 9.0.7) date 2026-02-15 09:41:11*
%MOMM*%
%LPD*%
G01*
G04 APERTURE LIST*
G04 Aperture macros list*
%AMRoundRect*
0 Rectangle with rounded corners*
0 $1 Rounding radius*
0 $2 $3 $4 $5 $6 $7 $8 $9 X,Y pos of 4 corners*
0 Add a 4 corners polygon primitive as box body*
4,1,4,$2,$3,$4,$5,$6,$7,$8,$9,$2,$3,0*
0 Add four circle primitives for the rounded corners*
1,1,$1+$1,$2,$3*
1,1,$1+$1,$4,$5*
1,1,$1+$1,$6,$7*
1,1,$1+$1,$8,$9*
0 Add four rect primitives between the rounded corners*
20,1,$1+$1,$2,$3,$4,$5,0*
20,1,$1+$1,$4,$5,$6,$7,0*
20,1,$1+$1,$6,$7,$8,$9,0*
20,1,$1+$1,$8,$9,$2,$3,0*%
G04 Aperture macros list end*
%TA.AperFunction,ComponentPad*%
%ADD10R,1.700000X1.700000*%
%TD*%
%TA.AperFunction,ComponentPad*%
%ADD11C,1.700000*%
%TD*%
%TA.AperFunction,SMDPad,CuDef*%
%ADD12RoundRect,0.087500X-0.087500X1.162500X-0.087500X-1.162500X0.087500X-1.162500X0.087500X1.162500X0*%
%TD*%
%TA.AperFunction,ViaPad*%
%ADD13C,0.600000*%
%TD*%
%TA.AperFunction,ViaPad*%
%ADD14C,0.800000*%
%TD*%
%TA.AperFunction,Conductor*%
%ADD15C,0.200000*%
%TD*%
%TA.AperFunction,Conductor*%
%ADD16C,0.400000*%
%TD*%
G04 APERTURE END LIST*
D10*
X158500000Y-78500000D03*
D11*
X158500000Y-75960000D03*
X158500000Y-73420000D03*
X158500000Y-70880000D03*
D12*
X145250000Y-85500000D03*
X145900000Y-85500000D03*
X146550000Y-85500000D03*
X147200000Y-85500000D03*
X147850000Y-85500000D03*
X148500000Y-85500000D03*
X149150000Y-85500000D03*
X149800000Y-85500000D03*
X150450000Y-85500000D03*
X151100000Y-85500000D03*
X151750000Y-85500000D03*
X152400000Y-85500000D03*
X153050000Y-85500000D03*
X153700000Y-85500000D03*
X154350000Y-85500000D03*
X155000000Y-85500000D03*
D13*
X154000000Y-77000000D03*
X136455500Y-86544500D03*
X155000000Y-76000000D03*
X132969000Y-86487000D03*
X136050000Y-91600000D03*
X161500000Y-99500000D03*
X146800000Y-72700000D03*
D14*
X151600000Y-88600000D03*
D13*
X149500000Y-88000000D03*
X155000000Y-95800000D03*
X141709999Y-88541001D03*
X139475000Y-94360934D03*
X150805000Y-94305000D03*
X145034000Y-91058000D03*
X144000000Y-105000000D03*
X149251057Y-93601000D03*
X142000000Y-99000000D03*
X142620265Y-91479735D03*
X139500000Y-93250000D03*
X153950000Y-98300000D03*
X155689064Y-83000000D03*
X157500000Y-82000000D03*
X148000000Y-88000000D03*
X149500000Y-82000000D03*
X136000000Y-81500000D03*
X145500000Y-75000000D03*
X148500000Y-82000000D03*
X145450000Y-80039949D03*
X151500000Y-82000000D03*
X150500000Y-82000000D03*
X150976072Y-79500000D03*
X140500000Y-79000000D03*
X143000000Y-75399000D03*
X143000000Y-82500000D03*
X152000000Y-79500000D03*
X139446000Y-84582000D03*
X143764000Y-83566000D03*
X143764000Y-85344000D03*
X163500000Y-76000000D03*
X162000000Y-85500000D03*
X138516480Y-82000000D03*
X140500000Y-84000000D03*
X138430000Y-76102000D03*
X143000000Y-77000000D03*
D15*
X143601000Y-76399000D02*
X143000000Y-77000000D01*
X138430000Y-76102000D02*
X140532000Y-74000000D01*
X142450943Y-74000000D02*
X143601000Y-75150057D01*
X140532000Y-74000000D02*
X142450943Y-74000000D01*
X143601000Y-75150057D02*
X143601000Y-76399000D01*
X146000000Y-77000000D02*
X154000000Y-77000000D01*
X136050000Y-91600000D02*
X136750000Y-90900000D01*
X132969000Y-86487000D02*
X135013000Y-86487000D01*
X136750000Y-90900000D02*
X136750000Y-86839000D01*
X136750000Y-86839000D02*
X136455500Y-86544500D01*
X136455500Y-86544500D02*
X146000000Y-77000000D01*
X145500000Y-76000000D02*
X155000000Y-76000000D01*
X135013000Y-86487000D02*
X145500000Y-76000000D01*
X148601000Y-88248943D02*
X148248943Y-88601000D01*
D16*
X158687500Y-99500000D02*
X155000000Y-95812500D01*
D15*
X145250000Y-88100000D02*
X145250000Y-85500000D01*
X148601000Y-88000000D02*
X148601000Y-88248943D01*
D16*
X154200000Y-72700000D02*
X146800000Y-72700000D01*
D15*
X152400000Y-86749999D02*
X152400000Y-85500000D01*
X148248943Y-88601000D02*
X145751000Y-88601000D01*
X148601000Y-88000000D02*
X149500000Y-88000000D01*
X151892000Y-88308000D02*
X151892000Y-87257999D01*
X151892000Y-87257999D02*
X152400000Y-86749999D01*
D16*
X161500000Y-99500000D02*
X158687500Y-99500000D01*
X158500000Y-78500000D02*
X156000000Y-76000000D01*
X156000000Y-74500000D02*
X154200000Y-72700000D01*
D15*
X147850000Y-85500000D02*
X148601000Y-86251000D01*
X145751000Y-88601000D02*
X145250000Y-88100000D01*
X148601000Y-86251000D02*
X148601000Y-88000000D01*
D16*
X155000000Y-95812500D02*
X155000000Y-95800000D01*
D15*
X151600000Y-88600000D02*
X151892000Y-88308000D01*
D16*
X156000000Y-76000000D02*
X156000000Y-74500000D01*
D15*
X143959499Y-90790501D02*
X144226998Y-91058000D01*
X138899000Y-93784934D02*
X138899000Y-92851000D01*
X139475000Y-94360934D02*
X138899000Y-93784934D01*
X144226998Y-91058000D02*
X145034000Y-91058000D01*
X149500000Y-93000000D02*
X146976000Y-93000000D01*
X141709999Y-88541001D02*
X143959499Y-90790501D01*
X150805000Y-94305000D02*
X149500000Y-93000000D01*
X146976000Y-93000000D02*
X145034000Y-91058000D01*
X140959499Y-90790501D02*
X143959499Y-90790501D01*
X138899000Y-92851000D02*
X140959499Y-90790501D01*
X153650057Y-98000000D02*
X153650057Y-98000057D01*
X142640530Y-91500000D02*
X144078000Y-91500000D01*
X142620265Y-91479735D02*
X142600000Y-91500000D01*
X149251057Y-93601000D02*
X153650057Y-98000000D01*
X147250000Y-105000000D02*
X153950000Y-98300000D01*
X141250000Y-91500000D02*
X139500000Y-93250000D01*
X153650057Y-98000057D02*
X153950000Y-98300000D01*
X146179000Y-93601000D02*
X149251057Y-93601000D01*
X142600000Y-91500000D02*
X141250000Y-91500000D01*
X142620265Y-91479735D02*
X142640530Y-91500000D01*
X142000000Y-99000000D02*
X142000000Y-95750000D01*
X144000000Y-105000000D02*
X147250000Y-105000000D01*
X142000000Y-95750000D02*
X139500000Y-93250000D01*
X144078000Y-91500000D02*
X146179000Y-93601000D01*
X157500000Y-82000000D02*
X156500000Y-83000000D01*
X147200000Y-87200000D02*
X148000000Y-88000000D01*
X156500000Y-83000000D02*
X155689064Y-83000000D01*
X147200000Y-85500000D02*
X147200000Y-87200000D01*
X146550000Y-85500000D02*
X147200000Y-85500000D01*
X150569819Y-78097000D02*
X149500000Y-79166819D01*
X149500000Y-79166819D02*
X149500000Y-82000000D01*
X153581143Y-78097000D02*
X150569819Y-78097000D01*
X154403000Y-85447000D02*
X154403000Y-78918857D01*
X154403000Y-78918857D02*
X153581143Y-78097000D01*
X154350000Y-85500000D02*
X154403000Y-85447000D01*
X137751057Y-73399000D02*
X136000000Y-75150057D01*
X136000000Y-75150057D02*
X136000000Y-81500000D01*
X143899000Y-73399000D02*
X137751057Y-73399000D01*
X145500000Y-75000000D02*
X143899000Y-73399000D01*
X149800000Y-85500000D02*
X149800000Y-83300000D01*
X149800000Y-83300000D02*
X148500000Y-82000000D01*
X147804000Y-77696000D02*
X145460051Y-80039949D01*
X153747243Y-77696000D02*
X147804000Y-77696000D01*
X155000000Y-78948757D02*
X153747243Y-77696000D01*
X155000000Y-85500000D02*
X155000000Y-78948757D01*
X145460051Y-80039949D02*
X145450000Y-80039949D01*
X150450000Y-85500000D02*
X150450000Y-83050000D01*
X150450000Y-83050000D02*
X151500000Y-82000000D01*
X153415043Y-78498000D02*
X150735919Y-78498000D01*
X153700000Y-84084201D02*
X154002000Y-83782201D01*
X150000000Y-79233919D02*
X150000000Y-81500000D01*
X154002000Y-83782201D02*
X154002000Y-79084957D01*
X150000000Y-81500000D02*
X150500000Y-82000000D01*
X154002000Y-79084957D02*
X153415043Y-78498000D01*
X153700000Y-85500000D02*
X153700000Y-84084201D01*
X150735919Y-78498000D02*
X150000000Y-79233919D01*
X153601000Y-79251057D02*
X153601000Y-83616101D01*
X153601000Y-83616101D02*
X153050000Y-84167101D01*
X151184862Y-78899000D02*
X153248943Y-78899000D01*
X153050000Y-84167101D02*
X153050000Y-85500000D01*
X150976072Y-79107790D02*
X151184862Y-78899000D01*
X153248943Y-78899000D02*
X153601000Y-79251057D01*
X150976072Y-79500000D02*
X150976072Y-79107790D01*
X147399999Y-82500000D02*
X149150000Y-84250001D01*
X143000000Y-82500000D02*
X147399999Y-82500000D01*
X149150000Y-84250001D02*
X149150000Y-85500000D01*
X140500000Y-77899000D02*
X143000000Y-75399000D01*
X140500000Y-79000000D02*
X140500000Y-77899000D01*
X152101000Y-83249001D02*
X151100000Y-84250001D01*
X152000000Y-79500000D02*
X152101000Y-79601000D01*
X152101000Y-79601000D02*
X152101000Y-83249001D01*
X151100000Y-84250001D02*
X151100000Y-85500000D01*
X140251057Y-83399000D02*
X143597000Y-83399000D01*
X143597000Y-83399000D02*
X143764000Y-83566000D01*
X139446000Y-84204057D02*
X140251057Y-83399000D01*
X139446000Y-84582000D02*
X139446000Y-84204057D01*
X143764000Y-85344000D02*
X144526000Y-84582000D01*
X144526000Y-83820000D02*
X145371848Y-83820000D01*
X144526000Y-84582000D02*
X144526000Y-83820000D01*
X145900000Y-84348152D02*
X145900000Y-85500000D01*
X145371848Y-83820000D02*
X145900000Y-84348152D01*
X163500000Y-76000000D02*
X163500000Y-84000000D01*
X163500000Y-84000000D02*
X162000000Y-85500000D01*
X144502000Y-89002000D02*
X149399848Y-89002000D01*
X138516480Y-81983520D02*
X143000000Y-77500000D01*
X140500000Y-84000000D02*
X140500000Y-85000000D01*
X140500000Y-85000000D02*
X144502000Y-89002000D01*
X138516480Y-82000000D02*
X138516480Y-81983520D01*
X143000000Y-77500000D02*
X143000000Y-77000000D01*
X149399848Y-89002000D02*
X151750000Y-86651848D01*
X151750000Y-86651848D02*
X151750000Y-85500000D01*
%TA.AperFunction,NonConductor*%
G36*
X150603174Y-67888907D02*
G01*
X150605708Y-67888959D01*
X150977583Y-67900568D01*
X150980022Y-67900671D01*
X151351459Y-67920008D01*
X151354029Y-67920169D01*
X151373138Y-67921562D01*
X151725043Y-67947233D01*
X151727453Y-67947434D01*
X152097895Y-67982218D01*
X152100308Y-67982470D01*
X152469835Y-68024940D01*
X152472344Y-68025254D01*
X152840972Y-68075412D01*
X152843456Y-68075776D01*
X153210901Y-68133583D01*
X153213337Y-68133992D01*
X153579506Y-68199430D01*
X153582014Y-68199905D01*
X153946751Y-68272949D01*
X153949226Y-68273471D01*
X154312325Y-68354078D01*
X154314745Y-68354641D01*
X154676178Y-68442807D01*
X154678641Y-68443436D01*
X154911196Y-68505317D01*
X155038017Y-68539063D01*
X155040503Y-68539752D01*
X155046180Y-68541389D01*
X155397912Y-68642863D01*
X155400232Y-68643559D01*
X155755454Y-68754094D01*
X155757852Y-68754867D01*
X156012216Y-68839862D01*
X156110640Y-68872750D01*
X156113077Y-68873592D01*
X156463324Y-68998784D01*
X156465661Y-68999647D01*
X156595511Y-69049131D01*
X156813200Y-69132089D01*
X156815600Y-69133032D01*
X156891590Y-69163815D01*
X157160389Y-69272706D01*
X157162639Y-69273645D01*
X157504430Y-69420455D01*
X157506736Y-69421474D01*
X157745505Y-69529971D01*
X157798393Y-69575624D01*
X157818205Y-69642626D01*
X157798647Y-69709703D01*
X157767090Y-69743179D01*
X157620214Y-69849890D01*
X157620209Y-69849894D01*
X157469890Y-70000213D01*
X157344951Y-70172179D01*
X157248444Y-70361585D01*
X157182753Y-70563760D01*
X157149500Y-70773713D01*
X157149500Y-70986286D01*
X157181634Y-71189177D01*
X157182754Y-71196243D01*
X157209585Y-71278821D01*
X157248444Y-71398414D01*
X157344951Y-71587820D01*
X157469890Y-71759786D01*
X157620213Y-71910109D01*
X157792182Y-72035050D01*
X157800946Y-72039516D01*
X157851742Y-72087491D01*
X157868536Y-72155312D01*
X157845998Y-72221447D01*
X157800946Y-72260484D01*
X157792182Y-72264949D01*
X157620213Y-72389890D01*
X157469890Y-72540213D01*
X157344951Y-72712179D01*
X157248444Y-72901585D01*
X157182753Y-73103760D01*
X157165881Y-73210288D01*
X157149500Y-73313713D01*
X157149500Y-73526287D01*
X157182754Y-73736243D01*
X157192936Y-73767581D01*
X157248444Y-73938414D01*
X157344951Y-74127820D01*
X157469890Y-74299786D01*
X157620213Y-74450109D01*
X157792182Y-74575050D01*
X157800946Y-74579516D01*
X157851742Y-74627491D01*
X157868536Y-74695312D01*
X157845998Y-74761447D01*
X157800946Y-74800484D01*
X157792182Y-74804949D01*
X157620213Y-74929890D01*
X157469890Y-75080213D01*
X157344951Y-75252179D01*
X157248444Y-75441585D01*
X157182753Y-75643760D01*
X157149500Y-75853713D01*
X157149500Y-75859481D01*
X157129815Y-75926520D01*
X157077011Y-75972275D01*
X157007853Y-75982219D01*
X156944297Y-75953194D01*
X156937819Y-75947162D01*
X156736819Y-75746162D01*
X156703334Y-75684839D01*
X156700500Y-75658481D01*
X156700500Y-74431004D01*
X156673581Y-74295677D01*
X156673580Y-74295676D01*
X156673580Y-74295672D01*
X156655941Y-74253088D01*
X156620778Y-74168195D01*
X156620771Y-74168182D01*
X156544115Y-74053459D01*
X156509841Y-74019185D01*
X156446542Y-73955886D01*
X156016942Y-73526286D01*
X154646546Y-72155888D01*
X154646545Y-72155887D01*
X154531807Y-72079222D01*
X154404332Y-72026421D01*
X154404322Y-72026418D01*
X154268996Y-71999500D01*
X154268994Y-71999500D01*
X154268993Y-71999500D01*
X147225316Y-71999500D01*
X147177864Y-71990061D01*
X147033501Y-71930264D01*
X147033489Y-71930261D01*
X146878845Y-71899500D01*
X146878842Y-71899500D01*
X146721158Y-71899500D01*
X146721155Y-71899500D01*
X146566510Y-71930261D01*
X146566498Y-71930264D01*
X146420827Y-71990602D01*
X146420814Y-71990609D01*
X146289711Y-72078210D01*
X146289707Y-72078213D01*
X146178213Y-72189707D01*
X146178210Y-72189711D01*
X146090609Y-72320814D01*
X146090602Y-72320827D01*
X146030264Y-72466498D01*
X146030261Y-72466510D01*
X145999500Y-72621153D01*
X145999500Y-72778846D01*
X146030261Y-72933489D01*
X146030264Y-72933501D01*
X146090602Y-73079172D01*
X146090609Y-73079185D01*
X146178210Y-73210288D01*
X146178213Y-73210292D01*
X146289707Y-73321786D01*
X146289711Y-73321789D01*
X146420814Y-73409390D01*
X146420827Y-73409397D01*
X146566498Y-73469735D01*
X146566503Y-73469737D01*
X146721153Y-73500499D01*
X146721156Y-73500500D01*
X146721158Y-73500500D01*
X146878844Y-73500500D01*
X146878845Y-73500499D01*
X147033497Y-73469737D01*
X147122099Y-73433037D01*
X147177864Y-73409939D01*
X147225316Y-73400500D01*
X153858481Y-73400500D01*
X153925520Y-73420185D01*
X153946162Y-73436819D01*
X155263181Y-74753837D01*
X155296666Y-74815160D01*
X155299500Y-74841518D01*
X155299500Y-75092297D01*
X155279815Y-75159336D01*
X155227011Y-75205091D01*
X155157853Y-75215035D01*
X155151309Y-75213914D01*
X155078845Y-75199500D01*
X155078842Y-75199500D01*
X154921158Y-75199500D01*
X154921155Y-75199500D01*
X154766510Y-75230261D01*
X154766498Y-75230264D01*
X154620827Y-75290602D01*
X154620814Y-75290609D01*
X154489125Y-75378602D01*
X154422447Y-75399480D01*
X154420234Y-75399500D01*
X146386555Y-75399500D01*
X146319516Y-75379815D01*
X146273761Y-75327011D01*
X146263817Y-75257853D01*
X146268840Y-75239588D01*
X146267969Y-75239324D01*
X146269731Y-75233509D01*
X146269737Y-75233497D01*
X146300500Y-75078842D01*
X146300500Y-74921158D01*
X146300500Y-74921155D01*
X146300499Y-74921153D01*
X146292413Y-74880503D01*
X146269737Y-74766503D01*
X146231483Y-74674149D01*
X146209397Y-74620827D01*
X146209390Y-74620814D01*
X146121789Y-74489711D01*
X146121786Y-74489707D01*
X146010292Y-74378213D01*
X146010288Y-74378210D01*
X145879185Y-74290609D01*
X145879172Y-74290602D01*
X145733501Y-74230264D01*
X145733491Y-74230261D01*
X145578149Y-74199361D01*
X145516238Y-74166976D01*
X145514660Y-74165425D01*
X144386590Y-73037355D01*
X144386588Y-73037352D01*
X144267717Y-72918481D01*
X144267716Y-72918480D01*
X144180904Y-72868360D01*
X144180904Y-72868359D01*
X144180900Y-72868358D01*
X144130785Y-72839423D01*
X143978057Y-72798499D01*
X143819943Y-72798499D01*
X143812347Y-72798499D01*
X143812331Y-72798500D01*
X138188470Y-72798500D01*
X138164529Y-72791470D01*
X138139747Y-72788527D01*
X138131581Y-72781795D01*
X138121431Y-72778815D01*
X138105093Y-72759960D01*
X138085834Y-72744084D01*
X138082603Y-72734005D01*
X138075676Y-72726011D01*
X138072125Y-72701315D01*
X138064507Y-72677549D01*
X138067237Y-72667325D01*
X138065732Y-72656853D01*
X138076098Y-72634154D01*
X138082538Y-72610045D01*
X138092785Y-72597614D01*
X138094757Y-72593297D01*
X138104988Y-72582812D01*
X138249795Y-72450964D01*
X138251706Y-72449261D01*
X138531931Y-72204582D01*
X138533748Y-72203028D01*
X138819076Y-71964171D01*
X138820968Y-71962622D01*
X139111109Y-71729828D01*
X139113045Y-71728307D01*
X139408016Y-71501561D01*
X139409995Y-71500074D01*
X139709564Y-71279553D01*
X139711535Y-71278133D01*
X140015712Y-71063834D01*
X140017733Y-71062443D01*
X140326186Y-70854596D01*
X140328340Y-70853177D01*
X140328360Y-70853164D01*
X140641092Y-70651764D01*
X140643134Y-70650479D01*
X140960050Y-70455591D01*
X140962211Y-70454293D01*
X141283016Y-70266098D01*
X141285167Y-70264866D01*
X141609927Y-70083324D01*
X141612103Y-70082138D01*
X141940537Y-69907408D01*
X141942663Y-69906305D01*
X142274673Y-69738440D01*
X142276915Y-69737336D01*
X142612354Y-69576410D01*
X142614563Y-69575378D01*
X142953258Y-69421476D01*
X142955572Y-69420453D01*
X143297369Y-69273640D01*
X143299634Y-69272695D01*
X143644417Y-69133023D01*
X143646755Y-69132105D01*
X143646797Y-69132089D01*
X143994349Y-68999643D01*
X143996604Y-68998810D01*
X144347034Y-68873551D01*
X144349301Y-68872768D01*
X144702185Y-68754854D01*
X144704528Y-68754098D01*
X145059800Y-68643548D01*
X145062094Y-68642860D01*
X145419494Y-68539753D01*
X145421956Y-68539070D01*
X145781379Y-68443429D01*
X145783796Y-68442813D01*
X146145274Y-68354636D01*
X146147653Y-68354082D01*
X146510765Y-68273472D01*
X146513240Y-68272950D01*
X146878003Y-68199901D01*
X146880476Y-68199432D01*
X147246661Y-68133991D01*
X147249114Y-68133579D01*
X147616553Y-68075775D01*
X147618990Y-68075417D01*
X147987677Y-68025251D01*
X147990139Y-68024943D01*
X148359641Y-67982476D01*
X148362135Y-67982215D01*
X148732522Y-67947436D01*
X148734989Y-67947231D01*
X149105971Y-67920168D01*
X149108533Y-67920008D01*
X149479981Y-67900670D01*
X149482412Y-67900568D01*
X149854292Y-67888959D01*
X149856822Y-67888907D01*
X150228750Y-67885040D01*
X150231250Y-67885040D01*
X150603174Y-67888907D01*
G37*
%TD.AperFunction*%
%TA.AperFunction,NonConductor*%
G36*
X144189279Y-74578557D02*
G01*
X144196144Y-74577747D01*
X144221731Y-74590222D01*
X144248524Y-74599853D01*
X144257836Y-74607825D01*
X144258946Y-74608367D01*
X144260087Y-74609753D01*
X144263084Y-74612319D01*
X144665425Y-75014660D01*
X144698910Y-75075983D01*
X144699361Y-75078149D01*
X144730261Y-75233491D01*
X144730264Y-75233501D01*
X144790602Y-75379172D01*
X144790609Y-75379185D01*
X144878210Y-75510288D01*
X144878213Y-75510292D01*
X144921660Y-75553738D01*
X144955146Y-75615061D01*
X144950162Y-75684752D01*
X144921661Y-75729101D01*
X144413181Y-76237582D01*
X144351858Y-76271067D01*
X144282167Y-76266083D01*
X144226233Y-76224212D01*
X144201816Y-76158747D01*
X144201500Y-76149901D01*
X144201500Y-75071002D01*
X144201498Y-75070993D01*
X144196617Y-75052774D01*
X144160577Y-74918272D01*
X144115053Y-74839423D01*
X144081520Y-74781341D01*
X144076959Y-74776780D01*
X144069428Y-74764384D01*
X144062100Y-74736878D01*
X144051833Y-74710321D01*
X144053222Y-74703547D01*
X144051443Y-74696869D01*
X144060150Y-74669766D01*
X144065870Y-74641876D01*
X144070699Y-74636929D01*
X144072814Y-74630348D01*
X144094791Y-74612255D01*
X144114682Y-74591884D01*
X144121419Y-74590333D01*
X144126756Y-74585941D01*
X144155024Y-74582602D01*
X144182773Y-74576219D01*
X144189279Y-74578557D01*
G37*
%TD.AperFunction*%
%TA.AperFunction,NonConductor*%
G36*
X142166927Y-77183820D02*
G01*
X142222861Y-77225692D01*
X142238153Y-77252546D01*
X142253329Y-77289185D01*
X142260797Y-77358652D01*
X142229521Y-77421131D01*
X142226448Y-77424315D01*
X141312181Y-78338582D01*
X141292744Y-78349194D01*
X141276011Y-78363695D01*
X141262679Y-78365611D01*
X141250858Y-78372067D01*
X141228771Y-78370487D01*
X141206853Y-78373639D01*
X141194601Y-78368043D01*
X141181166Y-78367083D01*
X141163439Y-78353812D01*
X141143297Y-78344614D01*
X141136014Y-78333282D01*
X141125233Y-78325211D01*
X141117495Y-78304465D01*
X141105523Y-78285836D01*
X141102371Y-78263917D01*
X141100816Y-78259747D01*
X141100500Y-78250901D01*
X141100500Y-78199097D01*
X141120185Y-78132058D01*
X141136819Y-78111416D01*
X141582018Y-77666217D01*
X142035915Y-77212319D01*
X142097236Y-77178836D01*
X142166927Y-77183820D01*
G37*
%TD.AperFunction*%
%TA.AperFunction,NonConductor*%
G36*
X151460996Y-80244054D02*
G01*
X151496648Y-80304143D01*
X151500500Y-80334809D01*
X151500500Y-81081953D01*
X151480815Y-81148992D01*
X151428011Y-81194747D01*
X151400692Y-81203570D01*
X151266508Y-81230261D01*
X151266498Y-81230264D01*
X151120827Y-81290602D01*
X151120814Y-81290609D01*
X151068891Y-81325304D01*
X151002214Y-81346182D01*
X150934833Y-81327698D01*
X150931109Y-81325304D01*
X150879185Y-81290609D01*
X150879172Y-81290602D01*
X150733501Y-81230264D01*
X150733489Y-81230261D01*
X150700309Y-81223661D01*
X150638398Y-81191276D01*
X150603824Y-81130561D01*
X150600500Y-81102044D01*
X150600500Y-80392571D01*
X150620185Y-80325532D01*
X150672989Y-80279777D01*
X150742147Y-80269833D01*
X150748692Y-80270954D01*
X150897227Y-80300500D01*
X150897230Y-80300500D01*
X151054916Y-80300500D01*
X151054917Y-80300499D01*
X151209569Y-80269737D01*
X151271574Y-80244054D01*
X151329048Y-80220248D01*
X151398517Y-80212779D01*
X151460996Y-80244054D01*
G37*
%TD.AperFunction*%
%TA.AperFunction,NonConductor*%
G36*
X146817942Y-77620185D02*
G01*
X146863697Y-77672989D01*
X146873641Y-77742147D01*
X146844616Y-77805703D01*
X146838584Y-77812181D01*
X145447076Y-79203688D01*
X145385753Y-79237173D01*
X145371555Y-79239409D01*
X145371159Y-79239447D01*
X145216510Y-79270210D01*
X145216498Y-79270213D01*
X145070827Y-79330551D01*
X145070814Y-79330558D01*
X144939711Y-79418159D01*
X144939707Y-79418162D01*
X144828213Y-79529656D01*
X144828210Y-79529660D01*
X144740609Y-79660763D01*
X144740602Y-79660776D01*
X144680264Y-79806447D01*
X144680261Y-79806459D01*
X144649500Y-79961102D01*
X144649500Y-80118795D01*
X144680261Y-80273438D01*
X144680264Y-80273450D01*
X144740602Y-80419121D01*
X144740609Y-80419134D01*
X144828210Y-80550237D01*
X144828213Y-80550241D01*
X144939707Y-80661735D01*
X144939711Y-80661738D01*
X145070814Y-80749339D01*
X145070827Y-80749346D01*
X145216498Y-80809684D01*
X145216503Y-80809686D01*
X145371153Y-80840448D01*
X145371156Y-80840449D01*
X145371158Y-80840449D01*
X145528844Y-80840449D01*
X145528845Y-80840448D01*
X145683497Y-80809686D01*
X145829179Y-80749343D01*
X145960289Y-80661738D01*
X146071789Y-80550238D01*
X146159394Y-80419128D01*
X146219737Y-80273446D01*
X146248142Y-80130646D01*
X146280527Y-80068735D01*
X146282022Y-80067212D01*
X148016416Y-78332819D01*
X148077739Y-78299334D01*
X148104097Y-78296500D01*
X149221721Y-78296500D01*
X149288760Y-78316185D01*
X149334515Y-78368989D01*
X149344459Y-78438147D01*
X149315434Y-78501703D01*
X149309402Y-78508181D01*
X149019481Y-78798101D01*
X149019479Y-78798104D01*
X149004424Y-78824181D01*
X148989368Y-78850259D01*
X148940423Y-78935034D01*
X148899499Y-79087762D01*
X148899499Y-79087764D01*
X148899499Y-79255865D01*
X148899500Y-79255878D01*
X148899500Y-81113444D01*
X148879815Y-81180483D01*
X148827011Y-81226238D01*
X148757853Y-81236182D01*
X148739575Y-81231202D01*
X148739324Y-81232031D01*
X148733500Y-81230264D01*
X148733497Y-81230263D01*
X148733492Y-81230262D01*
X148733489Y-81230261D01*
X148578845Y-81199500D01*
X148578842Y-81199500D01*
X148421158Y-81199500D01*
X148421155Y-81199500D01*
X148266510Y-81230261D01*
X148266498Y-81230264D01*
X148120827Y-81290602D01*
X148120814Y-81290609D01*
X147989711Y-81378210D01*
X147989707Y-81378213D01*
X147878213Y-81489707D01*
X147878210Y-81489711D01*
X147790609Y-81620814D01*
X147790602Y-81620827D01*
X147730264Y-81766498D01*
X147730261Y-81766507D01*
X147718263Y-81826826D01*
X147685877Y-81888736D01*
X147625161Y-81923310D01*
X147564553Y-81922408D01*
X147526083Y-81912100D01*
X147479056Y-81899499D01*
X147320942Y-81899499D01*
X147313346Y-81899499D01*
X147313330Y-81899500D01*
X143579766Y-81899500D01*
X143512727Y-81879815D01*
X143510875Y-81878602D01*
X143379185Y-81790609D01*
X143379172Y-81790602D01*
X143233501Y-81730264D01*
X143233489Y-81730261D01*
X143078845Y-81699500D01*
X143078842Y-81699500D01*
X142921158Y-81699500D01*
X142921155Y-81699500D01*
X142766510Y-81730261D01*
X142766498Y-81730264D01*
X142620827Y-81790602D01*
X142620814Y-81790609D01*
X142489711Y-81878210D01*
X142489707Y-81878213D01*
X142378213Y-81989707D01*
X142378210Y-81989711D01*
X142290609Y-82120814D01*
X142290602Y-82120827D01*
X142230264Y-82266498D01*
X142230261Y-82266510D01*
X142199500Y-82421153D01*
X142199500Y-82578846D01*
X142213715Y-82650309D01*
X142207488Y-82719900D01*
X142164625Y-82775078D01*
X142098735Y-82798322D01*
X142092098Y-82798500D01*
X141350097Y-82798500D01*
X141283058Y-82778815D01*
X141237303Y-82726011D01*
X141227359Y-82656853D01*
X141256384Y-82593297D01*
X141262416Y-82586819D01*
X146212416Y-77636819D01*
X146273739Y-77603334D01*
X146300097Y-77600500D01*
X146750903Y-77600500D01*
X146817942Y-77620185D01*
G37*
%TD.AperFunction*%
%TA.AperFunction,NonConductor*%
G36*
X152939773Y-79693133D02*
G01*
X152987384Y-79744270D01*
X153000500Y-79799775D01*
X153000500Y-83316002D01*
X152980815Y-83383041D01*
X152964181Y-83403683D01*
X152904902Y-83462962D01*
X152843579Y-83496447D01*
X152773887Y-83491463D01*
X152717954Y-83449591D01*
X152693537Y-83384127D01*
X152693315Y-83370464D01*
X152693854Y-83356595D01*
X152701501Y-83328058D01*
X152701501Y-83169943D01*
X152701500Y-83169939D01*
X152701500Y-79922902D01*
X152710939Y-79875450D01*
X152761939Y-79752323D01*
X152805779Y-79697919D01*
X152872073Y-79675854D01*
X152939773Y-79693133D01*
G37*
%TD.AperFunction*%
%TA.AperFunction,NonConductor*%
G36*
X147166941Y-83120185D02*
G01*
X147187583Y-83136819D01*
X147623722Y-83572958D01*
X147639443Y-83601749D01*
X147656190Y-83629976D01*
X147656108Y-83632268D01*
X147657207Y-83634281D01*
X147654865Y-83667016D01*
X147653694Y-83699801D01*
X147652386Y-83701683D01*
X147652223Y-83703973D01*
X147632559Y-83730239D01*
X147613845Y-83757193D01*
X147611213Y-83758754D01*
X147610351Y-83759906D01*
X147583491Y-83775201D01*
X147572450Y-83779774D01*
X147502980Y-83787241D01*
X147477549Y-83779774D01*
X147460759Y-83772820D01*
X147440999Y-83764635D01*
X147426629Y-83762743D01*
X147326047Y-83749500D01*
X147326040Y-83749500D01*
X147073960Y-83749500D01*
X147073952Y-83749500D01*
X146971774Y-83762953D01*
X146959001Y-83764635D01*
X146959000Y-83764635D01*
X146922451Y-83779774D01*
X146852981Y-83787241D01*
X146827549Y-83779774D01*
X146810759Y-83772820D01*
X146790999Y-83764635D01*
X146776629Y-83762743D01*
X146676047Y-83749500D01*
X146676040Y-83749500D01*
X146423960Y-83749500D01*
X146423952Y-83749500D01*
X146321774Y-83762953D01*
X146309001Y-83764635D01*
X146309000Y-83764635D01*
X146308997Y-83764636D01*
X146284229Y-83774895D01*
X146214759Y-83782362D01*
X146152281Y-83751086D01*
X146149098Y-83748014D01*
X145740565Y-83339481D01*
X145740560Y-83339477D01*
X145727413Y-83331887D01*
X145679198Y-83281321D01*
X145665974Y-83212714D01*
X145691942Y-83147849D01*
X145748856Y-83107320D01*
X145789413Y-83100500D01*
X147099902Y-83100500D01*
X147166941Y-83120185D01*
G37*
%TD.AperFunction*%
%TA.AperFunction,NonConductor*%
G36*
X139450942Y-74019185D02*
G01*
X139496697Y-74071989D01*
X139506641Y-74141147D01*
X139477616Y-74204703D01*
X139471584Y-74211181D01*
X138415339Y-75267425D01*
X138354016Y-75300910D01*
X138351850Y-75301361D01*
X138196508Y-75332261D01*
X138196498Y-75332264D01*
X138050827Y-75392602D01*
X138050814Y-75392609D01*
X137919711Y-75480210D01*
X137919707Y-75480213D01*
X137808213Y-75591707D01*
X137808210Y-75591711D01*
X137720609Y-75722814D01*
X137720602Y-75722827D01*
X137660264Y-75868498D01*
X137660261Y-75868510D01*
X137629500Y-76023153D01*
X137629500Y-76180846D01*
X137660261Y-76335489D01*
X137660264Y-76335501D01*
X137720602Y-76481172D01*
X137720609Y-76481185D01*
X137808210Y-76612288D01*
X137808213Y-76612292D01*
X137919707Y-76723786D01*
X137919711Y-76723789D01*
X138050814Y-76811390D01*
X138050827Y-76811397D01*
X138119380Y-76839792D01*
X138196503Y-76871737D01*
X138351153Y-76902499D01*
X138351156Y-76902500D01*
X138351158Y-76902500D01*
X138508844Y-76902500D01*
X138508845Y-76902499D01*
X138663497Y-76871737D01*
X138809179Y-76811394D01*
X138940289Y-76723789D01*
X139051789Y-76612289D01*
X139139394Y-76481179D01*
X139199737Y-76335497D01*
X139221873Y-76224212D01*
X139230638Y-76180150D01*
X139263023Y-76118239D01*
X139264518Y-76116716D01*
X140744416Y-74636819D01*
X140805739Y-74603334D01*
X140832097Y-74600500D01*
X142150846Y-74600500D01*
X142180286Y-74609144D01*
X142210273Y-74615668D01*
X142215288Y-74619422D01*
X142217885Y-74620185D01*
X142238527Y-74636819D01*
X142351196Y-74749488D01*
X142384681Y-74810811D01*
X142379697Y-74880503D01*
X142366618Y-74906059D01*
X142290608Y-75019816D01*
X142290602Y-75019827D01*
X142230264Y-75165498D01*
X142230261Y-75165508D01*
X142199361Y-75320850D01*
X142166976Y-75382761D01*
X142165425Y-75384339D01*
X140019481Y-77530282D01*
X140019480Y-77530284D01*
X139978941Y-77600500D01*
X139940423Y-77667215D01*
X139899499Y-77819943D01*
X139899499Y-77819945D01*
X139899499Y-77988046D01*
X139899500Y-77988059D01*
X139899500Y-78420234D01*
X139879815Y-78487273D01*
X139878602Y-78489125D01*
X139790609Y-78620814D01*
X139790602Y-78620827D01*
X139730264Y-78766498D01*
X139730261Y-78766510D01*
X139699500Y-78921153D01*
X139699500Y-79078846D01*
X139730261Y-79233489D01*
X139730264Y-79233501D01*
X139790602Y-79379172D01*
X139790609Y-79379185D01*
X139878210Y-79510288D01*
X139878213Y-79510292D01*
X139921661Y-79553740D01*
X139955146Y-79615063D01*
X139950162Y-79684755D01*
X139921661Y-79729102D01*
X138481247Y-81169517D01*
X138419924Y-81203002D01*
X138417758Y-81203453D01*
X138282988Y-81230261D01*
X138282978Y-81230264D01*
X138137307Y-81290602D01*
X138137294Y-81290609D01*
X138006191Y-81378210D01*
X138006187Y-81378213D01*
X137894693Y-81489707D01*
X137894690Y-81489711D01*
X137807089Y-81620814D01*
X137807082Y-81620827D01*
X137746744Y-81766498D01*
X137746741Y-81766510D01*
X137715980Y-81921153D01*
X137715980Y-82078846D01*
X137746741Y-82233489D01*
X137746744Y-82233501D01*
X137807082Y-82379172D01*
X137807089Y-82379185D01*
X137894690Y-82510288D01*
X137894693Y-82510292D01*
X137929901Y-82545500D01*
X137963386Y-82606823D01*
X137958402Y-82676515D01*
X137929901Y-82720862D01*
X134800584Y-85850181D01*
X134739261Y-85883666D01*
X134712903Y-85886500D01*
X133548766Y-85886500D01*
X133481727Y-85866815D01*
X133479875Y-85865602D01*
X133348185Y-85777609D01*
X133348172Y-85777602D01*
X133202501Y-85717264D01*
X133202489Y-85717261D01*
X133047845Y-85686500D01*
X133047842Y-85686500D01*
X132890158Y-85686500D01*
X132890155Y-85686500D01*
X132735510Y-85717261D01*
X132735498Y-85717264D01*
X132589827Y-85777602D01*
X132589814Y-85777609D01*
X132458711Y-85865210D01*
X132458707Y-85865213D01*
X132442682Y-85881239D01*
X132423245Y-85891851D01*
X132406512Y-85906352D01*
X132393180Y-85908268D01*
X132381359Y-85914724D01*
X132359272Y-85913144D01*
X132337354Y-85916296D01*
X132325102Y-85910700D01*
X132311667Y-85909740D01*
X132293940Y-85896469D01*
X132273798Y-85887271D01*
X132266515Y-85875939D01*
X132255734Y-85867868D01*
X132247996Y-85847122D01*
X132236024Y-85828493D01*
X132232872Y-85806574D01*
X132231317Y-85802404D01*
X132231001Y-85793558D01*
X132231001Y-85699036D01*
X132231028Y-85696457D01*
X132231217Y-85687361D01*
X132238764Y-85324625D01*
X132238840Y-85322173D01*
X132254316Y-84950429D01*
X132254450Y-84947870D01*
X132277647Y-84576690D01*
X132277828Y-84574215D01*
X132308755Y-84203450D01*
X132308979Y-84201062D01*
X132347619Y-83830965D01*
X132347911Y-83828435D01*
X132350010Y-83811706D01*
X132394216Y-83459420D01*
X132394545Y-83457009D01*
X132448543Y-83088862D01*
X132448911Y-83086521D01*
X132510545Y-82719639D01*
X132510994Y-82717125D01*
X132518688Y-82676515D01*
X132580253Y-82351578D01*
X132580740Y-82349151D01*
X132657566Y-81985232D01*
X132658116Y-81982758D01*
X132742515Y-81620440D01*
X132743093Y-81618072D01*
X132835008Y-81257598D01*
X132835640Y-81255222D01*
X132935033Y-80896738D01*
X132935738Y-80894298D01*
X132961104Y-80809687D01*
X133042567Y-80537961D01*
X133043277Y-80535681D01*
X133157508Y-80181610D01*
X133158302Y-80179234D01*
X133279847Y-79827694D01*
X133280703Y-79825301D01*
X133287660Y-79806459D01*
X133409562Y-79476292D01*
X133410426Y-79474027D01*
X133546509Y-79127798D01*
X133547413Y-79125565D01*
X133690690Y-78782194D01*
X133691693Y-78779861D01*
X133842055Y-78439607D01*
X133843009Y-78437506D01*
X134000476Y-78100325D01*
X134001534Y-78098119D01*
X134165946Y-77764360D01*
X134167070Y-77762139D01*
X134338346Y-77431955D01*
X134339518Y-77429755D01*
X134517681Y-77103105D01*
X134518809Y-77101086D01*
X134703776Y-76778134D01*
X134704999Y-76776052D01*
X134896581Y-76457120D01*
X134897810Y-76455121D01*
X135095989Y-76140238D01*
X135097343Y-76138136D01*
X135171952Y-76024889D01*
X135225272Y-75979737D01*
X135294539Y-75970579D01*
X135357761Y-76000324D01*
X135394866Y-76059527D01*
X135399500Y-76093109D01*
X135399500Y-80920234D01*
X135379815Y-80987273D01*
X135378602Y-80989125D01*
X135290609Y-81120814D01*
X135290602Y-81120827D01*
X135230264Y-81266498D01*
X135230261Y-81266510D01*
X135199500Y-81421153D01*
X135199500Y-81578846D01*
X135230261Y-81733489D01*
X135230264Y-81733501D01*
X135290602Y-81879172D01*
X135290609Y-81879185D01*
X135378210Y-82010288D01*
X135378213Y-82010292D01*
X135489707Y-82121786D01*
X135489711Y-82121789D01*
X135620814Y-82209390D01*
X135620827Y-82209397D01*
X135758683Y-82266498D01*
X135766503Y-82269737D01*
X135921153Y-82300499D01*
X135921156Y-82300500D01*
X135921158Y-82300500D01*
X136078844Y-82300500D01*
X136078845Y-82300499D01*
X136233497Y-82269737D01*
X136379179Y-82209394D01*
X136510289Y-82121789D01*
X136621789Y-82010289D01*
X136709394Y-81879179D01*
X136769737Y-81733497D01*
X136800500Y-81578842D01*
X136800500Y-81421158D01*
X136800500Y-81421155D01*
X136800499Y-81421153D01*
X136785586Y-81346182D01*
X136769737Y-81266503D01*
X136757178Y-81236182D01*
X136709397Y-81120827D01*
X136709390Y-81120814D01*
X136621398Y-80989125D01*
X136600520Y-80922447D01*
X136600500Y-80920234D01*
X136600500Y-75450154D01*
X136620185Y-75383115D01*
X136636819Y-75362473D01*
X137963474Y-74035819D01*
X138024797Y-74002334D01*
X138051155Y-73999500D01*
X139383903Y-73999500D01*
X139450942Y-74019185D01*
G37*
%TD.AperFunction*%
%TA.AperFunction,NonConductor*%
G36*
X146272450Y-87220224D02*
G01*
X146309001Y-87235365D01*
X146423960Y-87250500D01*
X146496699Y-87250500D01*
X146517998Y-87256754D01*
X146540143Y-87258359D01*
X146550873Y-87266407D01*
X146563738Y-87270185D01*
X146578273Y-87286960D01*
X146596037Y-87300284D01*
X146603948Y-87316590D01*
X146609493Y-87322989D01*
X146612922Y-87331277D01*
X146614959Y-87336756D01*
X146640423Y-87431785D01*
X146662974Y-87470844D01*
X146683695Y-87506734D01*
X146719479Y-87568714D01*
X146719481Y-87568717D01*
X146838349Y-87687585D01*
X146838355Y-87687590D01*
X146939584Y-87788819D01*
X146973069Y-87850142D01*
X146968085Y-87919834D01*
X146926213Y-87975767D01*
X146860749Y-88000184D01*
X146851903Y-88000500D01*
X146051097Y-88000500D01*
X145984058Y-87980815D01*
X145963416Y-87964181D01*
X145886819Y-87887584D01*
X145853334Y-87826261D01*
X145850500Y-87799903D01*
X145850500Y-87374500D01*
X145870185Y-87307461D01*
X145922989Y-87261706D01*
X145974500Y-87250500D01*
X146026033Y-87250500D01*
X146026040Y-87250500D01*
X146140999Y-87235365D01*
X146177547Y-87220225D01*
X146247016Y-87212757D01*
X146272450Y-87220224D01*
G37*
%TD.AperFunction*%
%TA.AperFunction,NonConductor*%
G36*
X143091662Y-84019185D02*
G01*
X143127724Y-84054608D01*
X143136453Y-84067672D01*
X143142212Y-84076291D01*
X143253707Y-84187786D01*
X143253711Y-84187789D01*
X143384814Y-84275390D01*
X143384827Y-84275397D01*
X143530503Y-84335737D01*
X143532493Y-84336341D01*
X143533407Y-84336940D01*
X143536130Y-84338068D01*
X143535916Y-84338584D01*
X143590930Y-84374641D01*
X143619384Y-84438454D01*
X143608821Y-84507521D01*
X143562595Y-84559912D01*
X143532493Y-84573659D01*
X143530503Y-84574262D01*
X143384827Y-84634602D01*
X143384814Y-84634609D01*
X143253711Y-84722210D01*
X143253707Y-84722213D01*
X143142213Y-84833707D01*
X143142210Y-84833711D01*
X143054609Y-84964814D01*
X143054602Y-84964827D01*
X142994264Y-85110498D01*
X142994261Y-85110510D01*
X142963500Y-85265153D01*
X142963500Y-85422846D01*
X142994261Y-85577489D01*
X142994264Y-85577501D01*
X143054602Y-85723172D01*
X143054609Y-85723185D01*
X143142210Y-85854288D01*
X143142213Y-85854292D01*
X143253707Y-85965786D01*
X143253711Y-85965789D01*
X143384814Y-86053390D01*
X143384827Y-86053397D01*
X143516220Y-86107821D01*
X143530503Y-86113737D01*
X143679336Y-86143342D01*
X143685153Y-86144499D01*
X143685156Y-86144500D01*
X143685158Y-86144500D01*
X143842844Y-86144500D01*
X143842845Y-86144499D01*
X143997497Y-86113737D01*
X144143179Y-86053394D01*
X144274289Y-85965789D01*
X144290489Y-85949589D01*
X144362819Y-85877260D01*
X144424142Y-85843775D01*
X144493834Y-85848759D01*
X144549767Y-85890631D01*
X144574184Y-85956095D01*
X144574500Y-85964941D01*
X144574500Y-86701047D01*
X144582255Y-86759943D01*
X144589635Y-86815999D01*
X144634237Y-86923679D01*
X144640061Y-86937738D01*
X144649500Y-86985191D01*
X144649500Y-88000902D01*
X144629815Y-88067941D01*
X144577011Y-88113696D01*
X144507853Y-88123640D01*
X144444297Y-88094615D01*
X144437819Y-88088583D01*
X141136819Y-84787583D01*
X141122115Y-84760655D01*
X141105523Y-84734837D01*
X141104631Y-84728636D01*
X141103334Y-84726260D01*
X141100500Y-84699902D01*
X141100500Y-84579765D01*
X141120185Y-84512726D01*
X141121398Y-84510874D01*
X141123639Y-84507521D01*
X141209394Y-84379179D01*
X141213728Y-84368717D01*
X141242619Y-84298966D01*
X141269737Y-84233497D01*
X141296429Y-84099309D01*
X141328814Y-84037398D01*
X141389529Y-84002824D01*
X141418046Y-83999500D01*
X143024623Y-83999500D01*
X143091662Y-84019185D01*
G37*
%TD.AperFunction*%
%TA.AperFunction,NonConductor*%
G36*
X142137867Y-92120185D02*
G01*
X142139719Y-92121398D01*
X142241079Y-92189125D01*
X142241092Y-92189132D01*
X142324087Y-92223509D01*
X142386768Y-92249472D01*
X142541418Y-92280234D01*
X142541421Y-92280235D01*
X142541423Y-92280235D01*
X142699109Y-92280235D01*
X142699110Y-92280234D01*
X142853762Y-92249472D01*
X142999444Y-92189129D01*
X142999450Y-92189125D01*
X143100811Y-92121398D01*
X143167488Y-92100520D01*
X143169702Y-92100500D01*
X143777903Y-92100500D01*
X143844942Y-92120185D01*
X143865584Y-92136819D01*
X145516583Y-93787819D01*
X145550068Y-93849142D01*
X145545084Y-93918834D01*
X145503212Y-93974767D01*
X145437748Y-93999184D01*
X145428902Y-93999500D01*
X142934108Y-93999500D01*
X142806812Y-94033608D01*
X142692686Y-94099500D01*
X142692683Y-94099502D01*
X142599502Y-94192683D01*
X142599500Y-94192686D01*
X142533608Y-94306812D01*
X142499500Y-94434108D01*
X142499500Y-95100903D01*
X142479815Y-95167942D01*
X142427011Y-95213697D01*
X142357853Y-95223641D01*
X142294297Y-95194616D01*
X142287819Y-95188584D01*
X140436916Y-93337681D01*
X140403431Y-93276358D01*
X140408415Y-93206666D01*
X140436916Y-93162319D01*
X140947946Y-92651290D01*
X141462417Y-92136819D01*
X141523740Y-92103334D01*
X141550098Y-92100500D01*
X142070828Y-92100500D01*
X142137867Y-92120185D01*
G37*
%TD.AperFunction*%
%TA.AperFunction,NonConductor*%
G36*
X148689434Y-94206827D02*
G01*
X148708344Y-94207165D01*
X148736561Y-94220665D01*
X148738330Y-94221185D01*
X148740182Y-94222398D01*
X148871871Y-94310390D01*
X148871884Y-94310397D01*
X148985827Y-94357593D01*
X149017560Y-94370737D01*
X149082204Y-94383595D01*
X149172906Y-94401638D01*
X149234817Y-94434023D01*
X149236396Y-94435574D01*
X153013112Y-98212290D01*
X153046597Y-98273613D01*
X153041613Y-98343305D01*
X153013112Y-98387652D01*
X148712181Y-102688583D01*
X148650858Y-102722068D01*
X148581166Y-102717084D01*
X148525233Y-102675212D01*
X148500816Y-102609748D01*
X148500500Y-102600902D01*
X148500500Y-94434110D01*
X148500500Y-94434108D01*
X148479998Y-94357592D01*
X148481661Y-94287743D01*
X148520824Y-94229881D01*
X148585053Y-94202377D01*
X148599773Y-94201500D01*
X148671291Y-94201500D01*
X148689434Y-94206827D01*
G37*
%TD.AperFunction*%
%TA.AperFunction,NonConductor*%
G36*
X147667942Y-103520185D02*
G01*
X147713697Y-103572989D01*
X147723641Y-103642147D01*
X147694616Y-103705703D01*
X147688584Y-103712181D01*
X147037584Y-104363181D01*
X146976261Y-104396666D01*
X146949903Y-104399500D01*
X144579766Y-104399500D01*
X144512727Y-104379815D01*
X144510875Y-104378602D01*
X144379185Y-104290609D01*
X144379172Y-104290602D01*
X144233501Y-104230264D01*
X144233489Y-104230261D01*
X144078845Y-104199500D01*
X144078842Y-104199500D01*
X143921158Y-104199500D01*
X143921155Y-104199500D01*
X143766510Y-104230261D01*
X143766498Y-104230264D01*
X143620827Y-104290602D01*
X143620814Y-104290609D01*
X143489711Y-104378210D01*
X143489707Y-104378213D01*
X143378213Y-104489707D01*
X143378209Y-104489712D01*
X143355515Y-104523675D01*
X143301902Y-104568478D01*
X143232576Y-104577184D01*
X143169550Y-104547027D01*
X143132832Y-104487583D01*
X143132240Y-104485338D01*
X142921670Y-103654979D01*
X142924271Y-103585159D01*
X142964208Y-103527828D01*
X143028801Y-103501190D01*
X143041865Y-103500500D01*
X143065892Y-103500500D01*
X147600903Y-103500500D01*
X147667942Y-103520185D01*
G37*
%TD.AperFunction*%
%TA.AperFunction,NonConductor*%
G36*
X160041638Y-70795203D02*
G01*
X160131640Y-70853164D01*
X160133784Y-70854576D01*
X160255525Y-70936609D01*
X160442211Y-71062406D01*
X160444334Y-71063870D01*
X160748402Y-71278091D01*
X160750444Y-71279562D01*
X161049965Y-71500046D01*
X161050003Y-71500074D01*
X161052065Y-71501625D01*
X161346873Y-71728246D01*
X161348901Y-71729839D01*
X161639029Y-71962622D01*
X161641002Y-71964238D01*
X161926202Y-72202989D01*
X161928115Y-72204624D01*
X161947382Y-72221447D01*
X162208292Y-72449261D01*
X162210217Y-72450978D01*
X162485169Y-72701321D01*
X162487055Y-72703074D01*
X162630687Y-72839423D01*
X162756860Y-72959198D01*
X162758697Y-72960980D01*
X162878126Y-73079172D01*
X163022972Y-73222519D01*
X163024786Y-73224352D01*
X163283717Y-73491491D01*
X163285478Y-73493346D01*
X163538663Y-73765674D01*
X163540386Y-73767566D01*
X163787933Y-74045194D01*
X163789629Y-74047137D01*
X164031313Y-74329814D01*
X164032954Y-74331775D01*
X164268750Y-74619475D01*
X164270296Y-74621401D01*
X164480238Y-74888711D01*
X164500050Y-74913937D01*
X164501615Y-74915973D01*
X164604530Y-75052776D01*
X164725194Y-75213172D01*
X164726724Y-75215250D01*
X164944075Y-75517042D01*
X164945560Y-75519151D01*
X165156548Y-75825343D01*
X165157990Y-75827482D01*
X165362620Y-76138085D01*
X165364017Y-76140254D01*
X165422697Y-76233489D01*
X165562126Y-76455024D01*
X165562133Y-76455034D01*
X165563466Y-76457202D01*
X165656627Y-76612289D01*
X165755000Y-76776052D01*
X165756305Y-76778277D01*
X165911206Y-77048735D01*
X165941110Y-77100946D01*
X165942318Y-77103105D01*
X166120479Y-77429753D01*
X166121671Y-77431993D01*
X166292916Y-77762115D01*
X166294080Y-77764417D01*
X166458433Y-78098056D01*
X166459549Y-78100382D01*
X166616934Y-78437386D01*
X166618001Y-78439735D01*
X166768305Y-78779860D01*
X166769323Y-78782230D01*
X166912555Y-79125494D01*
X166913524Y-79127886D01*
X167049550Y-79473973D01*
X167050469Y-79476383D01*
X167179295Y-79825301D01*
X167180163Y-79827731D01*
X167301695Y-80179234D01*
X167302512Y-80181680D01*
X167416692Y-80535589D01*
X167417459Y-80538053D01*
X167524254Y-80894276D01*
X167524969Y-80896754D01*
X167624343Y-81255166D01*
X167625006Y-81257659D01*
X167716885Y-81617990D01*
X167717497Y-81620497D01*
X167801883Y-81982762D01*
X167802442Y-81985280D01*
X167879258Y-82349151D01*
X167879765Y-82351681D01*
X167949004Y-82717125D01*
X167949457Y-82719664D01*
X168011068Y-83086403D01*
X168011469Y-83088952D01*
X168065444Y-83456937D01*
X168065792Y-83459493D01*
X168112087Y-83828435D01*
X168112382Y-83830997D01*
X168151010Y-84200967D01*
X168151251Y-84203537D01*
X168182166Y-84574165D01*
X168182354Y-84576738D01*
X168205548Y-84947870D01*
X168205682Y-84950446D01*
X168221156Y-85322111D01*
X168221236Y-85324690D01*
X168228987Y-85697235D01*
X168229014Y-85699491D01*
X168229497Y-85884676D01*
X168229497Y-85885322D01*
X168229014Y-86070507D01*
X168228987Y-86072763D01*
X168221236Y-86445308D01*
X168221156Y-86447887D01*
X168205682Y-86819552D01*
X168205548Y-86822128D01*
X168182354Y-87193260D01*
X168182166Y-87195833D01*
X168151251Y-87566461D01*
X168151010Y-87569031D01*
X168112382Y-87939001D01*
X168112087Y-87941563D01*
X168065792Y-88310505D01*
X168065444Y-88313061D01*
X168011469Y-88681046D01*
X168011068Y-88683595D01*
X167949457Y-89050334D01*
X167949004Y-89052873D01*
X167879765Y-89418317D01*
X167879258Y-89420847D01*
X167802442Y-89784718D01*
X167801883Y-89787236D01*
X167717497Y-90149501D01*
X167716885Y-90152008D01*
X167625006Y-90512339D01*
X167624343Y-90514832D01*
X167524969Y-90873244D01*
X167524254Y-90875722D01*
X167417459Y-91231945D01*
X167416692Y-91234409D01*
X167302512Y-91588318D01*
X167301695Y-91590764D01*
X167180163Y-91942267D01*
X167179295Y-91944697D01*
X167050469Y-92293615D01*
X167049550Y-92296025D01*
X166913524Y-92642112D01*
X166912555Y-92644504D01*
X166769323Y-92987768D01*
X166768305Y-92990138D01*
X166618001Y-93330263D01*
X166616934Y-93332612D01*
X166459549Y-93669616D01*
X166458433Y-93671942D01*
X166294080Y-94005581D01*
X166292916Y-94007883D01*
X166121671Y-94338005D01*
X166120460Y-94340282D01*
X165942339Y-94666854D01*
X165941110Y-94669052D01*
X165756305Y-94991721D01*
X165755000Y-94993946D01*
X165563484Y-95312766D01*
X165562133Y-95314964D01*
X165364017Y-95629744D01*
X165362620Y-95631913D01*
X165157990Y-95942516D01*
X165156548Y-95944655D01*
X164945560Y-96250847D01*
X164944075Y-96252956D01*
X164726724Y-96554748D01*
X164725194Y-96556826D01*
X164501622Y-96854016D01*
X164500050Y-96856061D01*
X164270312Y-97148577D01*
X164268712Y-97150570D01*
X164226692Y-97201841D01*
X164032969Y-97438206D01*
X164031313Y-97440184D01*
X163789629Y-97722861D01*
X163787933Y-97724804D01*
X163540400Y-98002417D01*
X163538663Y-98004324D01*
X163285494Y-98276635D01*
X163283717Y-98278507D01*
X163024786Y-98545646D01*
X163022972Y-98547479D01*
X162758712Y-98809004D01*
X162756860Y-98810800D01*
X162487059Y-99066921D01*
X162485169Y-99068677D01*
X162398582Y-99147514D01*
X162335759Y-99178093D01*
X162266377Y-99169853D01*
X162212464Y-99125410D01*
X162211998Y-99124717D01*
X162121789Y-98989711D01*
X162121786Y-98989707D01*
X162010292Y-98878213D01*
X162010288Y-98878210D01*
X161879185Y-98790609D01*
X161879172Y-98790602D01*
X161733501Y-98730264D01*
X161733489Y-98730261D01*
X161578845Y-98699500D01*
X161578842Y-98699500D01*
X161421158Y-98699500D01*
X161421155Y-98699500D01*
X161266510Y-98730261D01*
X161266498Y-98730264D01*
X161122136Y-98790061D01*
X161074684Y-98799500D01*
X159029019Y-98799500D01*
X158961980Y-98779815D01*
X158941338Y-98763181D01*
X155802561Y-95624404D01*
X155773751Y-95571643D01*
X155771503Y-95572325D01*
X155769737Y-95566503D01*
X155709395Y-95420823D01*
X155709390Y-95420814D01*
X155621789Y-95289711D01*
X155621786Y-95289707D01*
X155510292Y-95178213D01*
X155510288Y-95178210D01*
X155379185Y-95090609D01*
X155379172Y-95090602D01*
X155233501Y-95030264D01*
X155233489Y-95030261D01*
X155078845Y-94999500D01*
X155078842Y-94999500D01*
X154921158Y-94999500D01*
X154921155Y-94999500D01*
X154766510Y-95030261D01*
X154766498Y-95030264D01*
X154620827Y-95090602D01*
X154620814Y-95090609D01*
X154489711Y-95178210D01*
X154489707Y-95178213D01*
X154378213Y-95289707D01*
X154378210Y-95289711D01*
X154290609Y-95420814D01*
X154290602Y-95420827D01*
X154230264Y-95566498D01*
X154230261Y-95566510D01*
X154199500Y-95721153D01*
X154199500Y-95878846D01*
X154230261Y-96033489D01*
X154230264Y-96033501D01*
X154290602Y-96179172D01*
X154290609Y-96179185D01*
X154378210Y-96310288D01*
X154378213Y-96310292D01*
X154489707Y-96421786D01*
X154489711Y-96421789D01*
X154620814Y-96509390D01*
X154620827Y-96509397D01*
X154743847Y-96560353D01*
X154784076Y-96587233D01*
X158240953Y-100044111D01*
X158240954Y-100044112D01*
X158355692Y-100120777D01*
X158483167Y-100173578D01*
X158483172Y-100173580D01*
X158483176Y-100173580D01*
X158483177Y-100173581D01*
X158618504Y-100200500D01*
X158618507Y-100200500D01*
X160766697Y-100200500D01*
X160796594Y-100209279D01*
X160826997Y-100216149D01*
X160829843Y-100219042D01*
X160833736Y-100220185D01*
X160854139Y-100243731D01*
X160876003Y-100265950D01*
X160876833Y-100269922D01*
X160879491Y-100272989D01*
X160883926Y-100303835D01*
X160890306Y-100334340D01*
X160888857Y-100338130D01*
X160889435Y-100342147D01*
X160876486Y-100370500D01*
X160865363Y-100399606D01*
X160861424Y-100403481D01*
X160860410Y-100405703D01*
X160840207Y-100424361D01*
X160750496Y-100490399D01*
X160748402Y-100491907D01*
X160444334Y-100706128D01*
X160442211Y-100707592D01*
X160133795Y-100915415D01*
X160131640Y-100916834D01*
X159818979Y-101118187D01*
X159816796Y-101119561D01*
X159500004Y-101314372D01*
X159497792Y-101315701D01*
X159176969Y-101503907D01*
X159174731Y-101505189D01*
X158850144Y-101686634D01*
X158847879Y-101687869D01*
X158519528Y-101862555D01*
X158517238Y-101863743D01*
X158185340Y-102031550D01*
X158183006Y-102032699D01*
X158179171Y-102034538D01*
X158174928Y-102036476D01*
X158125290Y-102058021D01*
X158125287Y-102058023D01*
X158117770Y-102063993D01*
X158109118Y-102068145D01*
X158066305Y-102104873D01*
X158064450Y-102106348D01*
X158064448Y-102106348D01*
X158022103Y-102139986D01*
X158016454Y-102145829D01*
X158016216Y-102145599D01*
X158014276Y-102147683D01*
X158014522Y-102147903D01*
X158009099Y-102153953D01*
X157987375Y-102185712D01*
X157978540Y-102198627D01*
X157978539Y-102198626D01*
X157977198Y-102200586D01*
X157943641Y-102245873D01*
X157940119Y-102254792D01*
X157934700Y-102262716D01*
X157934694Y-102262728D01*
X157916744Y-102313778D01*
X157915106Y-102318169D01*
X157364905Y-103712181D01*
X156711090Y-105368713D01*
X156690443Y-105421024D01*
X156647521Y-105476155D01*
X156581606Y-105499329D01*
X156575102Y-105499500D01*
X147899096Y-105499500D01*
X147832057Y-105479815D01*
X147786302Y-105427011D01*
X147776358Y-105357853D01*
X147805383Y-105294297D01*
X147811415Y-105287819D01*
X150853361Y-102245873D01*
X153964662Y-99134572D01*
X154025983Y-99101089D01*
X154028150Y-99100638D01*
X154086085Y-99089113D01*
X154183497Y-99069737D01*
X154329179Y-99009394D01*
X154460289Y-98921789D01*
X154571789Y-98810289D01*
X154659394Y-98679179D01*
X154719737Y-98533497D01*
X154750500Y-98378842D01*
X154750500Y-98221158D01*
X154750500Y-98221155D01*
X154750499Y-98221153D01*
X154732728Y-98131814D01*
X154719737Y-98066503D01*
X154693585Y-98003365D01*
X154659397Y-97920827D01*
X154659390Y-97920814D01*
X154571789Y-97789711D01*
X154571786Y-97789707D01*
X154460292Y-97678213D01*
X154460288Y-97678210D01*
X154329185Y-97590609D01*
X154329172Y-97590602D01*
X154183501Y-97530264D01*
X154183491Y-97530261D01*
X154028220Y-97499375D01*
X153966309Y-97466990D01*
X153964731Y-97465439D01*
X151453803Y-94954511D01*
X151420318Y-94893188D01*
X151425302Y-94823496D01*
X151438382Y-94797939D01*
X151514390Y-94684185D01*
X151514390Y-94684184D01*
X151514394Y-94684179D01*
X151574737Y-94538497D01*
X151605500Y-94383842D01*
X151605500Y-94226158D01*
X151605500Y-94226155D01*
X151605499Y-94226153D01*
X151592902Y-94162823D01*
X151574737Y-94071503D01*
X151563412Y-94044161D01*
X151514397Y-93925827D01*
X151514390Y-93925814D01*
X151426789Y-93794711D01*
X151426786Y-93794707D01*
X151315292Y-93683213D01*
X151315288Y-93683210D01*
X151184185Y-93595609D01*
X151184172Y-93595602D01*
X151038501Y-93535264D01*
X151038491Y-93535261D01*
X150883151Y-93504362D01*
X150821241Y-93471977D01*
X150819662Y-93470426D01*
X149987590Y-92638355D01*
X149987588Y-92638352D01*
X149868717Y-92519481D01*
X149868716Y-92519480D01*
X149772368Y-92463854D01*
X149772367Y-92463853D01*
X149731783Y-92440422D01*
X149675881Y-92425443D01*
X149579057Y-92399499D01*
X149420943Y-92399499D01*
X149413347Y-92399499D01*
X149413331Y-92399500D01*
X147276098Y-92399500D01*
X147209059Y-92379815D01*
X147188417Y-92363181D01*
X145868573Y-91043337D01*
X145835088Y-90982014D01*
X145834637Y-90979847D01*
X145813921Y-90875700D01*
X145803737Y-90824503D01*
X145802262Y-90820943D01*
X145743397Y-90678827D01*
X145743390Y-90678814D01*
X145655789Y-90547711D01*
X145655786Y-90547707D01*
X145544292Y-90436213D01*
X145544288Y-90436210D01*
X145413185Y-90348609D01*
X145413172Y-90348602D01*
X145267501Y-90288264D01*
X145267489Y-90288261D01*
X145112845Y-90257500D01*
X145112842Y-90257500D01*
X144955158Y-90257500D01*
X144955155Y-90257500D01*
X144800510Y-90288261D01*
X144800498Y-90288264D01*
X144654827Y-90348602D01*
X144654816Y-90348608D01*
X144566801Y-90407418D01*
X144536504Y-90416903D01*
X144506758Y-90427999D01*
X144503401Y-90427268D01*
X144500124Y-90428295D01*
X144469515Y-90419897D01*
X144438485Y-90413148D01*
X144434767Y-90410365D01*
X144432744Y-90409810D01*
X144410234Y-90392000D01*
X144328215Y-90309981D01*
X144328212Y-90309979D01*
X142544573Y-88526340D01*
X142511088Y-88465017D01*
X142510637Y-88462850D01*
X142484566Y-88331785D01*
X142479736Y-88307504D01*
X142479734Y-88307499D01*
X142419396Y-88161828D01*
X142419389Y-88161815D01*
X142333877Y-88033838D01*
X142333876Y-88033837D01*
X142331788Y-88030712D01*
X142220288Y-87919212D01*
X142217165Y-87917125D01*
X142217164Y-87917124D01*
X142089184Y-87831610D01*
X142089171Y-87831603D01*
X141943500Y-87771265D01*
X141943488Y-87771262D01*
X141788844Y-87740501D01*
X141788841Y-87740501D01*
X141631157Y-87740501D01*
X141631154Y-87740501D01*
X141476509Y-87771262D01*
X141476497Y-87771265D01*
X141330826Y-87831603D01*
X141330813Y-87831610D01*
X141199710Y-87919211D01*
X141199706Y-87919214D01*
X141088212Y-88030708D01*
X141088209Y-88030712D01*
X141000608Y-88161815D01*
X141000601Y-88161828D01*
X140940263Y-88307499D01*
X140940260Y-88307511D01*
X140909499Y-88462154D01*
X140909499Y-88619847D01*
X140940260Y-88774490D01*
X140940263Y-88774502D01*
X141000601Y-88920173D01*
X141000608Y-88920186D01*
X141088209Y-89051289D01*
X141088212Y-89051293D01*
X141199706Y-89162787D01*
X141199710Y-89162790D01*
X141330813Y-89250391D01*
X141330826Y-89250398D01*
X141449284Y-89299464D01*
X141476502Y-89310738D01*
X141541146Y-89323596D01*
X141631848Y-89341639D01*
X141693759Y-89374024D01*
X141695338Y-89375575D01*
X142298083Y-89978320D01*
X142331568Y-90039643D01*
X142326584Y-90109335D01*
X142284712Y-90165268D01*
X142219248Y-90189685D01*
X142210402Y-90190001D01*
X141046169Y-90190001D01*
X141046153Y-90190000D01*
X141038557Y-90190000D01*
X140880442Y-90190000D01*
X140804078Y-90210462D01*
X140727713Y-90230924D01*
X140727708Y-90230927D01*
X140590789Y-90309976D01*
X140590781Y-90309982D01*
X138418479Y-92482284D01*
X138397783Y-92518131D01*
X138389036Y-92533283D01*
X138339423Y-92619215D01*
X138298499Y-92771943D01*
X138298499Y-92771945D01*
X138298499Y-92940046D01*
X138298500Y-92940059D01*
X138298500Y-93698264D01*
X138298499Y-93698282D01*
X138298499Y-93863988D01*
X138298498Y-93863988D01*
X138339424Y-94016723D01*
X138339425Y-94016724D01*
X138358261Y-94049348D01*
X138358262Y-94049349D01*
X138418477Y-94153646D01*
X138418481Y-94153651D01*
X138537349Y-94272519D01*
X138537355Y-94272524D01*
X138640425Y-94375594D01*
X138673910Y-94436917D01*
X138674361Y-94439083D01*
X138705261Y-94594425D01*
X138705264Y-94594435D01*
X138765602Y-94740106D01*
X138765609Y-94740119D01*
X138853210Y-94871222D01*
X138853213Y-94871226D01*
X138964707Y-94982720D01*
X138964711Y-94982723D01*
X139095814Y-95070324D01*
X139095827Y-95070331D01*
X139176410Y-95103709D01*
X139241503Y-95130671D01*
X139370519Y-95156334D01*
X139396153Y-95161433D01*
X139396156Y-95161434D01*
X139396158Y-95161434D01*
X139553844Y-95161434D01*
X139553845Y-95161433D01*
X139708497Y-95130671D01*
X139854179Y-95070328D01*
X139985289Y-94982723D01*
X140013501Y-94954511D01*
X140096708Y-94871305D01*
X140158031Y-94837820D01*
X140227723Y-94842804D01*
X140272070Y-94871305D01*
X141363181Y-95962416D01*
X141396666Y-96023739D01*
X141399500Y-96050097D01*
X141399500Y-98420234D01*
X141379815Y-98487273D01*
X141378602Y-98489125D01*
X141290609Y-98620814D01*
X141290602Y-98620827D01*
X141230264Y-98766498D01*
X141230261Y-98766510D01*
X141199500Y-98921153D01*
X141199500Y-99078846D01*
X141230261Y-99233489D01*
X141230264Y-99233501D01*
X141290602Y-99379172D01*
X141290609Y-99379185D01*
X141378210Y-99510288D01*
X141378213Y-99510292D01*
X141489707Y-99621786D01*
X141489711Y-99621789D01*
X141620814Y-99709390D01*
X141620827Y-99709397D01*
X141743169Y-99760072D01*
X141766503Y-99769737D01*
X141921153Y-99800499D01*
X141921156Y-99800500D01*
X141921158Y-99800500D01*
X142078844Y-99800500D01*
X142078845Y-99800499D01*
X142233497Y-99769737D01*
X142328048Y-99730572D01*
X142397517Y-99723104D01*
X142459996Y-99754379D01*
X142495648Y-99814468D01*
X142499500Y-99845134D01*
X142499500Y-101938388D01*
X142479815Y-102005427D01*
X142427011Y-102051182D01*
X142357853Y-102061126D01*
X142331855Y-102054453D01*
X142321526Y-102050569D01*
X142314439Y-102046349D01*
X142297830Y-102041658D01*
X142292918Y-102039811D01*
X142291613Y-102038828D01*
X142282937Y-102035550D01*
X142276968Y-102032687D01*
X142274644Y-102031543D01*
X141942745Y-101863735D01*
X141940455Y-101862547D01*
X141612148Y-101687884D01*
X141609883Y-101686649D01*
X141285210Y-101505156D01*
X141282972Y-101503874D01*
X140962237Y-101315720D01*
X140960025Y-101314391D01*
X140643205Y-101119563D01*
X140641022Y-101118189D01*
X140328340Y-100916821D01*
X140326186Y-100915402D01*
X140017733Y-100707555D01*
X140015648Y-100706118D01*
X139711594Y-100491907D01*
X139709525Y-100490416D01*
X139410032Y-100269952D01*
X139407970Y-100268401D01*
X139113091Y-100041726D01*
X139111063Y-100040133D01*
X138821017Y-99807416D01*
X138819021Y-99805781D01*
X138775966Y-99769738D01*
X138533804Y-99567016D01*
X138531859Y-99565353D01*
X138468795Y-99510289D01*
X138449385Y-99493341D01*
X138251706Y-99320737D01*
X138249781Y-99319020D01*
X137974829Y-99068677D01*
X137972939Y-99066921D01*
X137914324Y-99011278D01*
X137703130Y-98810792D01*
X137701290Y-98809008D01*
X137437005Y-98547457D01*
X137435191Y-98545624D01*
X137176281Y-98278507D01*
X137174504Y-98276635D01*
X137171694Y-98273613D01*
X136921321Y-98004307D01*
X136919602Y-98002420D01*
X136919599Y-98002417D01*
X136672031Y-97724765D01*
X136670349Y-97722838D01*
X136428710Y-97440213D01*
X136427069Y-97438253D01*
X136191239Y-97150512D01*
X136189688Y-97148579D01*
X135959947Y-96856061D01*
X135958396Y-96854043D01*
X135898394Y-96774284D01*
X135734798Y-96556817D01*
X135733274Y-96554748D01*
X135515923Y-96252956D01*
X135514438Y-96250847D01*
X135303437Y-95944636D01*
X135301995Y-95942497D01*
X135267605Y-95890298D01*
X135097365Y-95631895D01*
X135095968Y-95629726D01*
X135047089Y-95552064D01*
X134897836Y-95314919D01*
X134896554Y-95312834D01*
X134704999Y-94993946D01*
X134703752Y-94991822D01*
X134518832Y-94668952D01*
X134517630Y-94666800D01*
X134339539Y-94340282D01*
X134338327Y-94338005D01*
X134167091Y-94007900D01*
X134165927Y-94005598D01*
X134001555Y-93671921D01*
X134000449Y-93669616D01*
X133843026Y-93332528D01*
X133842039Y-93330354D01*
X133691692Y-92990135D01*
X133690675Y-92987767D01*
X133547427Y-92644467D01*
X133546495Y-92642166D01*
X133410439Y-92296004D01*
X133409536Y-92293635D01*
X133404664Y-92280440D01*
X133280701Y-91944692D01*
X133279835Y-91942268D01*
X133242227Y-91833497D01*
X133158289Y-91590727D01*
X133157485Y-91588318D01*
X133135818Y-91521158D01*
X133043286Y-91234344D01*
X133042559Y-91232009D01*
X132940207Y-90890606D01*
X132935738Y-90875700D01*
X132935023Y-90873222D01*
X132924263Y-90834415D01*
X132835646Y-90514799D01*
X132834996Y-90512353D01*
X132743098Y-90151948D01*
X132742510Y-90149537D01*
X132658115Y-89787236D01*
X132657557Y-89784722D01*
X132635562Y-89680534D01*
X132580735Y-89420823D01*
X132580249Y-89418402D01*
X132510994Y-89052873D01*
X132510541Y-89050334D01*
X132488676Y-88920180D01*
X132448913Y-88683492D01*
X132448540Y-88681121D01*
X132394546Y-88313002D01*
X132394215Y-88310565D01*
X132347909Y-87941550D01*
X132347616Y-87939001D01*
X132342248Y-87887584D01*
X132308979Y-87568945D01*
X132308754Y-87566539D01*
X132280845Y-87231950D01*
X132294889Y-87163508D01*
X132343707Y-87113522D01*
X132411800Y-87097864D01*
X132473307Y-87118542D01*
X132589814Y-87196390D01*
X132589827Y-87196397D01*
X132728639Y-87253894D01*
X132735503Y-87256737D01*
X132873593Y-87284205D01*
X132890153Y-87287499D01*
X132890156Y-87287500D01*
X132890158Y-87287500D01*
X133047844Y-87287500D01*
X133047845Y-87287499D01*
X133202497Y-87256737D01*
X133348179Y-87196394D01*
X133378526Y-87176117D01*
X133479875Y-87108398D01*
X133546553Y-87087520D01*
X133548766Y-87087500D01*
X134926331Y-87087500D01*
X134926347Y-87087501D01*
X134933943Y-87087501D01*
X135092054Y-87087501D01*
X135092057Y-87087501D01*
X135244785Y-87046577D01*
X135294904Y-87017639D01*
X135381716Y-86967520D01*
X135493520Y-86855716D01*
X135493520Y-86855714D01*
X135503728Y-86845507D01*
X135503730Y-86845504D01*
X135520996Y-86828237D01*
X135582317Y-86794754D01*
X135652009Y-86799738D01*
X135707942Y-86841610D01*
X135723236Y-86868467D01*
X135746104Y-86923675D01*
X135746109Y-86923685D01*
X135833710Y-87054788D01*
X135833713Y-87054792D01*
X135945210Y-87166289D01*
X136076315Y-87253890D01*
X136076321Y-87253894D01*
X136076327Y-87253896D01*
X136081692Y-87256764D01*
X136080651Y-87258710D01*
X136127337Y-87296312D01*
X136149420Y-87362600D01*
X136149500Y-87367059D01*
X136149500Y-90599903D01*
X136140855Y-90629340D01*
X136134332Y-90659331D01*
X136130576Y-90664347D01*
X136129815Y-90666942D01*
X136113185Y-90687579D01*
X136035339Y-90765426D01*
X135974015Y-90798910D01*
X135971850Y-90799361D01*
X135816508Y-90830261D01*
X135816498Y-90830264D01*
X135670827Y-90890602D01*
X135670814Y-90890609D01*
X135539711Y-90978210D01*
X135539707Y-90978213D01*
X135428213Y-91089707D01*
X135428210Y-91089711D01*
X135340609Y-91220814D01*
X135340602Y-91220827D01*
X135280264Y-91366498D01*
X135280261Y-91366510D01*
X135249500Y-91521153D01*
X135249500Y-91678846D01*
X135280261Y-91833489D01*
X135280264Y-91833501D01*
X135340602Y-91979172D01*
X135340609Y-91979185D01*
X135428210Y-92110288D01*
X135428213Y-92110292D01*
X135539707Y-92221786D01*
X135539711Y-92221789D01*
X135670814Y-92309390D01*
X135670827Y-92309397D01*
X135800675Y-92363181D01*
X135816503Y-92369737D01*
X135966126Y-92399499D01*
X135971153Y-92400499D01*
X135971156Y-92400500D01*
X135971158Y-92400500D01*
X136128844Y-92400500D01*
X136128845Y-92400499D01*
X136283497Y-92369737D01*
X136429179Y-92309394D01*
X136560289Y-92221789D01*
X136671789Y-92110289D01*
X136759394Y-91979179D01*
X136765442Y-91964579D01*
X136819735Y-91833501D01*
X136819737Y-91833497D01*
X136839113Y-91736085D01*
X136850638Y-91678150D01*
X136883023Y-91616239D01*
X136884525Y-91614709D01*
X137108506Y-91390727D01*
X137108511Y-91390724D01*
X137118714Y-91380520D01*
X137118716Y-91380520D01*
X137230520Y-91268716D01*
X137309577Y-91131784D01*
X137339669Y-91019480D01*
X137350500Y-90979058D01*
X137350500Y-90820943D01*
X137350500Y-86928059D01*
X137350501Y-86928046D01*
X137350501Y-86759945D01*
X137350501Y-86759943D01*
X137313829Y-86623083D01*
X137315492Y-86553235D01*
X137345921Y-86503312D01*
X138702898Y-85146335D01*
X138764219Y-85112852D01*
X138833911Y-85117836D01*
X138878258Y-85146337D01*
X138935707Y-85203786D01*
X138935711Y-85203789D01*
X139066814Y-85291390D01*
X139066827Y-85291397D01*
X139212498Y-85351735D01*
X139212503Y-85351737D01*
X139367153Y-85382499D01*
X139367156Y-85382500D01*
X139367158Y-85382500D01*
X139524844Y-85382500D01*
X139524845Y-85382499D01*
X139679497Y-85351737D01*
X139825179Y-85291394D01*
X139825184Y-85291390D01*
X139830546Y-85288525D01*
X139831430Y-85290180D01*
X139889748Y-85271908D01*
X139957132Y-85290380D01*
X139999372Y-85333888D01*
X140013241Y-85357910D01*
X140019479Y-85368714D01*
X140019481Y-85368717D01*
X140138349Y-85487585D01*
X140138354Y-85487589D01*
X144133284Y-89482520D01*
X144133286Y-89482521D01*
X144133290Y-89482524D01*
X144252738Y-89551486D01*
X144270216Y-89561577D01*
X144422943Y-89602501D01*
X144422945Y-89602501D01*
X144588654Y-89602501D01*
X144588670Y-89602500D01*
X149313179Y-89602500D01*
X149313195Y-89602501D01*
X149320791Y-89602501D01*
X149478902Y-89602501D01*
X149478905Y-89602501D01*
X149631633Y-89561577D01*
X149681752Y-89532639D01*
X149768564Y-89482520D01*
X149880368Y-89370716D01*
X149880368Y-89370714D01*
X149890576Y-89360507D01*
X149890577Y-89360504D01*
X150512713Y-88738369D01*
X150574035Y-88704885D01*
X150643727Y-88709869D01*
X150699660Y-88751741D01*
X150722010Y-88801859D01*
X150734104Y-88862659D01*
X150734106Y-88862667D01*
X150801983Y-89026540D01*
X150801990Y-89026553D01*
X150900535Y-89174034D01*
X150900538Y-89174038D01*
X151025961Y-89299461D01*
X151025965Y-89299464D01*
X151173446Y-89398009D01*
X151173459Y-89398016D01*
X151296363Y-89448923D01*
X151337334Y-89465894D01*
X151337336Y-89465894D01*
X151337341Y-89465896D01*
X151511304Y-89500499D01*
X151511307Y-89500500D01*
X151511309Y-89500500D01*
X151688693Y-89500500D01*
X151688694Y-89500499D01*
X151779062Y-89482524D01*
X151862658Y-89465896D01*
X151862661Y-89465894D01*
X151862666Y-89465894D01*
X152026547Y-89398013D01*
X152174035Y-89299464D01*
X152299464Y-89174035D01*
X152398013Y-89026547D01*
X152465894Y-88862666D01*
X152465894Y-88862661D01*
X152465896Y-88862658D01*
X152500499Y-88688695D01*
X152500500Y-88688693D01*
X152500500Y-88511307D01*
X152488547Y-88451220D01*
X152490391Y-88394928D01*
X152492500Y-88387058D01*
X152492500Y-88228943D01*
X152492500Y-87558095D01*
X152512185Y-87491056D01*
X152528815Y-87470418D01*
X152725879Y-87273353D01*
X152787202Y-87239869D01*
X152829744Y-87238096D01*
X152923960Y-87250500D01*
X152923967Y-87250500D01*
X153176033Y-87250500D01*
X153176040Y-87250500D01*
X153290999Y-87235365D01*
X153327547Y-87220225D01*
X153397016Y-87212757D01*
X153422450Y-87220224D01*
X153459001Y-87235365D01*
X153573960Y-87250500D01*
X153573967Y-87250500D01*
X153826033Y-87250500D01*
X153826040Y-87250500D01*
X153940999Y-87235365D01*
X153977547Y-87220225D01*
X154047016Y-87212757D01*
X154072450Y-87220224D01*
X154109001Y-87235365D01*
X154223960Y-87250500D01*
X154223967Y-87250500D01*
X154476033Y-87250500D01*
X154476040Y-87250500D01*
X154590999Y-87235365D01*
X154627547Y-87220225D01*
X154697016Y-87212757D01*
X154722450Y-87220224D01*
X154759001Y-87235365D01*
X154873960Y-87250500D01*
X154873967Y-87250500D01*
X155126033Y-87250500D01*
X155126040Y-87250500D01*
X155240999Y-87235365D01*
X155384037Y-87176117D01*
X155506867Y-87081867D01*
X155601117Y-86959037D01*
X155660365Y-86815999D01*
X155675500Y-86701040D01*
X155675500Y-85421153D01*
X161199500Y-85421153D01*
X161199500Y-85578846D01*
X161230261Y-85733489D01*
X161230264Y-85733501D01*
X161290602Y-85879172D01*
X161290609Y-85879185D01*
X161378210Y-86010288D01*
X161378213Y-86010292D01*
X161489707Y-86121786D01*
X161489711Y-86121789D01*
X161620814Y-86209390D01*
X161620827Y-86209397D01*
X161766498Y-86269735D01*
X161766503Y-86269737D01*
X161921153Y-86300499D01*
X161921156Y-86300500D01*
X161921158Y-86300500D01*
X162078844Y-86300500D01*
X162078845Y-86300499D01*
X162233497Y-86269737D01*
X162379179Y-86209394D01*
X162510289Y-86121789D01*
X162621789Y-86010289D01*
X162709394Y-85879179D01*
X162769737Y-85733497D01*
X162792137Y-85620885D01*
X162800638Y-85578150D01*
X162833023Y-85516239D01*
X162834520Y-85514714D01*
X163858506Y-84490727D01*
X163858511Y-84490724D01*
X163868714Y-84480520D01*
X163868716Y-84480520D01*
X163980520Y-84368716D01*
X164059577Y-84231784D01*
X164100500Y-84079057D01*
X164100500Y-76579765D01*
X164120185Y-76512726D01*
X164121398Y-76510874D01*
X164143089Y-76478412D01*
X164209394Y-76379179D01*
X164269737Y-76233497D01*
X164300500Y-76078842D01*
X164300500Y-75921158D01*
X164300500Y-75921155D01*
X164300499Y-75921153D01*
X164291523Y-75876026D01*
X164269737Y-75766503D01*
X164251646Y-75722827D01*
X164209397Y-75620827D01*
X164209390Y-75620814D01*
X164121789Y-75489711D01*
X164121786Y-75489707D01*
X164010292Y-75378213D01*
X164010288Y-75378210D01*
X163879185Y-75290609D01*
X163879172Y-75290602D01*
X163733501Y-75230264D01*
X163733489Y-75230261D01*
X163578845Y-75199500D01*
X163578842Y-75199500D01*
X163421158Y-75199500D01*
X163421155Y-75199500D01*
X163266510Y-75230261D01*
X163266498Y-75230264D01*
X163120827Y-75290602D01*
X163120814Y-75290609D01*
X162989711Y-75378210D01*
X162989707Y-75378213D01*
X162878213Y-75489707D01*
X162878210Y-75489711D01*
X162790609Y-75620814D01*
X162790602Y-75620827D01*
X162730264Y-75766498D01*
X162730261Y-75766510D01*
X162699500Y-75921153D01*
X162699500Y-76078846D01*
X162730261Y-76233489D01*
X162730264Y-76233501D01*
X162790602Y-76379172D01*
X162790609Y-76379185D01*
X162878602Y-76510874D01*
X162899480Y-76577551D01*
X162899500Y-76579765D01*
X162899500Y-83699903D01*
X162879815Y-83766942D01*
X162863181Y-83787584D01*
X161985339Y-84665425D01*
X161924016Y-84698910D01*
X161921850Y-84699361D01*
X161766508Y-84730261D01*
X161766498Y-84730264D01*
X161620827Y-84790602D01*
X161620814Y-84790609D01*
X161489711Y-84878210D01*
X161489707Y-84878213D01*
X161378213Y-84989707D01*
X161378210Y-84989711D01*
X161290609Y-85120814D01*
X161290602Y-85120827D01*
X161230264Y-85266498D01*
X161230261Y-85266510D01*
X161199500Y-85421153D01*
X155675500Y-85421153D01*
X155675500Y-84298960D01*
X155660365Y-84184001D01*
X155609938Y-84062260D01*
X155608312Y-84054084D01*
X155605523Y-84049744D01*
X155600500Y-84014809D01*
X155600500Y-83924500D01*
X155620185Y-83857461D01*
X155672989Y-83811706D01*
X155724500Y-83800500D01*
X155767908Y-83800500D01*
X155767909Y-83800499D01*
X155922561Y-83769737D01*
X156068243Y-83709394D01*
X156149473Y-83655118D01*
X156199939Y-83621398D01*
X156217985Y-83615747D01*
X156233895Y-83605523D01*
X156264856Y-83601071D01*
X156266617Y-83600520D01*
X156268830Y-83600500D01*
X156413331Y-83600500D01*
X156413347Y-83600501D01*
X156420943Y-83600501D01*
X156579054Y-83600501D01*
X156579057Y-83600501D01*
X156731785Y-83559577D01*
X156745420Y-83551704D01*
X156782091Y-83530533D01*
X156782102Y-83530525D01*
X156782114Y-83530519D01*
X156868716Y-83480520D01*
X156980520Y-83368716D01*
X156980520Y-83368714D01*
X156990724Y-83358511D01*
X156990727Y-83358506D01*
X157514665Y-82834570D01*
X157575984Y-82801088D01*
X157578151Y-82800637D01*
X157578840Y-82800500D01*
X157578842Y-82800500D01*
X157733497Y-82769737D01*
X157879179Y-82709394D01*
X158010289Y-82621789D01*
X158121789Y-82510289D01*
X158209394Y-82379179D01*
X158269737Y-82233497D01*
X158300500Y-82078842D01*
X158300500Y-81921158D01*
X158300500Y-81921155D01*
X158300499Y-81921153D01*
X158282657Y-81831457D01*
X158269737Y-81766503D01*
X158256062Y-81733489D01*
X158209397Y-81620827D01*
X158209390Y-81620814D01*
X158121789Y-81489711D01*
X158121786Y-81489707D01*
X158010292Y-81378213D01*
X158010288Y-81378210D01*
X157879185Y-81290609D01*
X157879172Y-81290602D01*
X157733501Y-81230264D01*
X157733489Y-81230261D01*
X157578845Y-81199500D01*
X157578842Y-81199500D01*
X157421158Y-81199500D01*
X157421155Y-81199500D01*
X157266510Y-81230261D01*
X157266498Y-81230264D01*
X157120827Y-81290602D01*
X157120814Y-81290609D01*
X156989711Y-81378210D01*
X156989707Y-81378213D01*
X156878213Y-81489707D01*
X156878210Y-81489711D01*
X156790609Y-81620814D01*
X156790602Y-81620827D01*
X156730264Y-81766498D01*
X156730261Y-81766508D01*
X156699362Y-81921849D01*
X156666977Y-81983759D01*
X156665426Y-81985338D01*
X156315192Y-82335572D01*
X156253869Y-82369057D01*
X156184177Y-82364073D01*
X156158621Y-82350993D01*
X156068254Y-82290612D01*
X156068236Y-82290602D01*
X155922565Y-82230264D01*
X155922553Y-82230261D01*
X155767909Y-82199500D01*
X155767906Y-82199500D01*
X155724500Y-82199500D01*
X155657461Y-82179815D01*
X155611706Y-82127011D01*
X155600500Y-82075500D01*
X155600500Y-79037816D01*
X155600501Y-79037803D01*
X155600501Y-78869702D01*
X155600501Y-78869700D01*
X155559577Y-78716972D01*
X155521232Y-78650557D01*
X155480520Y-78580041D01*
X155368716Y-78468237D01*
X155368715Y-78468236D01*
X155364385Y-78463906D01*
X155364374Y-78463896D01*
X154603959Y-77703481D01*
X154570474Y-77642158D01*
X154575458Y-77572466D01*
X154603961Y-77528117D01*
X154621787Y-77510291D01*
X154621789Y-77510289D01*
X154709394Y-77379179D01*
X154717897Y-77358652D01*
X154761588Y-77253171D01*
X154769737Y-77233497D01*
X154800500Y-77078842D01*
X154800500Y-76924500D01*
X154820185Y-76857461D01*
X154872989Y-76811706D01*
X154924500Y-76800500D01*
X155078844Y-76800500D01*
X155078845Y-76800499D01*
X155233497Y-76769737D01*
X155379179Y-76709394D01*
X155498116Y-76629922D01*
X155564792Y-76609045D01*
X155632172Y-76627529D01*
X155654687Y-76645344D01*
X157113181Y-78103838D01*
X157146666Y-78165161D01*
X157149500Y-78191519D01*
X157149500Y-79397870D01*
X157149501Y-79397876D01*
X157155908Y-79457483D01*
X157206202Y-79592328D01*
X157206206Y-79592335D01*
X157292452Y-79707544D01*
X157292455Y-79707547D01*
X157407664Y-79793793D01*
X157407671Y-79793797D01*
X157542517Y-79844091D01*
X157542516Y-79844091D01*
X157549444Y-79844835D01*
X157602127Y-79850500D01*
X159397872Y-79850499D01*
X159457483Y-79844091D01*
X159592331Y-79793796D01*
X159707546Y-79707546D01*
X159793796Y-79592331D01*
X159844091Y-79457483D01*
X159850500Y-79397873D01*
X159850499Y-77602128D01*
X159844091Y-77542517D01*
X159839528Y-77530284D01*
X159793797Y-77407671D01*
X159793793Y-77407664D01*
X159707547Y-77292455D01*
X159707544Y-77292452D01*
X159592335Y-77206206D01*
X159592328Y-77206202D01*
X159460917Y-77157189D01*
X159404983Y-77115318D01*
X159380566Y-77049853D01*
X159395418Y-76981580D01*
X159416563Y-76953332D01*
X159530104Y-76839792D01*
X159575617Y-76777149D01*
X159655048Y-76667820D01*
X159655047Y-76667820D01*
X159655051Y-76667816D01*
X159751557Y-76478412D01*
X159817246Y-76276243D01*
X159850500Y-76066287D01*
X159850500Y-75853713D01*
X159817246Y-75643757D01*
X159751557Y-75441588D01*
X159655051Y-75252184D01*
X159655049Y-75252181D01*
X159655048Y-75252179D01*
X159530109Y-75080213D01*
X159379786Y-74929890D01*
X159207820Y-74804951D01*
X159207115Y-74804591D01*
X159199054Y-74800485D01*
X159148259Y-74752512D01*
X159131463Y-74684692D01*
X159153999Y-74618556D01*
X159199054Y-74579515D01*
X159207816Y-74575051D01*
X159229789Y-74559086D01*
X159379786Y-74450109D01*
X159379788Y-74450106D01*
X159379792Y-74450104D01*
X159530104Y-74299792D01*
X159530106Y-74299788D01*
X159530109Y-74299786D01*
X159639086Y-74149789D01*
X159655051Y-74127816D01*
X159751557Y-73938412D01*
X159817246Y-73736243D01*
X159850500Y-73526287D01*
X159850500Y-73313713D01*
X159817246Y-73103757D01*
X159751557Y-72901588D01*
X159655051Y-72712184D01*
X159655049Y-72712181D01*
X159655048Y-72712179D01*
X159530109Y-72540213D01*
X159379786Y-72389890D01*
X159207820Y-72264951D01*
X159207115Y-72264591D01*
X159199054Y-72260485D01*
X159148259Y-72212512D01*
X159131463Y-72144692D01*
X159153999Y-72078556D01*
X159199054Y-72039515D01*
X159207816Y-72035051D01*
X159298607Y-71969088D01*
X159379786Y-71910109D01*
X159379788Y-71910106D01*
X159379792Y-71910104D01*
X159530104Y-71759792D01*
X159530106Y-71759788D01*
X159530109Y-71759786D01*
X159655048Y-71587820D01*
X159655047Y-71587820D01*
X159655051Y-71587816D01*
X159751557Y-71398412D01*
X159817246Y-71196243D01*
X159850500Y-70986287D01*
X159850500Y-70899455D01*
X159870185Y-70832416D01*
X159922989Y-70786661D01*
X159992147Y-70776717D01*
X160041638Y-70795203D01*
G37*
%TD.AperFunction*%
M02*
