%TF.GenerationSoftware,KiCad,Pcbnew,9.0.7*%
%TF.CreationDate,2026-02-15T09:41:11+03:00*%
%TF.ProjectId,_______ 240_240,1438413f-3b35-4392-9032-343045323430,0*%
%TF.SameCoordinates,Original*%
%TF.FileFunction,Copper,L1,Top*%
%TF.FilePolarity,Positive*%
%FSLAX46Y46*%
G04 Gerber Fmt 4.6, Leading zero omitted, Abs format (unit mm)*
G04 Created by KiCad (PCBNEW 9.0.7) date 2026-02-15 09:41:11*
%MOMM*%
%LPD*%
G01*
G04 APERTURE LIST*
G04 Aperture macros list*
%AMRoundRect*
0 Rectangle with rounded corners*
0 $1 Rounding radius*
0 $2 $3 $4 $5 $6 $7 $8 $9 X,Y pos of 4 corners*
0 Add a 4 corners polygon primitive as box body*
4,1,4,$2,$3,$4,$5,$6,$7,$8,$9,$2,$3,0*
0 Add four circle primitives for the rounded corners*
1,1,$1+$1,$2,$3*
1,1,$1+$1,$4,$5*
1,1,$1+$1,$6,$7*
1,1,$1+$1,$8,$9*
0 Add four rect primitives between the rounded corners*
20,1,$1+$1,$2,$3,$4,$5,0*
20,1,$1+$1,$4,$5,$6,$7,0*
20,1,$1+$1,$6,$7,$8,$9,0*
20,1,$1+$1,$8,$9,$2,$3,0*%
%AMFreePoly0*
4,1,6,0.725000,-0.725000,-0.725000,-0.725000,-0.725000,0.125000,-0.125000,0.725000,0.725000,0.725000,0.725000,-0.725000,0.725000,-0.725000,$1*%
G04 Aperture macros list end*
%ADD10C,0.200000*%
%TA.AperFunction,Conductor*%
%ADD11C,0.807107*%
%TD*%
%TA.AperFunction,SMDPad,CuDef*%
%ADD12RoundRect,0.250000X-1.000000X-0.650000X1.000000X-0.650000X1.000000X0.650000X-1.000000X0.650000X0*%
%TD*%
%TA.AperFunction,SMDPad,CuDef*%
%ADD13RoundRect,0.150000X0.150000X-0.587500X0.150000X0.587500X-0.150000X0.587500X-0.150000X-0.587500X0*%
%TD*%
%TA.AperFunction,SMDPad,CuDef*%
%ADD14RoundRect,0.225000X0.250000X-0.225000X0.250000X0.225000X-0.250000X0.225000X-0.250000X-0.225000X0*%
%TD*%
%TA.AperFunction,SMDPad,CuDef*%
%ADD15RoundRect,0.250000X-0.457500X-0.445000X0.457500X-0.445000X0.457500X0.445000X-0.457500X0.445000X0*%
%TD*%
%TA.AperFunction,SMDPad,CuDef*%
%ADD16RoundRect,0.150000X-0.825000X-0.150000X0.825000X-0.150000X0.825000X0.150000X-0.825000X0.150000X0*%
%TD*%
%TA.AperFunction,SMDPad,CuDef*%
%ADD17R,1.700000X0.900000*%
%TD*%
%TA.AperFunction,SMDPad,CuDef*%
%ADD18RoundRect,0.200000X-0.275000X0.200000X-0.275000X-0.200000X0.275000X-0.200000X0.275000X0.200000X0*%
%TD*%
%TA.AperFunction,SMDPad,CuDef*%
%ADD19RoundRect,0.200000X-0.200000X-0.275000X0.200000X-0.275000X0.200000X0.275000X-0.200000X0.275000X0*%
%TD*%
%TA.AperFunction,SMDPad,CuDef*%
%ADD20RoundRect,0.250000X-0.275000X-0.700000X0.275000X-0.700000X0.275000X0.700000X-0.275000X0.700000X0*%
%TD*%
%TA.AperFunction,SMDPad,CuDef*%
%ADD21RoundRect,0.200000X0.275000X-0.200000X0.275000X0.200000X-0.275000X0.200000X-0.275000X-0.200000X0*%
%TD*%
%TA.AperFunction,SMDPad,CuDef*%
%ADD22RoundRect,0.243750X-0.456250X0.243750X-0.456250X-0.243750X0.456250X-0.243750X0.456250X0.243750X0*%
%TD*%
%TA.AperFunction,SMDPad,CuDef*%
%ADD23RoundRect,0.150000X0.150000X0.700000X-0.150000X0.700000X-0.150000X-0.700000X0.150000X-0.700000X0*%
%TD*%
%TA.AperFunction,SMDPad,CuDef*%
%ADD24RoundRect,0.250000X0.250000X1.150000X-0.250000X1.150000X-0.250000X-1.150000X0.250000X-1.150000X0*%
%TD*%
%TA.AperFunction,SMDPad,CuDef*%
%ADD25RoundRect,0.225000X0.225000X0.250000X-0.225000X0.250000X-0.225000X-0.250000X0.225000X-0.250000X0*%
%TD*%
%TA.AperFunction,SMDPad,CuDef*%
%ADD26RoundRect,0.125000X-0.487500X-0.125000X0.487500X-0.125000X0.487500X0.125000X-0.487500X0.125000X0*%
%TD*%
%TA.AperFunction,SMDPad,CuDef*%
%ADD27RoundRect,0.250000X-0.420000X-0.945000X0.420000X-0.945000X0.420000X0.945000X-0.420000X0.945000X0*%
%TD*%
%TA.AperFunction,SMDPad,CuDef*%
%ADD28RoundRect,0.150000X-0.587500X-0.150000X0.587500X-0.150000X0.587500X0.150000X-0.587500X0.150000X0*%
%TD*%
%TA.AperFunction,ComponentPad*%
%ADD29R,1.700000X1.700000*%
%TD*%
%TA.AperFunction,ComponentPad*%
%ADD30C,1.700000*%
%TD*%
%TA.AperFunction,SMDPad,CuDef*%
%ADD31R,0.800000X0.400000*%
%TD*%
%TA.AperFunction,SMDPad,CuDef*%
%ADD32R,0.400000X0.800000*%
%TD*%
%TA.AperFunction,SMDPad,CuDef*%
%ADD33FreePoly0,0.000000*%
%TD*%
%TA.AperFunction,SMDPad,CuDef*%
%ADD34R,1.450000X1.450000*%
%TD*%
%TA.AperFunction,SMDPad,CuDef*%
%ADD35R,0.700000X0.700000*%
%TD*%
%TA.AperFunction,SMDPad,CuDef*%
%ADD36RoundRect,0.250000X1.075000X-0.375000X1.075000X0.375000X-1.075000X0.375000X-1.075000X-0.375000X0*%
%TD*%
%TA.AperFunction,SMDPad,CuDef*%
%ADD37RoundRect,0.225000X-0.225000X-0.250000X0.225000X-0.250000X0.225000X0.250000X-0.225000X0.250000X0*%
%TD*%
%TA.AperFunction,SMDPad,CuDef*%
%ADD38RoundRect,0.150000X0.150000X-0.512500X0.150000X0.512500X-0.150000X0.512500X-0.150000X-0.512500X0*%
%TD*%
%TA.AperFunction,SMDPad,CuDef*%
%ADD39RoundRect,0.200000X0.200000X0.275000X-0.200000X0.275000X-0.200000X-0.275000X0.200000X-0.275000X0*%
%TD*%
%TA.AperFunction,SMDPad,CuDef*%
%ADD40RoundRect,0.150000X-0.512500X-0.150000X0.512500X-0.150000X0.512500X0.150000X-0.512500X0.150000X0*%
%TD*%
%TA.AperFunction,SMDPad,CuDef*%
%ADD41RoundRect,0.225000X0.225000X0.375000X-0.225000X0.375000X-0.225000X-0.375000X0.225000X-0.375000X0*%
%TD*%
%TA.AperFunction,ViaPad*%
%ADD42C,0.600000*%
%TD*%
%TA.AperFunction,ViaPad*%
%ADD43C,0.800000*%
%TD*%
%TA.AperFunction,Conductor*%
%ADD44C,0.200000*%
%TD*%
%TA.AperFunction,Conductor*%
%ADD45C,0.400000*%
%TD*%
%TA.AperFunction,Conductor*%
%ADD46C,0.500000*%
%TD*%
G04 APERTURE END LIST*
D10*
X140500000Y-90000000D02*
X140500000Y-90000000D01*
D11*
X145691553Y-87630000D02*
G75*
G02*
X144884447Y-87630000I-403553J0D01*
G01*
X144884447Y-87630000D02*
G75*
G02*
X145691553Y-87630000I403553J0D01*
G01*
X163603553Y-86300000D02*
G75*
G02*
X162796447Y-86300000I-403553J0D01*
G01*
X162796447Y-86300000D02*
G75*
G02*
X163603553Y-86300000I403553J0D01*
G01*
D12*
X161300000Y-91600000D03*
X165300000Y-91600000D03*
D13*
X140050000Y-99075000D03*
X141950000Y-99075000D03*
X141000000Y-97200000D03*
D14*
X142500000Y-72550000D03*
X142500000Y-71000000D03*
D15*
X163295000Y-84000000D03*
X166000000Y-84000000D03*
D16*
X134620000Y-86106000D03*
X134620000Y-87376000D03*
X134620000Y-88646000D03*
X134620000Y-89916000D03*
X139570000Y-89916000D03*
X139570000Y-88646000D03*
X139570000Y-87376000D03*
X139570000Y-86106000D03*
D17*
X138430000Y-79502000D03*
X138430000Y-76102000D03*
D18*
X153900000Y-92425000D03*
X153900000Y-94075000D03*
D19*
X146420000Y-103960000D03*
X148070000Y-103960000D03*
D20*
X161850000Y-79000000D03*
X165000000Y-79000000D03*
D21*
X145034000Y-90932000D03*
X145034000Y-89282000D03*
X143701000Y-85407000D03*
X143701000Y-83757000D03*
D22*
X155500000Y-103125000D03*
X155500000Y-105000000D03*
D23*
X155150000Y-97050000D03*
X153900000Y-97050000D03*
X152650000Y-97050000D03*
X151400000Y-97050000D03*
D24*
X157000000Y-100400000D03*
X149550000Y-100400000D03*
D25*
X142500000Y-77500000D03*
X140950000Y-77500000D03*
D26*
X150500000Y-103500000D03*
X150500000Y-104800000D03*
X152375000Y-104150000D03*
D27*
X159812500Y-95500000D03*
X162892500Y-95500000D03*
D28*
X136125000Y-82050000D03*
X136125000Y-83950000D03*
X138000000Y-83000000D03*
D21*
X149825000Y-86150000D03*
X149825000Y-84500000D03*
X142500000Y-81150000D03*
X142500000Y-79500000D03*
X143000000Y-90650000D03*
X143000000Y-89000000D03*
D19*
X143440000Y-103980000D03*
X145090000Y-103980000D03*
D29*
X158500000Y-78500000D03*
D30*
X158500000Y-75960000D03*
X158500000Y-73420000D03*
X158500000Y-70880000D03*
D21*
X151500000Y-86150000D03*
X151500000Y-84500000D03*
D31*
X144150000Y-71950000D03*
X144150000Y-72750000D03*
X144150000Y-73550000D03*
X144150000Y-74350000D03*
X144150000Y-75150000D03*
X144150000Y-75950000D03*
X144150000Y-76750000D03*
X144150000Y-77550000D03*
X144150000Y-78350000D03*
X144150000Y-79150000D03*
X144150000Y-79950000D03*
D32*
X145250000Y-80850000D03*
X146050000Y-80850000D03*
X146850000Y-80850000D03*
X147650000Y-80850000D03*
X148450000Y-80850000D03*
X149250000Y-80850000D03*
X150050000Y-80850000D03*
X150850000Y-80850000D03*
X151650000Y-80850000D03*
X152450000Y-80850000D03*
X153250000Y-80850000D03*
X154050000Y-80850000D03*
X154850000Y-80850000D03*
D31*
X155950000Y-79950000D03*
X155950000Y-79150000D03*
X155950000Y-78350000D03*
X155950000Y-77550000D03*
X155950000Y-76750000D03*
X155950000Y-75950000D03*
X155950000Y-75150000D03*
X155950000Y-74350000D03*
X155950000Y-73550000D03*
X155950000Y-72750000D03*
X155950000Y-71950000D03*
D32*
X154850000Y-71050000D03*
X154050000Y-71050000D03*
X153250000Y-71050000D03*
X152450000Y-71050000D03*
X151650000Y-71050000D03*
X150850000Y-71050000D03*
X150050000Y-71050000D03*
X149250000Y-71050000D03*
X148450000Y-71050000D03*
X147650000Y-71050000D03*
X146850000Y-71050000D03*
X146050000Y-71050000D03*
X145250000Y-71050000D03*
D33*
X148075000Y-73975000D03*
D34*
X148075000Y-75950000D03*
X148075000Y-77925000D03*
X150050000Y-73975000D03*
X150050000Y-75950000D03*
X150050000Y-77925000D03*
X152025000Y-73975000D03*
X152025000Y-75950000D03*
X152025000Y-77925000D03*
D35*
X156000000Y-71000000D03*
X156000000Y-80900000D03*
X144100000Y-80900000D03*
X144100000Y-71000000D03*
D36*
X160000000Y-88325000D03*
X160000000Y-85525000D03*
D19*
X145850000Y-85000000D03*
X147500000Y-85000000D03*
D37*
X160450000Y-98500000D03*
X162000000Y-98500000D03*
D38*
X158600000Y-83000000D03*
X159550000Y-83000000D03*
X160500000Y-83000000D03*
X160500000Y-80725000D03*
X158600000Y-80725000D03*
D39*
X142200000Y-100800000D03*
X140550000Y-100800000D03*
D18*
X134000000Y-82350000D03*
X134000000Y-84000000D03*
X143400000Y-92200000D03*
X143400000Y-93850000D03*
D26*
X161125000Y-74350000D03*
X161125000Y-75650000D03*
X163000000Y-75000000D03*
D19*
X145850000Y-83500000D03*
X147500000Y-83500000D03*
D39*
X138600000Y-97000000D03*
X136950000Y-97000000D03*
D40*
X156225000Y-91100000D03*
X156225000Y-92050000D03*
X156225000Y-93000000D03*
X158500000Y-93000000D03*
X158500000Y-92050000D03*
X158500000Y-91100000D03*
D18*
X153910000Y-89350000D03*
X153910000Y-91000000D03*
D25*
X157550000Y-89500000D03*
X156000000Y-89500000D03*
D37*
X141960000Y-86868000D03*
X143510000Y-86868000D03*
D38*
X148722000Y-91948000D03*
X150622000Y-91948000D03*
X149672000Y-89673000D03*
D37*
X145312800Y-92400000D03*
X146862800Y-92400000D03*
D41*
X157150000Y-87500000D03*
X153850000Y-87500000D03*
D15*
X154000000Y-85000000D03*
X156705000Y-85000000D03*
D16*
X136050000Y-91600000D03*
X136050000Y-92870000D03*
X136050000Y-94140000D03*
X136050000Y-95410000D03*
X141000000Y-95410000D03*
X141000000Y-94140000D03*
X141000000Y-92870000D03*
X141000000Y-91600000D03*
D42*
X154000000Y-77000000D03*
X136455500Y-86544500D03*
X155000000Y-76000000D03*
X132969000Y-86487000D03*
X136050000Y-91600000D03*
X161500000Y-99500000D03*
X146800000Y-72700000D03*
D43*
X151600000Y-88600000D03*
D42*
X149500000Y-88000000D03*
X155000000Y-95800000D03*
X141709999Y-88541001D03*
X139475000Y-94360934D03*
X150805000Y-94305000D03*
X145034000Y-91058000D03*
X144000000Y-105000000D03*
X149251057Y-93601000D03*
X142000000Y-99000000D03*
X142620265Y-91479735D03*
X139500000Y-93250000D03*
X153950000Y-98300000D03*
X155689064Y-83000000D03*
X157500000Y-82000000D03*
X148000000Y-88000000D03*
X149500000Y-82000000D03*
X136000000Y-81500000D03*
X145500000Y-75000000D03*
X148500000Y-82000000D03*
X145450000Y-80039949D03*
X151500000Y-82000000D03*
X150500000Y-82000000D03*
X150976072Y-79500000D03*
X140500000Y-79000000D03*
X143000000Y-75399000D03*
X143000000Y-82500000D03*
X152000000Y-79500000D03*
X139446000Y-84582000D03*
X143764000Y-83566000D03*
X143764000Y-85344000D03*
X163500000Y-76000000D03*
X162000000Y-85500000D03*
X138516480Y-82000000D03*
X140500000Y-84000000D03*
X138430000Y-76102000D03*
X143000000Y-77000000D03*
D44*
X140919200Y-95554800D02*
X141935200Y-95554800D01*
X141935200Y-95554800D02*
X142399000Y-95091000D01*
X144508000Y-93200000D02*
X146372800Y-93200000D01*
X142399000Y-95091000D02*
X142399000Y-93550968D01*
X142399000Y-93550968D02*
X142985968Y-92964000D01*
X142985968Y-92964000D02*
X144272000Y-92964000D01*
X144272000Y-92964000D02*
X144508000Y-93200000D01*
X146862800Y-90637200D02*
X149500000Y-88000000D01*
X146372800Y-93200000D02*
X146862800Y-92710000D01*
X146862800Y-92710000D02*
X146862800Y-90637200D01*
X139954000Y-77500000D02*
X139924000Y-77500000D01*
X139924000Y-77500000D02*
X138430000Y-78994000D01*
X138430000Y-78994000D02*
X138430000Y-79502000D01*
X142500000Y-71000000D02*
X142460000Y-70960000D01*
X142460000Y-70960000D02*
X141040000Y-70960000D01*
X141040000Y-70960000D02*
X139954000Y-72046000D01*
X139954000Y-72046000D02*
X139954000Y-77470000D01*
X138430000Y-79502000D02*
X138430000Y-79705000D01*
X138430000Y-79705000D02*
X142225000Y-83500000D01*
X142225000Y-83500000D02*
X142225000Y-86603000D01*
X138430000Y-79502000D02*
X138232000Y-79700000D01*
X138232000Y-79700000D02*
X138000000Y-79700000D01*
D45*
X153200000Y-105000000D02*
X155500000Y-105000000D01*
X152375000Y-104150000D02*
X152375000Y-104175000D01*
X152375000Y-104175000D02*
X153200000Y-105000000D01*
X150500000Y-103500000D02*
X151400000Y-102600000D01*
X151400000Y-102600000D02*
X151400000Y-97050000D01*
D44*
X136017000Y-86106000D02*
X134620000Y-86106000D01*
X133645001Y-89916000D02*
X134620000Y-89916000D01*
X134620000Y-94466968D02*
X134620000Y-89916000D01*
X135653032Y-95500000D02*
X134620000Y-94466968D01*
X154000000Y-75500000D02*
X154000000Y-77000000D01*
X136455500Y-86544500D02*
X136017000Y-86106000D01*
X155950000Y-75950000D02*
X155900000Y-76000000D01*
X155900000Y-76000000D02*
X155000000Y-76000000D01*
X132969000Y-89239999D02*
X133645001Y-89916000D01*
X154350000Y-75150000D02*
X154000000Y-75500000D01*
X155950000Y-75150000D02*
X154350000Y-75150000D01*
X132969000Y-86487000D02*
X132969000Y-89239999D01*
X136000000Y-95500000D02*
X135653032Y-95500000D01*
D45*
X144150000Y-71050000D02*
X144100000Y-71000000D01*
D44*
X149721000Y-90200000D02*
X149753500Y-90232500D01*
D45*
X152025000Y-73975000D02*
X152025000Y-77925000D01*
X145800000Y-72700000D02*
X144100000Y-71000000D01*
D44*
X140550000Y-100800000D02*
X141000000Y-100350000D01*
D45*
X165200000Y-77200000D02*
X166359076Y-78359076D01*
X144100000Y-80000000D02*
X144150000Y-79950000D01*
D44*
X136125000Y-84450000D02*
X137781000Y-86106000D01*
D45*
X162000000Y-99000000D02*
X162000000Y-96392500D01*
X159550000Y-82504112D02*
X160251710Y-81802402D01*
X152025000Y-75950000D02*
X148075000Y-75950000D01*
D44*
X146551000Y-81551000D02*
X144751000Y-81551000D01*
X157400000Y-92200000D02*
X157400000Y-93600000D01*
D45*
X152025000Y-77925000D02*
X148075000Y-77925000D01*
D44*
X146850000Y-80850000D02*
X146850000Y-81252000D01*
D45*
X135325001Y-84000000D02*
X135375001Y-83950000D01*
X166359076Y-78359076D02*
X166434909Y-78521456D01*
D44*
X146850000Y-81252000D02*
X146551000Y-81551000D01*
D45*
X144150000Y-79950000D02*
X144550000Y-79950000D01*
X156705000Y-81605000D02*
X156000000Y-80900000D01*
D44*
X144100000Y-80900000D02*
X144100000Y-80000000D01*
D45*
X158500000Y-78950000D02*
X158500000Y-78307182D01*
D44*
X136511000Y-87376000D02*
X137781000Y-86106000D01*
D45*
X144150000Y-72750000D02*
X144150000Y-71050000D01*
D46*
X153700000Y-87500000D02*
X153705000Y-87500000D01*
D44*
X144550000Y-79950000D02*
X146575000Y-77925000D01*
X156629468Y-92000000D02*
X157200000Y-92000000D01*
X149500000Y-88000000D02*
X149672000Y-88172000D01*
X140950000Y-77500000D02*
X139950000Y-77500000D01*
D45*
X159607182Y-77200000D02*
X165200000Y-77200000D01*
X159550000Y-83000000D02*
X159550000Y-82504112D01*
X146800000Y-72700000D02*
X145800000Y-72700000D01*
X147500000Y-77925000D02*
X148075000Y-77925000D01*
D44*
X141000000Y-97200000D02*
X141000000Y-95410000D01*
D45*
X135375001Y-83950000D02*
X136125000Y-83950000D01*
X156550000Y-80900000D02*
X158500000Y-78950000D01*
X153900000Y-94712500D02*
X155150000Y-95962500D01*
D44*
X154925000Y-94075000D02*
X153900000Y-94075000D01*
X151000000Y-88000000D02*
X149500000Y-88000000D01*
D45*
X166500000Y-89500000D02*
X166500000Y-81795000D01*
X156000000Y-71000000D02*
X144100000Y-71000000D01*
X166500000Y-93000000D02*
X166500000Y-89500000D01*
X148075000Y-73975000D02*
X146800000Y-72700000D01*
X166434909Y-78521456D02*
X166500000Y-78668751D01*
D44*
X154930000Y-94070000D02*
X154925000Y-94075000D01*
D45*
X150050000Y-73975000D02*
X150050000Y-77925000D01*
X142225000Y-86603000D02*
X141960000Y-86868000D01*
D44*
X137781000Y-86106000D02*
X141198000Y-86106000D01*
D45*
X151600000Y-88608000D02*
X152000000Y-89008000D01*
X152000000Y-89008000D02*
X152000000Y-94000000D01*
D44*
X136125000Y-83950000D02*
X136125000Y-84450000D01*
X156225000Y-92050000D02*
X156579468Y-92050000D01*
D45*
X166500000Y-78668751D02*
X166500000Y-89500000D01*
D44*
X144100000Y-71000000D02*
X142500000Y-71000000D01*
D45*
X162000000Y-96392500D02*
X162892500Y-95500000D01*
X153900000Y-94075000D02*
X153900000Y-94712500D01*
X160251710Y-81802402D02*
X166302402Y-81802402D01*
X148075000Y-73975000D02*
X152025000Y-73975000D01*
D44*
X156579468Y-92050000D02*
X156629468Y-92000000D01*
D45*
X152075000Y-94075000D02*
X153900000Y-94075000D01*
D44*
X156930000Y-94070000D02*
X154930000Y-94070000D01*
D45*
X161500000Y-99500000D02*
X162000000Y-99000000D01*
D44*
X146575000Y-77925000D02*
X147500000Y-77925000D01*
X141000000Y-100350000D02*
X141000000Y-97200000D01*
X157400000Y-93600000D02*
X156930000Y-94070000D01*
D45*
X163392500Y-95000000D02*
X164500000Y-95000000D01*
X155150000Y-95962500D02*
X155150000Y-97050000D01*
X152000000Y-88200000D02*
X152000000Y-87705000D01*
X151600000Y-88600000D02*
X152000000Y-88200000D01*
X156705000Y-85000000D02*
X156705000Y-81605000D01*
D44*
X141198000Y-86106000D02*
X141960000Y-86868000D01*
D45*
X156000000Y-80900000D02*
X156550000Y-80900000D01*
X164500000Y-95000000D02*
X166500000Y-93000000D01*
X152205000Y-87500000D02*
X153700000Y-87500000D01*
X162892500Y-95500000D02*
X163392500Y-95000000D01*
D44*
X157200000Y-92000000D02*
X157400000Y-92200000D01*
D45*
X134000000Y-84000000D02*
X135325001Y-84000000D01*
D44*
X134620000Y-87376000D02*
X136511000Y-87376000D01*
D45*
X158500000Y-78307182D02*
X159607182Y-77200000D01*
D44*
X151600000Y-88600000D02*
X151000000Y-88000000D01*
X144751000Y-81551000D02*
X144100000Y-80900000D01*
D45*
X151600000Y-88600000D02*
X151600000Y-88608000D01*
X152000000Y-94000000D02*
X152075000Y-94075000D01*
D44*
X149672000Y-88172000D02*
X149672000Y-89673000D01*
D45*
X148075000Y-77925000D02*
X148075000Y-73975000D01*
X152000000Y-87705000D02*
X152205000Y-87500000D01*
D44*
X141709999Y-88541001D02*
X140544999Y-87376000D01*
X150805000Y-94305000D02*
X152650000Y-96150000D01*
X139605934Y-94230000D02*
X139475000Y-94360934D01*
X150799000Y-101337160D02*
X148156160Y-103980000D01*
X150805000Y-95695000D02*
X150799000Y-95701000D01*
X152650000Y-96150000D02*
X152650000Y-97050000D01*
X139475000Y-94360934D02*
X139475000Y-98500000D01*
X148248942Y-93899000D02*
X143526000Y-93899000D01*
X150799000Y-95701000D02*
X150799000Y-101337160D01*
X140950000Y-94230000D02*
X139605934Y-94230000D01*
X139475000Y-98500000D02*
X140050000Y-99075000D01*
X150805000Y-94305000D02*
X150805000Y-95695000D01*
X150805000Y-94305000D02*
X148654942Y-94305000D01*
X145034000Y-91058000D02*
X145000000Y-91092000D01*
X150805000Y-94305000D02*
X150622000Y-94122000D01*
X148654942Y-94305000D02*
X148248942Y-93899000D01*
X150622000Y-94122000D02*
X150622000Y-91948000D01*
X140544999Y-87376000D02*
X139570000Y-87376000D01*
X140544999Y-88646000D02*
X142548999Y-90650000D01*
X142620265Y-91479735D02*
X142620265Y-91063762D01*
X153900000Y-97050000D02*
X153900000Y-98250000D01*
X143335000Y-104335000D02*
X144000000Y-105000000D01*
X142200000Y-99325000D02*
X141950000Y-99075000D01*
X140950000Y-92960000D02*
X139790000Y-92960000D01*
X153900000Y-98250000D02*
X153950000Y-98300000D01*
X149251057Y-93363057D02*
X148722000Y-92834000D01*
X139570000Y-88646000D02*
X140544999Y-88646000D01*
X139790000Y-92960000D02*
X139500000Y-93250000D01*
X148722000Y-92834000D02*
X148722000Y-91948000D01*
X149251057Y-93601000D02*
X149251057Y-93363057D01*
X143000000Y-90684027D02*
X143000000Y-90650000D01*
X142548999Y-90650000D02*
X143000000Y-90650000D01*
X142620265Y-91063762D02*
X143000000Y-90684027D01*
X142200000Y-100800000D02*
X142200000Y-99325000D01*
X143335000Y-104000000D02*
X143335000Y-104335000D01*
X154325000Y-93000000D02*
X154000000Y-92675000D01*
X156225000Y-93000000D02*
X154325000Y-93000000D01*
X154000000Y-91000000D02*
X154000000Y-92675000D01*
X156000000Y-90500000D02*
X156000000Y-89500000D01*
X156225000Y-90725000D02*
X156000000Y-90500000D01*
X156225000Y-91100000D02*
X156225000Y-90725000D01*
X152850000Y-86150000D02*
X149850000Y-86150000D01*
X141724000Y-80374000D02*
X141724000Y-75776000D01*
X145810000Y-92212800D02*
X145622800Y-92400000D01*
X157500000Y-82000000D02*
X159225000Y-82000000D01*
X142500000Y-81150000D02*
X141724000Y-80374000D01*
X145810000Y-88152000D02*
X145810000Y-92212800D01*
X138600000Y-92032000D02*
X138887200Y-91744800D01*
X148000000Y-87150000D02*
X148000000Y-88000000D01*
X138600000Y-97000000D02*
X138600000Y-92032000D01*
X142036800Y-91744800D02*
X138887200Y-91744800D01*
X155689064Y-83000000D02*
X153689064Y-85000000D01*
X142500000Y-75000000D02*
X142500000Y-72550000D01*
X145850000Y-85000000D02*
X148000000Y-87150000D01*
X143500000Y-73550000D02*
X142500000Y-72550000D01*
X134620000Y-88646000D02*
X135788400Y-88646000D01*
X145658000Y-88000000D02*
X145810000Y-88152000D01*
X135788400Y-88646000D02*
X138887200Y-91744800D01*
X145312800Y-92400000D02*
X145112800Y-92200000D01*
X145112800Y-92200000D02*
X142492000Y-92200000D01*
X144150000Y-73550000D02*
X143500000Y-73550000D01*
X145850000Y-83500000D02*
X144850000Y-83500000D01*
X148000000Y-88000000D02*
X145658000Y-88000000D01*
X142492000Y-92200000D02*
X142036800Y-91744800D01*
X148000000Y-88000000D02*
X146950000Y-88000000D01*
X145622800Y-92400000D02*
X145312800Y-92400000D01*
X139975001Y-91690000D02*
X140950000Y-91690000D01*
X141724000Y-75776000D02*
X142500000Y-75000000D01*
X160500000Y-80725000D02*
X159213064Y-82011936D01*
X163275000Y-80725000D02*
X165000000Y-79000000D01*
X149850000Y-86150000D02*
X148000000Y-88000000D01*
X144850000Y-83500000D02*
X142500000Y-81150000D01*
X159225000Y-82000000D02*
X160500000Y-80725000D01*
X154000000Y-85000000D02*
X152850000Y-86150000D01*
X160500000Y-80725000D02*
X163275000Y-80725000D01*
X145850000Y-85000000D02*
X145850000Y-83500000D01*
X160325000Y-79000000D02*
X161850000Y-79000000D01*
X158600000Y-80725000D02*
X160325000Y-79000000D01*
X148000000Y-83500000D02*
X150050000Y-81450000D01*
X147500000Y-83500000D02*
X148000000Y-83500000D01*
X150050000Y-81450000D02*
X150050000Y-80850000D01*
X154050000Y-81950000D02*
X154050000Y-80850000D01*
X151500000Y-84500000D02*
X154050000Y-81950000D01*
X153250000Y-81175000D02*
X153250000Y-80850000D01*
X149825000Y-84600000D02*
X153250000Y-81175000D01*
X134500000Y-82350000D02*
X134000000Y-82350000D01*
X136000000Y-81500000D02*
X136000000Y-81925000D01*
X136000000Y-81925000D02*
X136125000Y-82050000D01*
X144550000Y-75950000D02*
X145500000Y-75000000D01*
X136125000Y-82050000D02*
X134800000Y-82050000D01*
X134800000Y-82050000D02*
X134500000Y-82350000D01*
X144150000Y-75950000D02*
X144550000Y-75950000D01*
X148500000Y-82000000D02*
X148450000Y-81950000D01*
X148450000Y-81950000D02*
X148450000Y-80850000D01*
X145250000Y-80850000D02*
X145250000Y-80239949D01*
X145250000Y-80239949D02*
X145450000Y-80039949D01*
X151500000Y-81000000D02*
X151650000Y-80850000D01*
X151500000Y-82000000D02*
X151500000Y-81000000D01*
X147500000Y-85000000D02*
X150850000Y-81650000D01*
X150850000Y-81650000D02*
X150850000Y-80850000D01*
X150976072Y-79500000D02*
X146500000Y-79500000D01*
X146050000Y-79950000D02*
X146050000Y-80850000D01*
X146500000Y-79500000D02*
X146050000Y-79950000D01*
X143000000Y-75399000D02*
X143249000Y-75150000D01*
X143000000Y-82500000D02*
X142500000Y-82500000D01*
X143249000Y-75150000D02*
X144150000Y-75150000D01*
X142500000Y-82500000D02*
X140500000Y-80500000D01*
X140500000Y-80500000D02*
X140500000Y-79000000D01*
X152000000Y-79500000D02*
X152450000Y-79950000D01*
X152450000Y-79950000D02*
X152450000Y-80850000D01*
X138000000Y-83000000D02*
X139446000Y-84446000D01*
X139446000Y-84446000D02*
X139446000Y-84582000D01*
X156651000Y-74849000D02*
X156651000Y-78249000D01*
X156550000Y-78350000D02*
X155950000Y-78350000D01*
X158500000Y-73420000D02*
X158080000Y-73420000D01*
X156651000Y-78249000D02*
X156550000Y-78350000D01*
X158080000Y-73420000D02*
X156651000Y-74849000D01*
X158500000Y-75960000D02*
X157540000Y-75960000D01*
X157540000Y-75960000D02*
X157052000Y-76448000D01*
X156350000Y-79150000D02*
X155950000Y-79150000D01*
X157052000Y-78448000D02*
X156350000Y-79150000D01*
X157052000Y-76448000D02*
X157052000Y-78448000D01*
X158600000Y-83662499D02*
X158901001Y-83963500D01*
X155500000Y-87675000D02*
X154000000Y-89175000D01*
X161975000Y-85525000D02*
X160000000Y-85525000D01*
X160000000Y-85525000D02*
X159525000Y-86000000D01*
X160500000Y-83662499D02*
X160500000Y-83000000D01*
X163000000Y-75500000D02*
X163500000Y-76000000D01*
X162000000Y-85500000D02*
X161975000Y-85525000D01*
X163295000Y-84000000D02*
X161500000Y-84000000D01*
X158901001Y-83963500D02*
X160198999Y-83963500D01*
X161500000Y-84000000D02*
X160500000Y-83000000D01*
X162000000Y-85500000D02*
X163500000Y-84000000D01*
X156150000Y-86000000D02*
X155500000Y-86650000D01*
X162000000Y-85500000D02*
X162400000Y-85500000D01*
X158600000Y-83000000D02*
X158600000Y-83662499D01*
X163000000Y-75000000D02*
X163000000Y-75500000D01*
X155500000Y-86650000D02*
X155500000Y-87675000D01*
X162400000Y-85500000D02*
X163200000Y-86300000D01*
X159525000Y-86000000D02*
X156150000Y-86000000D01*
X160198999Y-83963500D02*
X160500000Y-83662499D01*
D45*
X158500000Y-93000000D02*
X159812500Y-94312500D01*
X160000000Y-92500000D02*
X161500000Y-91000000D01*
X160450000Y-98500000D02*
X160450000Y-97550000D01*
D44*
X158500000Y-93000000D02*
X158500000Y-92050000D01*
D45*
X156250000Y-98500000D02*
X160450000Y-98500000D01*
X160000000Y-95312500D02*
X160000000Y-92500000D01*
X160000000Y-97100000D02*
X160000000Y-95687500D01*
X155500000Y-99250000D02*
X156250000Y-98500000D01*
X155500000Y-103125000D02*
X155500000Y-99250000D01*
D44*
X160000000Y-95687500D02*
X159812500Y-95500000D01*
D45*
X160450000Y-97550000D02*
X160000000Y-97100000D01*
D44*
X157550000Y-88550000D02*
X157000000Y-88000000D01*
X158000000Y-89500000D02*
X159000000Y-88500000D01*
X157550000Y-89000000D02*
X157550000Y-88550000D01*
X157550000Y-89500000D02*
X158000000Y-89500000D01*
X158500000Y-91100000D02*
X157550000Y-90150000D01*
X157550000Y-90150000D02*
X157550000Y-89000000D01*
X157000000Y-88000000D02*
X157000000Y-87000000D01*
X159000000Y-88500000D02*
X160000000Y-88500000D01*
X143408000Y-89408000D02*
X143000000Y-89000000D01*
X143000000Y-89000000D02*
X143000000Y-87378000D01*
X145034000Y-89408000D02*
X143408000Y-89408000D01*
X143000000Y-87378000D02*
X143510000Y-86868000D01*
X161125000Y-72625000D02*
X161125000Y-74350000D01*
X159500000Y-71000000D02*
X161125000Y-72625000D01*
X158500000Y-71000000D02*
X159500000Y-71000000D01*
X142500000Y-78798000D02*
X143748000Y-77550000D01*
X139674265Y-83174265D02*
X139674265Y-83157785D01*
X142500000Y-79500000D02*
X142500000Y-78798000D01*
X143550000Y-77550000D02*
X143000000Y-77000000D01*
X144150000Y-77550000D02*
X143550000Y-77550000D01*
X143000000Y-77000000D02*
X142500000Y-77500000D01*
X143748000Y-77550000D02*
X144150000Y-77550000D01*
X139674265Y-83157785D02*
X138516480Y-82000000D01*
X140500000Y-84000000D02*
X139674265Y-83174265D01*
X145110000Y-103960000D02*
X145090000Y-103980000D01*
X146420000Y-103960000D02*
X145110000Y-103960000D01*
X137400000Y-94400000D02*
X137140000Y-94140000D01*
X136000000Y-94230000D02*
X136000000Y-92960000D01*
X137400000Y-96550000D02*
X137400000Y-94400000D01*
X136950000Y-97000000D02*
X137400000Y-96550000D01*
X137140000Y-94140000D02*
X136050000Y-94140000D01*
M02*
