%FSLAX34Y34*%
%MOMM*%
%LNCOPPER_TOP*%
G71*
G01*
%ADD10R, 1.43X0.80*%
%ADD11R, 3.00X1.50*%
%ADD12R, 1.80X1.38*%
%ADD13R, 1.10X0.70*%
%ADD14R, 1.00X1.02*%
%ADD15C, 0.00*%
%ADD16C, 0.50*%
%ADD17C, 0.30*%
%ADD18R, 0.70X2.20*%
%ADD19R, 2.52X1.00*%
%ADD20R, 2.51X1.01*%
%ADD21C, 0.70*%
%ADD22C, 1.60*%
%LPD*%
X172182Y17896D02*
G54D10*
D03*
X172216Y39196D02*
G54D10*
D03*
X174932Y80927D02*
G54D11*
D03*
X174932Y118927D02*
G54D11*
D03*
X142254Y45573D02*
G54D12*
D03*
X142254Y15573D02*
G54D12*
D03*
X115222Y61425D02*
G54D13*
D03*
X115222Y42425D02*
G54D13*
D03*
X88222Y61425D02*
G54D13*
D03*
X88222Y42425D02*
G54D13*
D03*
X88222Y51925D02*
G54D13*
D03*
X115222Y51925D02*
G54D13*
D03*
X72137Y35682D02*
G54D10*
D03*
X72130Y14379D02*
G54D10*
D03*
X72137Y73782D02*
G54D10*
D03*
X72130Y52479D02*
G54D10*
D03*
X97802Y102051D02*
G54D14*
D03*
X62902Y102051D02*
G54D14*
D03*
G36*
X153213Y125622D02*
X153213Y110622D01*
X120713Y110622D01*
X120713Y125622D01*
X153213Y125622D01*
G37*
G54D15*
X153213Y125622D02*
X153213Y110622D01*
X120713Y110622D01*
X120713Y125622D01*
X153213Y125622D01*
G36*
X153213Y76972D02*
X153213Y91972D01*
X120713Y91972D01*
X120713Y76972D01*
X153213Y76972D01*
G37*
G54D15*
X153213Y76972D02*
X153213Y91972D01*
X120713Y91972D01*
X120713Y76972D01*
X153213Y76972D01*
G36*
X87753Y87178D02*
X95753Y87178D01*
X95753Y72878D01*
X87753Y72878D01*
X87753Y87178D01*
G37*
G54D15*
X87753Y87178D02*
X95753Y87178D01*
X95753Y72878D01*
X87753Y72878D01*
X87753Y87178D01*
G36*
X109052Y87144D02*
X117052Y87144D01*
X117053Y72844D01*
X109053Y72844D01*
X109052Y87144D01*
G37*
G54D15*
X109052Y87144D02*
X117052Y87144D01*
X117053Y72844D01*
X109053Y72844D01*
X109052Y87144D01*
G54D16*
X88455Y51199D02*
X95514Y51199D01*
X101984Y44729D01*
X101984Y19429D01*
X109454Y11959D01*
G54D16*
X87278Y41788D02*
X87278Y38846D01*
X83749Y35317D01*
X71984Y35317D01*
G54D16*
X87278Y62111D02*
X87278Y71199D01*
X92572Y76494D01*
G54D16*
X116690Y62376D02*
X116690Y74141D01*
X113161Y77670D01*
G54D16*
X72013Y11826D02*
X185202Y11827D01*
X210969Y37595D01*
X226479Y37595D01*
G54D16*
X116463Y49926D02*
X116462Y42243D01*
X174932Y42243D01*
X174932Y80927D01*
G54D16*
X97283Y100326D02*
X105231Y100270D01*
X114337Y90611D01*
X114337Y82376D01*
G54D17*
X71123Y37678D02*
X71123Y50378D01*
G54D16*
X137112Y80018D02*
X114621Y79813D01*
G54D16*
X58229Y96234D02*
X58228Y21742D01*
X66373Y13598D01*
G54D16*
X75111Y74447D02*
X75075Y104731D01*
X96574Y126230D01*
X140200Y126230D01*
X152900Y102100D01*
X191000Y102100D01*
X203700Y89400D01*
X203700Y59483D01*
X272987Y59483D01*
X281170Y51300D01*
X281170Y38600D01*
G36*
X252535Y45902D02*
X259535Y45902D01*
X259535Y23902D01*
X252535Y23902D01*
X252535Y45902D01*
G37*
G54D15*
X252535Y45902D02*
X259535Y45902D01*
X259535Y23902D01*
X252535Y23902D01*
X252535Y45902D01*
X268735Y34902D02*
G54D18*
D03*
X281435Y34902D02*
G54D18*
D03*
X294135Y34902D02*
G54D18*
D03*
X294135Y88902D02*
G54D18*
D03*
X281435Y88902D02*
G54D18*
D03*
G36*
X265235Y99902D02*
X272235Y99902D01*
X272235Y77902D01*
X265235Y77902D01*
X265235Y99902D01*
G37*
G54D15*
X265235Y99902D02*
X272235Y99902D01*
X272235Y77902D01*
X265235Y77902D01*
X265235Y99902D01*
G36*
X252535Y99902D02*
X259535Y99902D01*
X259535Y77902D01*
X252535Y77902D01*
X252535Y99902D01*
G37*
G54D15*
X252535Y99902D02*
X259535Y99902D01*
X259535Y77902D01*
X252535Y77902D01*
X252535Y99902D01*
X205938Y59483D02*
G54D19*
D03*
X205973Y27683D02*
G54D20*
D03*
X228986Y58895D02*
G54D10*
D03*
X229019Y37595D02*
G54D10*
D03*
G54D17*
X319831Y43920D02*
X307475Y56276D01*
X287913Y56276D01*
X268863Y75326D01*
X268863Y81676D01*
G54D17*
X281563Y88026D02*
X281563Y75326D01*
X292969Y63920D01*
X319831Y63920D01*
G54D17*
X179963Y11826D02*
X307737Y11826D01*
X319831Y23920D01*
X332363Y36452D01*
X332363Y71388D01*
X319831Y83920D01*
X299831Y103920D01*
X259357Y103920D01*
X254363Y97641D01*
G54D16*
X319831Y103920D02*
X300061Y123690D01*
X241800Y123690D01*
X295266Y19545D02*
G54D21*
D03*
X255896Y19545D02*
G54D21*
D03*
G54D17*
X268735Y34902D02*
X268735Y13108D01*
G54D17*
X295362Y19656D02*
X295362Y29142D01*
X293978Y30526D01*
G54D16*
X43062Y86540D02*
X62902Y102051D01*
X245278Y60521D02*
G54D21*
D03*
G36*
X208400Y126610D02*
X224400Y126610D01*
X224400Y110610D01*
X208400Y110610D01*
X208400Y126610D01*
G37*
G36*
X236400Y126610D02*
X252400Y126610D01*
X252400Y110610D01*
X236400Y110610D01*
X236400Y126610D01*
G37*
G54D16*
X216400Y118610D02*
X175249Y118610D01*
X174932Y118927D01*
X319831Y103920D02*
G54D22*
D03*
X319831Y83920D02*
G54D22*
D03*
X319831Y63920D02*
G54D22*
D03*
X319831Y43920D02*
G54D22*
D03*
X319831Y23920D02*
G54D22*
D03*
X43062Y106540D02*
G54D22*
D03*
X43062Y86540D02*
G54D22*
D03*
X43062Y66540D02*
G54D22*
D03*
X43062Y46540D02*
G54D22*
D03*
M02*
