%FSLAX34Y34*%
%MOMM*%
%LNSOLDERMASK_TOP*%
G71*
G01*
%ADD10R, 1.73X1.10*%
%ADD11R, 3.30X1.80*%
%ADD12R, 2.10X1.68*%
%ADD13R, 1.40X1.00*%
%ADD14R, 1.30X1.32*%
%ADD15C, 0.30*%
%ADD16R, 1.00X2.50*%
%ADD17R, 2.82X1.30*%
%ADD18R, 2.81X1.31*%
%ADD19C, 2.20*%
%LPD*%
X172182Y17896D02*
G54D10*
D03*
X172216Y39196D02*
G54D10*
D03*
X174932Y80927D02*
G54D11*
D03*
X174932Y118927D02*
G54D11*
D03*
X142254Y45573D02*
G54D12*
D03*
X142254Y15573D02*
G54D12*
D03*
X115222Y61425D02*
G54D13*
D03*
X115222Y42425D02*
G54D13*
D03*
X88222Y61425D02*
G54D13*
D03*
X88222Y42425D02*
G54D13*
D03*
X88222Y51925D02*
G54D13*
D03*
X115222Y51925D02*
G54D13*
D03*
X72137Y35682D02*
G54D10*
D03*
X72130Y14379D02*
G54D10*
D03*
X72137Y73782D02*
G54D10*
D03*
X72130Y52479D02*
G54D10*
D03*
X97802Y102051D02*
G54D14*
D03*
X62902Y102051D02*
G54D14*
D03*
G36*
X153213Y125622D02*
X153213Y110622D01*
X120713Y110622D01*
X120713Y125622D01*
X153213Y125622D01*
G37*
G54D15*
X153213Y125622D02*
X153213Y110622D01*
X120713Y110622D01*
X120713Y125622D01*
X153213Y125622D01*
G36*
X153213Y76972D02*
X153213Y91972D01*
X120713Y91972D01*
X120713Y76972D01*
X153213Y76972D01*
G37*
G54D15*
X153213Y76972D02*
X153213Y91972D01*
X120713Y91972D01*
X120713Y76972D01*
X153213Y76972D01*
G36*
X87753Y87178D02*
X95753Y87178D01*
X95753Y72878D01*
X87753Y72878D01*
X87753Y87178D01*
G37*
G54D15*
X87753Y87178D02*
X95753Y87178D01*
X95753Y72878D01*
X87753Y72878D01*
X87753Y87178D01*
G36*
X109052Y87144D02*
X117052Y87144D01*
X117053Y72844D01*
X109053Y72844D01*
X109052Y87144D01*
G37*
G54D15*
X109052Y87144D02*
X117052Y87144D01*
X117053Y72844D01*
X109053Y72844D01*
X109052Y87144D01*
G36*
X252535Y45902D02*
X259535Y45902D01*
X259535Y23902D01*
X252535Y23902D01*
X252535Y45902D01*
G37*
G54D15*
X252535Y45902D02*
X259535Y45902D01*
X259535Y23902D01*
X252535Y23902D01*
X252535Y45902D01*
X268735Y34902D02*
G54D16*
D03*
X281435Y34902D02*
G54D16*
D03*
X294135Y34902D02*
G54D16*
D03*
X294135Y88902D02*
G54D16*
D03*
X281435Y88902D02*
G54D16*
D03*
G36*
X265235Y99902D02*
X272235Y99902D01*
X272235Y77902D01*
X265235Y77902D01*
X265235Y99902D01*
G37*
G54D15*
X265235Y99902D02*
X272235Y99902D01*
X272235Y77902D01*
X265235Y77902D01*
X265235Y99902D01*
G36*
X252535Y99902D02*
X259535Y99902D01*
X259535Y77902D01*
X252535Y77902D01*
X252535Y99902D01*
G37*
G54D15*
X252535Y99902D02*
X259535Y99902D01*
X259535Y77902D01*
X252535Y77902D01*
X252535Y99902D01*
X205938Y59483D02*
G54D17*
D03*
X205973Y27683D02*
G54D18*
D03*
X228986Y58895D02*
G54D10*
D03*
X229019Y37595D02*
G54D10*
D03*
G36*
X205400Y129610D02*
X227400Y129610D01*
X227400Y107610D01*
X205400Y107610D01*
X205400Y129610D01*
G37*
G36*
X233400Y129610D02*
X255400Y129610D01*
X255400Y107610D01*
X233400Y107610D01*
X233400Y129610D01*
G37*
X319831Y103920D02*
G54D19*
D03*
X319831Y83920D02*
G54D19*
D03*
X319831Y63920D02*
G54D19*
D03*
X319831Y43920D02*
G54D19*
D03*
X319831Y23920D02*
G54D19*
D03*
X43062Y106540D02*
G54D19*
D03*
X43062Y86540D02*
G54D19*
D03*
X43062Y66540D02*
G54D19*
D03*
X43062Y46540D02*
G54D19*
D03*
M02*
