%FSLAX34Y34*%
%MOMM*%
%LNSILK_TOP*%
G71*
G01*
%ADD10C, 0.09*%
%ADD11C, 0.00*%
%ADD12C, 0.15*%
%ADD13C, 0.30*%
%LPD*%
G54D10*
X186149Y25233D02*
X185616Y24344D01*
X184549Y23900D01*
X183483Y23900D01*
X182416Y24344D01*
X181883Y25233D01*
X181883Y29678D01*
X182416Y30567D01*
X183483Y31011D01*
X184549Y31011D01*
X185616Y30567D01*
X186149Y29678D01*
G54D10*
X188106Y28344D02*
X190772Y31011D01*
X190772Y23900D01*
G36*
X162432Y90087D02*
X187432Y90087D01*
X187432Y100087D01*
X162432Y100087D01*
X162432Y90087D01*
G37*
G54D11*
X162432Y90087D02*
X187432Y90087D01*
X187432Y100087D01*
X162432Y100087D01*
X162432Y90087D01*
G54D10*
X162827Y136451D02*
X165493Y129340D01*
X168160Y136451D01*
G54D10*
X172782Y129340D02*
X170116Y129340D01*
X170116Y136451D01*
X172782Y136451D01*
X173849Y136007D01*
X174382Y135118D01*
X174382Y130673D01*
X173849Y129784D01*
X172782Y129340D01*
G54D10*
X176339Y133784D02*
X179005Y136451D01*
X179005Y129340D01*
G54D10*
X122059Y27437D02*
X121526Y26548D01*
X120459Y26104D01*
X119392Y26104D01*
X118326Y26548D01*
X117792Y27437D01*
X117792Y31882D01*
X118326Y32771D01*
X119392Y33215D01*
X120459Y33215D01*
X121526Y32771D01*
X122059Y31882D01*
G54D10*
X128282Y26104D02*
X124015Y26104D01*
X124015Y26548D01*
X124549Y27437D01*
X127749Y30104D01*
X128282Y30993D01*
X128282Y31882D01*
X127749Y32771D01*
X126682Y33215D01*
X125615Y33215D01*
X124549Y32771D01*
X124015Y31882D01*
G54D12*
X123204Y48748D02*
X123204Y42398D01*
G54D12*
X120029Y45573D02*
X126379Y45573D01*
G54D13*
G75*
G01X100122Y61425D02*
G03X100122Y61425I-1600J0D01*
G01*
G54D10*
X96578Y27717D02*
X93911Y27717D01*
X93911Y34828D01*
X96578Y34828D01*
X97644Y34384D01*
X98178Y33495D01*
X98178Y29051D01*
X97644Y28162D01*
X96578Y27717D01*
G54D10*
X102801Y27717D02*
X100134Y27717D01*
X100134Y34828D01*
X102801Y34828D01*
X103867Y34384D01*
X104401Y33495D01*
X104401Y29051D01*
X103867Y28162D01*
X102801Y27717D01*
G54D10*
X106357Y32162D02*
X109024Y34828D01*
X109024Y27717D01*
G54D10*
X59874Y24521D02*
X60763Y26121D01*
X61652Y26654D01*
X63429Y26654D01*
G54D10*
X63429Y22387D02*
X56318Y22387D01*
X56318Y25054D01*
X56763Y26121D01*
X57652Y26654D01*
X58540Y26654D01*
X59429Y26121D01*
X59874Y25054D01*
X59874Y22387D01*
G54D10*
X58985Y28610D02*
X56318Y31277D01*
X63429Y31277D01*
G54D10*
X60474Y61221D02*
X61363Y62821D01*
X62252Y63354D01*
X64029Y63354D01*
G54D10*
X64029Y59087D02*
X56918Y59087D01*
X56918Y61754D01*
X57363Y62821D01*
X58252Y63354D01*
X59140Y63354D01*
X60029Y62821D01*
X60474Y61754D01*
X60474Y59087D01*
G54D10*
X64029Y69577D02*
X64029Y65310D01*
X63585Y65310D01*
X62696Y65844D01*
X60029Y69044D01*
X59140Y69577D01*
X58252Y69577D01*
X57363Y69044D01*
X56918Y67977D01*
X56918Y66910D01*
X57363Y65844D01*
X58252Y65310D01*
G36*
X91262Y94651D02*
X91262Y109751D01*
X84162Y109751D01*
X84162Y94651D01*
X91262Y94651D01*
G37*
G54D11*
X91262Y94651D02*
X91262Y109751D01*
X84162Y109751D01*
X84162Y94651D01*
X91262Y94651D01*
G54D10*
X68135Y118428D02*
X70801Y111316D01*
X73468Y118428D01*
G54D10*
X78090Y111316D02*
X75424Y111316D01*
X75424Y118428D01*
X78090Y118428D01*
X79157Y117983D01*
X79690Y117094D01*
X79690Y112650D01*
X79157Y111761D01*
X78090Y111316D01*
G54D10*
X85913Y111316D02*
X81647Y111316D01*
X81647Y111761D01*
X82180Y112650D01*
X85380Y115316D01*
X85913Y116205D01*
X85913Y117094D01*
X85380Y117983D01*
X84313Y118428D01*
X83247Y118428D01*
X82180Y117983D01*
X81647Y117094D01*
G54D10*
X112157Y103656D02*
X119268Y103656D01*
X119268Y107389D01*
G54D10*
X114824Y109345D02*
X112157Y112011D01*
X119268Y112011D01*
G54D10*
X109481Y94037D02*
X110370Y93504D01*
X110815Y92437D01*
X110815Y91371D01*
X110370Y90304D01*
X109481Y89771D01*
X105037Y89771D01*
X104148Y90304D01*
X103704Y91371D01*
X103704Y92437D01*
X104148Y93504D01*
X105037Y94037D01*
G54D10*
X105037Y95994D02*
X104148Y96527D01*
X103704Y97594D01*
X103704Y98660D01*
X104148Y99727D01*
X105037Y100260D01*
X105926Y100260D01*
X106815Y99727D01*
X107259Y98660D01*
X107704Y99727D01*
X108593Y100260D01*
X109481Y100260D01*
X110370Y99727D01*
X110815Y98660D01*
X110815Y97594D01*
X110370Y96527D01*
X109481Y95994D01*
G54D10*
X247685Y39269D02*
X247685Y36602D01*
X240574Y36602D01*
X240574Y39269D01*
X241019Y40335D01*
X241907Y40869D01*
X246352Y40869D01*
X247241Y40335D01*
X247685Y39269D01*
G54D10*
X247685Y45492D02*
X247685Y42825D01*
X240574Y42825D01*
X240574Y45492D01*
X241019Y46558D01*
X241907Y47092D01*
X246352Y47092D01*
X247241Y46558D01*
X247685Y45492D01*
G54D10*
X241907Y49048D02*
X241019Y49581D01*
X240574Y50648D01*
X240574Y51715D01*
X241019Y52781D01*
X241907Y53315D01*
X242796Y53315D01*
X243685Y52781D01*
X244130Y51715D01*
X244574Y52781D01*
X245463Y53315D01*
X246352Y53315D01*
X247241Y52781D01*
X247685Y51715D01*
X247685Y50648D01*
X247241Y49581D01*
X246352Y49048D01*
G54D10*
X201185Y72230D02*
X202074Y71696D01*
X202519Y70630D01*
X202519Y69563D01*
X202074Y68496D01*
X201185Y67963D01*
X196741Y67963D01*
X195852Y68496D01*
X195408Y69563D01*
X195408Y70630D01*
X195852Y71696D01*
X196741Y72230D01*
G54D10*
X195408Y78453D02*
X195408Y74186D01*
X198519Y74186D01*
X198519Y74719D01*
X198074Y75786D01*
X198074Y76853D01*
X198519Y77919D01*
X199408Y78453D01*
X201185Y78453D01*
X202074Y77919D01*
X202519Y76853D01*
X202519Y75786D01*
X202074Y74719D01*
X201185Y74186D01*
G54D10*
X230040Y71912D02*
X230929Y71378D01*
X231374Y70312D01*
X231374Y69245D01*
X230929Y68178D01*
X230040Y67645D01*
X225596Y67645D01*
X224707Y68178D01*
X224262Y69245D01*
X224262Y70312D01*
X224707Y71378D01*
X225596Y71912D01*
G54D10*
X225596Y78135D02*
X224707Y77601D01*
X224262Y76535D01*
X224262Y75468D01*
X224707Y74401D01*
X225596Y73868D01*
X227818Y73868D01*
X228262Y73868D01*
X227374Y75468D01*
X227374Y76535D01*
X227818Y77601D01*
X228707Y78135D01*
X230040Y78135D01*
X230929Y77601D01*
X231374Y76535D01*
X231374Y75468D01*
X230929Y74401D01*
X230040Y73868D01*
X227818Y73868D01*
G54D12*
X255400Y107610D02*
X205400Y107610D01*
X205400Y129610D01*
X255400Y129610D01*
X255400Y107610D01*
G54D10*
X222568Y96338D02*
X222568Y103449D01*
X226301Y103449D01*
G54D10*
X222568Y99893D02*
X226301Y99893D01*
G54D10*
X228257Y100782D02*
X230923Y103449D01*
X230923Y96338D01*
G54D13*
G75*
G01X257602Y51265D02*
G03X257602Y51265I-1600J0D01*
G01*
M02*
