%FSLAX34Y34*%
%MOMM*%
%LNSILK_BOTTOM*%
G71*
G01*
%ADD10C, 0.09*%
%ADD11C, 0.13*%
%ADD12C, 0.10*%
%LPD*%
G54D10*
X298418Y64086D02*
X299307Y65686D01*
X300196Y66220D01*
X301974Y66220D01*
G54D10*
X301974Y61953D02*
X294863Y61953D01*
X294863Y64620D01*
X295307Y65686D01*
X296196Y66220D01*
X297085Y66220D01*
X297974Y65686D01*
X298418Y64620D01*
X298418Y61953D01*
G54D10*
X296196Y68176D02*
X295307Y68709D01*
X294863Y69776D01*
X294863Y70843D01*
X295307Y71909D01*
X296196Y72443D01*
X297085Y72443D01*
X297974Y71909D01*
X298418Y70843D01*
X298863Y71909D01*
X299752Y72443D01*
X300641Y72443D01*
X301529Y71909D01*
X301974Y70843D01*
X301974Y69776D01*
X301529Y68709D01*
X300641Y68176D01*
G54D11*
X342302Y84392D02*
X340880Y84392D01*
X340880Y82169D01*
X341236Y81281D01*
X341947Y80836D01*
X342658Y80836D01*
X343369Y81281D01*
X343724Y82169D01*
X343724Y86614D01*
X343369Y87503D01*
X342658Y87947D01*
X341947Y87947D01*
X341236Y87503D01*
X340880Y86614D01*
G54D11*
X338391Y80836D02*
X338391Y87947D01*
X335547Y80836D01*
X335547Y87947D01*
G54D11*
X331281Y80836D02*
X333058Y80836D01*
X333058Y87947D01*
X331281Y87947D01*
X330570Y87503D01*
X330214Y86614D01*
X330214Y82169D01*
X330570Y81281D01*
X331281Y80836D01*
G54D11*
X349750Y105211D02*
X346906Y105211D01*
G54D11*
X348328Y106989D02*
X348328Y103433D01*
G54D11*
X341573Y102100D02*
X344417Y102100D01*
X344417Y102544D01*
X344061Y103433D01*
X341928Y106100D01*
X341573Y106989D01*
X341573Y107878D01*
X341928Y108767D01*
X342639Y109211D01*
X343350Y109211D01*
X344061Y108767D01*
X344417Y107878D01*
G54D11*
X336951Y102100D02*
X336951Y109211D01*
X339084Y104767D01*
X339084Y103878D01*
X336240Y103878D01*
G54D11*
X333751Y109211D02*
X331973Y102100D01*
X330195Y109211D01*
G54D11*
X352970Y42476D02*
X353325Y41587D01*
X354036Y41143D01*
X354747Y41143D01*
X355458Y41587D01*
X355814Y42476D01*
X355814Y46921D01*
X355458Y47810D01*
X354747Y48254D01*
X354036Y48254D01*
X353325Y47810D01*
X352970Y46921D01*
G54D11*
X350481Y41143D02*
X348703Y48254D01*
X346925Y41143D01*
G54D11*
X349770Y43810D02*
X347637Y43810D01*
G54D11*
X344436Y41143D02*
X344436Y48254D01*
X341592Y41143D01*
X341592Y48254D01*
G54D11*
X339103Y41143D02*
X335547Y41143D01*
G54D11*
X333058Y41143D02*
X333058Y48254D01*
G54D11*
X330214Y41143D02*
X330214Y48254D01*
G54D11*
X333058Y44699D02*
X330214Y44699D01*
G54D11*
X352530Y62796D02*
X352885Y61907D01*
X353596Y61463D01*
X354307Y61463D01*
X355018Y61907D01*
X355374Y62796D01*
X355374Y67241D01*
X355018Y68130D01*
X354307Y68574D01*
X353596Y68574D01*
X352885Y68130D01*
X352530Y67241D01*
G54D11*
X350041Y61463D02*
X348263Y68574D01*
X346485Y61463D01*
G54D11*
X349330Y64130D02*
X347197Y64130D01*
G54D11*
X343996Y61463D02*
X343996Y68574D01*
X341152Y61463D01*
X341152Y68574D01*
G54D11*
X338663Y61463D02*
X335107Y61463D01*
G54D11*
X332618Y68574D02*
X332618Y61463D01*
X330129Y61463D01*
G54D11*
X30980Y105211D02*
X28136Y105211D01*
G54D11*
X29558Y106989D02*
X29558Y103433D01*
G54D11*
X22803Y109211D02*
X25647Y109211D01*
X25647Y106100D01*
X25291Y106100D01*
X24580Y106544D01*
X23869Y106544D01*
X23158Y106100D01*
X22803Y105211D01*
X22803Y103433D01*
X23158Y102544D01*
X23869Y102100D01*
X24580Y102100D01*
X25291Y102544D01*
X25647Y103433D01*
G54D11*
X20314Y109211D02*
X18536Y102100D01*
X16758Y109211D01*
G54D11*
X29473Y85971D02*
X28051Y85971D01*
X28051Y83748D01*
X28406Y82859D01*
X29117Y82415D01*
X29828Y82415D01*
X30539Y82859D01*
X30895Y83748D01*
X30895Y88193D01*
X30539Y89082D01*
X29828Y89526D01*
X29117Y89526D01*
X28406Y89082D01*
X28051Y88193D01*
G54D11*
X25562Y82415D02*
X25562Y89526D01*
X22718Y82415D01*
X22718Y89526D01*
G54D11*
X18451Y82415D02*
X20229Y82415D01*
X20229Y89526D01*
X18451Y89526D01*
X17740Y89082D01*
X17385Y88193D01*
X17385Y83748D01*
X17740Y82859D01*
X18451Y82415D01*
G54D11*
X29473Y65016D02*
X28406Y64127D01*
X28051Y63238D01*
X28051Y61460D01*
G54D11*
X30895Y61460D02*
X30895Y68571D01*
X29117Y68571D01*
X28406Y68127D01*
X28051Y67238D01*
X28051Y66349D01*
X28406Y65460D01*
X29117Y65016D01*
X30895Y65016D01*
G54D11*
X25562Y65460D02*
X22718Y61460D01*
G54D11*
X25562Y61460D02*
X22718Y65460D01*
G54D11*
X29558Y41140D02*
X29558Y48251D01*
G54D11*
X30980Y48251D02*
X28136Y48251D01*
G54D11*
X25647Y45140D02*
X22803Y41140D01*
G54D11*
X25647Y41140D02*
X22803Y45140D01*
G54D11*
X342302Y24702D02*
X340880Y24702D01*
X340880Y22479D01*
X341236Y21591D01*
X341947Y21146D01*
X342658Y21146D01*
X343369Y21591D01*
X343724Y22479D01*
X343724Y26924D01*
X343369Y27813D01*
X342658Y28257D01*
X341947Y28257D01*
X341236Y27813D01*
X340880Y26924D01*
G54D11*
X338391Y21146D02*
X338391Y28257D01*
X335547Y21146D01*
X335547Y28257D01*
G54D11*
X331281Y21146D02*
X333058Y21146D01*
X333058Y28257D01*
X331281Y28257D01*
X330570Y27813D01*
X330214Y26924D01*
X330214Y22479D01*
X330570Y21591D01*
X331281Y21146D01*
G54D12*
X14470Y32250D02*
X14470Y121150D01*
X52512Y121070D01*
X52570Y32250D01*
X14470Y32250D01*
G54D12*
X309110Y13200D02*
X309110Y114800D01*
X359910Y114800D01*
X359910Y13200D01*
X309110Y13200D01*
M02*
