M48
; DRILL file KiCad 10.0.1 date 2026-05-18T14:22:08
; FORMAT={-:-/ absolute / metric / decimal}
; #@! TF.CreationDate,2026-05-18T14:22:08+03:00
; #@! TF.GenerationSoftware,Kicad,Pcbnew,10.0.1
; #@! TF.FileFunction,MixedPlating,1,2
FMAT,2
METRIC
; #@! TA.AperFunction,Plated,PTH,ViaDrill
T1C0.300
; #@! TA.AperFunction,Plated,PTH,ComponentDrill
T2C0.700
%
G90
G05
T1
X132.969Y-88.0
X134.5Y-93.5
X136.0Y-81.0
X136.456Y-86.544
X138.5Y-75.25
X138.516Y-82.0
X139.446Y-84.582
X139.475Y-94.361
X139.5Y-93.25
X140.5Y-79.0
X141.0Y-84.5
X141.71Y-88.541
X142.0Y-97.75
X142.62Y-91.48
X142.75Y-82.5
X143.0Y-75.399
X143.0Y-76.5
X143.0Y-83.399
X143.964Y-84.657
X144.085Y-90.9
X145.45Y-80.04
X145.5Y-75.0
X146.75Y-89.15
X146.8Y-72.7
X147.25Y-105.0
X148.0Y-89.0
X148.5Y-82.0
X149.251Y-93.601
X149.5Y-82.0
X150.5Y-82.0
X150.805Y-94.305
X151.5Y-82.0
X151.5Y-95.6
X152.0Y-90.25
X152.25Y-79.85
X153.0Y-79.5
X153.75Y-95.75
X154.0Y-77.0
X155.0Y-76.0
X155.0Y-95.5
X156.5Y-84.0
X157.25Y-94.75
X158.25Y-86.5
X161.25Y-99.5
X163.5Y-76.0
X164.75Y-84.707
T2
X158.5Y-70.88
X158.5Y-73.42
X158.5Y-75.96
X158.5Y-78.5
M30
